  0
SECTION
  2
HEADER
  9
$ACADVER
  1
AC1014
  9
$HANDSEED
  5
FFFF
  9
$MEASUREMENT
 70
     1
  0
ENDSEC
  0
SECTION
  2
TABLES
  0
TABLE
  2
VPORT
  5
8
330
0
100
AcDbSymbolTable
 70
     4
  0
VPORT
  5
2E
330
8
100
AcDbSymbolTableRecord
100
AcDbViewportTableRecord
  2
*ACTIVE
 70
     0
 10
0.0
 20
0.0
 11
1.0
 21
1.0
 12
210.0
 22
148.5
 13
0.0
 23
0.0
 14
10.0
 24
10.0
 15
10.0
 25
10.0
 16
0.0
 26
0.0
 36
1.0
 17
0.0
 27
0.0
 37
0.0
 40
341.0
 41
1.24
 42
50.0
 43
0.0
 44
0.0
 50
0.0
 51
0.0
 71
     0
 72
   100
 73
     1
 74
     3
 75
     0
 76
     0
 77
     0
 78
     0
  0
ENDTAB
  0
TABLE
  2
LTYPE
  5
5
330
0
100
AcDbSymbolTable
 70
     1
  0
LTYPE
  5
14
330
5
100
AcDbSymbolTableRecord
100
AcDbLinetypeTableRecord
  2
BYBLOCK
 70
     0
  3

 72
    65
 73
     0
 40
0.0
  0
LTYPE
  5
15
330
5
100
AcDbSymbolTableRecord
100
AcDbLinetypeTableRecord
  2
BYLAYER
 70
     0
  3

 72
    65
 73
     0
 40
0.0
  0
LTYPE
  5
16
330
5
100
AcDbSymbolTableRecord
100
AcDbLinetypeTableRecord
  2
CONTINUOUS
 70
     0
  3
Solid line
 72
    65
 73
     0
 40
0.0
  0
ENDTAB
  0
TABLE
  2
LAYER
  5
2
100
AcDbSymbolTable
 70
2
  0
LAYER
  5
50
100
AcDbSymbolTableRecord
100
AcDbLayerTableRecord
  2
0
 70
0
  6
CONTINUOUS
  0
LAYER
  5
51
100
AcDbSymbolTableRecord
100
AcDbLayerTableRecord
  2
Layer_1
 70
0
  6
CONTINUOUS
  0
ENDTAB
  0
TABLE
  2
STYLE
  5
3
330
0
100
AcDbSymbolTable
 70
     1
  0
STYLE
  5
11
330
3
100
AcDbSymbolTableRecord
100
AcDbTextStyleTableRecord
  2
STANDARD
 70
     0
 40
0.0
 41
1.0
 50
0.0
 71
     0
 42
2.5
  3
txt
  4

  0
ENDTAB
  0
TABLE
  2
VIEW
  5
6
330
0
100
AcDbSymbolTable
 70
     0
  0
ENDTAB
  0
TABLE
  2
UCS
  5
7
330
0
100
AcDbSymbolTable
 70
     0
  0
ENDTAB
  0
TABLE
  2
APPID
  5
9
330
0
100
AcDbSymbolTable
 70
     2
  0
APPID
  5
12
330
9
100
AcDbSymbolTableRecord
100
AcDbRegAppTableRecord
  2
ACAD
 70
     0
  0
ENDTAB
  0
TABLE
  2
DIMSTYLE
  5
A
330
0
100
AcDbSymbolTable
 70
     1
  0
DIMSTYLE
105
27
330
A
100
AcDbSymbolTableRecord
100
AcDbDimStyleTableRecord
  2
ISO-25
 70
     0
  3

  4

  5

  6

  7

 40
1.0
 41
2.5
 42
0.625
 43
3.75
 44
1.25
 45
0.0
 46
0.0
 47
0.0
 48
0.0
140
2.5
141
2.5
142
0.0
143
0.03937007874016
144
1.0
145
0.0
146
1.0
147
0.625
 71
     0
 72
     0
 73
     0
 74
     0
 75
     0
 76
     0
 77
     1
 78
     8
170
     0
171
     3
172
     1
173
     0
174
     0
175
     0
176
     0
177
     0
178
     0
270
     2
271
     2
272
     2
273
     2
274
     3
340
11
275
     0
280
     0
281
     0
282
     0
283
     0
284
     8
285
     0
286
     0
287
     3
288
     0
  0
ENDTAB
  0
TABLE
  2
BLOCK_RECORD
  5
1
330
0
100
AcDbSymbolTable
 70
     1
  0
BLOCK_RECORD
  5
1F
330
1
100
AcDbSymbolTableRecord
100
AcDbBlockTableRecord
  2
*MODEL_SPACE
  0
BLOCK_RECORD
  5
1B
330
1
100
AcDbSymbolTableRecord
100
AcDbBlockTableRecord
  2
*PAPER_SPACE
  0
ENDTAB
  0
ENDSEC
  0
SECTION
  2
BLOCKS
  0
BLOCK
  5
20
330
1F
100
AcDbEntity
  8
0
100
AcDbBlockBegin
  2
*MODEL_SPACE
 70
     0
 10
0.0
 20
0.0
 30
0.0
  3
*MODEL_SPACE
  1

  0
ENDBLK
  5
21
330
1F
100
AcDbEntity
  8
0
100
AcDbBlockEnd
  0
BLOCK
  5
1C
330
1B
100
AcDbEntity
 67
     1
  8
0
100
AcDbBlockBegin
  2
*PAPER_SPACE
  1

  0
ENDBLK
  5
1D
330
1B
100
AcDbEntity
 67
     1
  8
0
100
AcDbBlockEnd
  0
ENDSEC
  0
SECTION
  2
ENTITIES
  0
LWPOLYLINE
  5
100
100
AcDbEntity
  8
Layer_1
 62
7
100
AcDbPolyline
 90
5
 70
1
 10
23.124170
 20
280.598934
 30
0.0
 10
22.704557
 20
280.543640
 30
0.0
 10
23.261112
 20
276.320126
 30
0.0
 10
23.680725
 20
276.375419
 30
0.0
 10
23.124170
 20
280.598934
 30
0.0
  0
LWPOLYLINE
  5
101
100
AcDbEntity
  8
Layer_1
 62
7
100
AcDbPolyline
 90
65
 70
1
 10
36.323365
 20
280.597384
 30
0.0
 10
35.377167
 20
280.549325
 30
0.0
 10
34.457846
 20
280.408765
 30
0.0
 10
33.570045
 20
280.179838
 30
0.0
 10
32.717898
 20
279.867713
 30
0.0
 10
31.906580
 20
279.477039
 30
0.0
 10
31.140736
 20
279.011951
 30
0.0
 10
30.425532
 20
278.477617
 30
0.0
 10
29.765109
 20
277.878687
 30
0.0
 10
29.164110
 20
277.219295
 30
0.0
 10
28.628226
 20
276.504610
 30
0.0
 10
28.161588
 20
275.738766
 30
0.0
 10
27.769365
 20
274.926929
 30
0.0
 10
27.455688
 20
274.073234
 30
0.0
 10
27.226244
 20
273.182849
 30
0.0
 10
27.084652
 20
272.260425
 30
0.0
 10
27.036593
 20
271.310096
 30
0.0
 10
27.084133
 20
270.364417
 30
0.0
 10
27.224693
 20
269.445093
 30
0.0
 10
27.453621
 20
268.557292
 30
0.0
 10
27.765748
 20
267.705148
 30
0.0
 10
28.156421
 20
266.893828
 30
0.0
 10
28.621508
 20
266.127983
 30
0.0
 10
29.155842
 20
265.412264
 30
0.0
 10
29.754771
 20
264.751840
 30
0.0
 10
30.414163
 20
264.151360
 30
0.0
 10
31.129366
 20
263.615476
 30
0.0
 10
31.894695
 20
263.148836
 30
0.0
 10
32.706529
 20
262.756612
 30
0.0
 10
33.560226
 20
262.442935
 30
0.0
 10
34.450610
 20
262.212975
 30
0.0
 10
35.373034
 20
262.071900
 30
0.0
 10
36.323365
 20
262.023325
 30
0.0
 10
37.273693
 20
262.071384
 30
0.0
 10
38.197152
 20
262.211943
 30
0.0
 10
39.088570
 20
262.440869
 30
0.0
 10
39.943299
 20
262.752995
 30
0.0
 10
40.756686
 20
263.143668
 30
0.0
 10
41.524081
 20
263.608758
 30
0.0
 10
42.240832
 20
264.143092
 30
0.0
 10
42.901256
 20
264.742022
 30
0.0
 10
43.501738
 20
265.401414
 30
0.0
 10
44.036588
 20
266.116098
 30
0.0
 10
44.501675
 20
266.881942
 30
0.0
 10
44.891832
 20
267.693779
 30
0.0
 10
45.202924
 20
268.547473
 30
0.0
 10
45.429267
 20
269.437341
 30
0.0
 10
45.566726
 20
270.360282
 30
0.0
 10
45.610136
 20
271.310096
 30
0.0
 10
45.562075
 20
272.256291
 30
0.0
 10
45.421518
 20
273.175615
 30
0.0
 10
45.193106
 20
274.063416
 30
0.0
 10
44.880982
 20
274.915560
 30
0.0
 10
44.489790
 20
275.726880
 30
0.0
 10
44.025219
 20
276.492725
 30
0.0
 10
43.490885
 20
277.208444
 30
0.0
 10
42.891440
 20
277.868868
 30
0.0
 10
42.232048
 20
278.469348
 30
0.0
 10
41.517363
 20
279.005233
 30
0.0
 10
40.751516
 20
279.471871
 30
0.0
 10
39.939679
 20
279.864095
 30
0.0
 10
39.086504
 20
280.177771
 30
0.0
 10
38.196117
 20
280.407731
 30
0.0
 10
37.273177
 20
280.548808
 30
0.0
 10
36.323365
 20
280.597384
 30
0.0
  0
LWPOLYLINE
  5
102
100
AcDbEntity
  8
Layer_1
 62
7
100
AcDbPolyline
 90
5
 70
1
 10
25.158154
 20
280.596867
 30
0.0
 10
24.602116
 20
276.363534
 30
0.0
 10
24.998991
 20
276.310824
 30
0.0
 10
25.555029
 20
280.544157
 30
0.0
 10
25.158154
 20
280.596867
 30
0.0
  0
LWPOLYLINE
  5
103
100
AcDbEntity
  8
Layer_1
 62
7
100
AcDbPolyline
 90
111
 70
1
 10
36.323365
 20
280.200509
 30
0.0
 10
37.229769
 20
280.154000
 30
0.0
 10
38.110334
 20
280.019124
 30
0.0
 10
38.960930
 20
279.799500
 30
0.0
 10
39.776900
 20
279.499776
 30
0.0
 10
40.553079
 20
279.125122
 30
0.0
 10
41.285853
 20
278.679671
 30
0.0
 10
41.969531
 20
278.167558
 30
0.0
 10
42.600501
 20
277.593950
 30
0.0
 10
43.173591
 20
276.963497
 30
0.0
 10
43.684671
 20
276.280851
 30
0.0
 10
44.128573
 20
275.549630
 30
0.0
 10
44.501159
 20
274.775517
 30
0.0
 10
44.797781
 20
273.962647
 30
0.0
 10
45.014305
 20
273.115153
 30
0.0
 10
45.145047
 20
272.238721
 30
0.0
 10
45.186906
 20
271.336967
 30
0.0
 10
45.140914
 20
270.430563
 30
0.0
 10
45.006556
 20
269.550514
 30
0.0
 10
44.787962
 20
268.701469
 30
0.0
 10
44.490306
 20
267.887050
 30
0.0
 10
44.116685
 20
267.111902
 30
0.0
 10
43.672786
 20
266.381197
 30
0.0
 10
43.162741
 20
265.699070
 30
0.0
 10
42.590682
 20
265.069650
 30
0.0
 10
41.961262
 20
264.497592
 30
0.0
 10
41.278616
 20
263.987028
 30
0.0
 10
40.547911
 20
263.543128
 30
0.0
 10
39.773283
 20
263.170024
 30
0.0
 10
38.958861
 20
262.871851
 30
0.0
 10
38.109302
 20
262.653261
 30
0.0
 10
37.229250
 20
262.518900
 30
0.0
 10
36.323365
 20
262.473426
 30
0.0
 10
35.416961
 20
262.518900
 30
0.0
 10
34.536909
 20
262.653261
 30
0.0
 10
33.687866
 20
262.871851
 30
0.0
 10
32.873444
 20
263.170024
 30
0.0
 10
32.098300
 20
263.543128
 30
0.0
 10
31.367595
 20
263.987028
 30
0.0
 10
30.685464
 20
264.497592
 30
0.0
 10
30.056047
 20
265.069650
 30
0.0
 10
29.483989
 20
265.699070
 30
0.0
 10
28.973425
 20
266.381197
 30
0.0
 10
28.529523
 20
267.111902
 30
0.0
 10
28.156421
 20
267.887050
 30
0.0
 10
28.113013
 20
268.005906
 30
0.0
 10
31.417720
 20
265.471176
 30
0.0
 10
31.518489
 20
265.602433
 30
0.0
 10
31.563447
 20
265.561608
 30
0.0
 10
32.140157
 20
265.130112
 30
0.0
 10
32.757689
 20
264.754423
 30
0.0
 10
33.411914
 20
264.438679
 30
0.0
 10
34.099727
 20
264.186500
 30
0.0
 10
34.816478
 20
264.001498
 30
0.0
 10
35.559068
 20
263.887809
 30
0.0
 10
36.323365
 20
263.849053
 30
0.0
 10
37.087659
 20
263.887809
 30
0.0
 10
37.829733
 20
264.000463
 30
0.0
 10
38.547000
 20
264.183915
 30
0.0
 10
39.234297
 20
264.435063
 30
0.0
 10
39.889038
 20
264.749255
 30
0.0
 10
40.506054
 20
265.122876
 30
0.0
 10
41.082764
 20
265.552824
 30
0.0
 10
41.615031
 20
266.035482
 30
0.0
 10
42.098721
 20
266.566199
 30
0.0
 10
42.530220
 20
267.142390
 30
0.0
 10
42.905391
 20
267.759409
 30
0.0
 10
43.221134
 20
268.414666
 30
0.0
 10
43.473832
 20
269.103511
 30
0.0
 10
43.658316
 20
269.822331
 30
0.0
 10
43.772005
 20
270.568022
 30
0.0
 10
43.810761
 20
271.336967
 30
0.0
 10
43.772005
 20
272.101262
 30
0.0
 10
43.658316
 20
272.843335
 30
0.0
 10
43.473832
 20
273.560604
 30
0.0
 10
43.221134
 20
274.247901
 30
0.0
 10
42.905391
 20
274.902641
 30
0.0
 10
42.530220
 20
275.519658
 30
0.0
 10
42.098721
 20
276.096367
 30
0.0
 10
41.615031
 20
276.628634
 30
0.0
 10
41.082764
 20
277.112325
 30
0.0
 10
40.506054
 20
277.543824
 30
0.0
 10
39.889038
 20
277.918994
 30
0.0
 10
39.234297
 20
278.234737
 30
0.0
 10
38.547000
 20
278.486918
 30
0.0
 10
37.829733
 20
278.671920
 30
0.0
 10
37.087659
 20
278.785608
 30
0.0
 10
36.323365
 20
278.824366
 30
0.0
 10
35.559068
 20
278.785608
 30
0.0
 10
34.816478
 20
278.671920
 30
0.0
 10
34.099727
 20
278.486918
 30
0.0
 10
33.411914
 20
278.234737
 30
0.0
 10
32.757689
 20
277.918994
 30
0.0
 10
32.140157
 20
277.543824
 30
0.0
 10
31.563447
 20
277.112325
 30
0.0
 10
31.489033
 20
277.044629
 30
0.0
 10
31.402218
 20
277.157284
 30
0.0
 10
28.088209
 20
274.600334
 30
0.0
 10
28.156421
 20
274.786886
 30
0.0
 10
28.529523
 20
275.561516
 30
0.0
 10
28.973425
 20
276.292220
 30
0.0
 10
29.483989
 20
276.974866
 30
0.0
 10
30.056047
 20
277.604285
 30
0.0
 10
30.685464
 20
278.176343
 30
0.0
 10
31.367595
 20
278.686389
 30
0.0
 10
32.098300
 20
279.130290
 30
0.0
 10
32.873444
 20
279.503911
 30
0.0
 10
33.687866
 20
279.801567
 30
0.0
 10
34.536909
 20
280.020158
 30
0.0
 10
35.416961
 20
280.154517
 30
0.0
 10
36.323365
 20
280.200509
 30
0.0
  0
LWPOLYLINE
  5
104
100
AcDbEntity
  8
Layer_1
 62
7
100
AcDbPolyline
 90
5
 70
1
 10
20.765657
 20
280.014991
 30
0.0
 10
20.368782
 20
279.856344
 30
0.0
 10
21.983154
 20
275.940304
 30
0.0
 10
22.380029
 20
276.098950
 30
0.0
 10
20.765657
 20
280.014991
 30
0.0
  0
LWPOLYLINE
  5
105
100
AcDbEntity
  8
Layer_1
 62
7
100
AcDbPolyline
 90
5
 70
1
 10
27.512534
 20
280.014991
 30
0.0
 10
25.898677
 20
276.098950
 30
0.0
 10
26.269197
 20
275.940304
 30
0.0
 10
27.909409
 20
279.856344
 30
0.0
 10
27.512534
 20
280.014991
 30
0.0
  0
LWPOLYLINE
  5
106
100
AcDbEntity
  8
Layer_1
 62
7
100
AcDbPolyline
 90
5
 70
1
 10
18.615401
 20
278.848137
 30
0.0
 10
18.280021
 20
278.590271
 30
0.0
 10
20.857641
 20
275.232337
 30
0.0
 10
21.193538
 20
275.490202
 30
0.0
 10
18.615401
 20
278.848137
 30
0.0
  0
LWPOLYLINE
  5
107
100
AcDbEntity
  8
Layer_1
 62
7
100
AcDbPolyline
 90
5
 70
1
 10
29.656071
 20
278.824366
 30
0.0
 10
27.062948
 20
275.464364
 30
0.0
 10
27.380242
 20
275.199781
 30
0.0
 10
29.973365
 20
278.586137
 30
0.0
 10
29.656071
 20
278.824366
 30
0.0
  0
LWPOLYLINE
  5
108
100
AcDbEntity
  8
Layer_1
 62
7
100
AcDbPolyline
 90
113
 70
1
 10
36.323365
 20
278.374781
 30
0.0
 10
37.043733
 20
278.338090
 30
0.0
 10
37.743431
 20
278.230603
 30
0.0
 10
38.419360
 20
278.055937
 30
0.0
 10
39.067898
 20
277.817709
 30
0.0
 10
39.684915
 20
277.519536
 30
0.0
 10
40.267826
 20
277.165035
 30
0.0
 10
40.811979
 20
276.757825
 30
0.0
 10
41.313756
 20
276.301005
 30
0.0
 10
41.770577
 20
275.798710
 30
0.0
 10
42.177787
 20
275.254558
 30
0.0
 10
42.532286
 20
274.672164
 30
0.0
 10
42.830461
 20
274.055148
 30
0.0
 10
43.068689
 20
273.406608
 30
0.0
 10
43.243354
 20
272.730681
 30
0.0
 10
43.350841
 20
272.030465
 30
0.0
 10
43.387533
 20
271.310096
 30
0.0
 10
43.350841
 20
270.590243
 30
0.0
 10
43.243354
 20
269.890027
 30
0.0
 10
43.068689
 20
269.214099
 30
0.0
 10
42.830461
 20
268.565560
 30
0.0
 10
42.532286
 20
267.948544
 30
0.0
 10
42.177787
 20
267.366151
 30
0.0
 10
41.770577
 20
266.821998
 30
0.0
 10
41.313756
 20
266.319703
 30
0.0
 10
40.811979
 20
265.862884
 30
0.0
 10
40.267826
 20
265.455672
 30
0.0
 10
39.684915
 20
265.101172
 30
0.0
 10
39.067898
 20
264.803000
 30
0.0
 10
38.419360
 20
264.564772
 30
0.0
 10
37.743431
 20
264.390105
 30
0.0
 10
37.043733
 20
264.282618
 30
0.0
 10
36.323365
 20
264.245928
 30
0.0
 10
35.602994
 20
264.282618
 30
0.0
 10
34.902780
 20
264.390105
 30
0.0
 10
34.226851
 20
264.564772
 30
0.0
 10
33.578829
 20
264.803000
 30
0.0
 10
32.961294
 20
265.101172
 30
0.0
 10
32.378901
 20
265.455672
 30
0.0
 10
31.834748
 20
265.862884
 30
0.0
 10
31.332455
 20
266.319703
 30
0.0
 10
30.876152
 20
266.821998
 30
0.0
 10
30.468424
 20
267.366151
 30
0.0
 10
30.113925
 20
267.948544
 30
0.0
 10
29.815750
 20
268.565560
 30
0.0
 10
29.748054
 20
268.750562
 30
0.0
 10
31.809428
 20
267.906168
 30
0.0
 10
31.955671
 20
267.710832
 30
0.0
 10
32.321542
 20
267.308789
 30
0.0
 10
32.723584
 20
266.942921
 30
0.0
 10
33.159731
 20
266.616843
 30
0.0
 10
33.626372
 20
266.332622
 30
0.0
 10
34.121431
 20
266.093876
 30
0.0
 10
34.641295
 20
265.903191
 30
0.0
 10
35.183381
 20
265.763665
 30
0.0
 10
35.745105
 20
265.677363
 30
0.0
 10
36.323365
 20
265.648426
 30
0.0
 10
36.901106
 20
265.677363
 30
0.0
 10
37.462830
 20
265.763665
 30
0.0
 10
38.004914
 20
265.903191
 30
0.0
 10
38.524780
 20
266.093876
 30
0.0
 10
39.019839
 20
266.332622
 30
0.0
 10
39.486477
 20
266.616843
 30
0.0
 10
39.922627
 20
266.942921
 30
0.0
 10
40.325188
 20
267.308789
 30
0.0
 10
40.690540
 20
267.710832
 30
0.0
 10
41.017134
 20
268.146981
 30
0.0
 10
41.300839
 20
268.613619
 30
0.0
 10
41.539583
 20
269.108678
 30
0.0
 10
41.730268
 20
269.628545
 30
0.0
 10
41.869796
 20
270.170631
 30
0.0
 10
41.956095
 20
270.732353
 30
0.0
 10
41.985033
 20
271.310096
 30
0.0
 10
41.956095
 20
271.888355
 30
0.0
 10
41.869796
 20
272.450078
 30
0.0
 10
41.730268
 20
272.992163
 30
0.0
 10
41.539583
 20
273.512028
 30
0.0
 10
41.300839
 20
274.007088
 30
0.0
 10
41.017134
 20
274.473727
 30
0.0
 10
40.690540
 20
274.909876
 30
0.0
 10
40.325188
 20
275.311918
 30
0.0
 10
39.922627
 20
275.677787
 30
0.0
 10
39.486477
 20
276.003866
 30
0.0
 10
39.019839
 20
276.288086
 30
0.0
 10
38.524780
 20
276.526831
 30
0.0
 10
38.004914
 20
276.717517
 30
0.0
 10
37.462830
 20
276.857044
 30
0.0
 10
36.901106
 20
276.943343
 30
0.0
 10
36.323365
 20
276.972282
 30
0.0
 10
35.745105
 20
276.943343
 30
0.0
 10
35.183381
 20
276.857044
 30
0.0
 10
34.641295
 20
276.717517
 30
0.0
 10
34.121431
 20
276.526831
 30
0.0
 10
33.626372
 20
276.288086
 30
0.0
 10
33.159731
 20
276.003866
 30
0.0
 10
32.723584
 20
275.677787
 30
0.0
 10
32.321542
 20
275.311918
 30
0.0
 10
31.955671
 20
274.909876
 30
0.0
 10
31.806843
 20
274.710921
 30
0.0
 10
29.744437
 20
273.860328
 30
0.0
 10
29.815750
 20
274.055148
 30
0.0
 10
30.113925
 20
274.672164
 30
0.0
 10
30.468424
 20
275.254558
 30
0.0
 10
30.876152
 20
275.798710
 30
0.0
 10
31.332455
 20
276.301005
 30
0.0
 10
31.834748
 20
276.757825
 30
0.0
 10
32.378901
 20
277.165035
 30
0.0
 10
32.961294
 20
277.519536
 30
0.0
 10
33.578829
 20
277.817709
 30
0.0
 10
34.226851
 20
278.055937
 30
0.0
 10
34.902780
 20
278.230603
 30
0.0
 10
35.602994
 20
278.338090
 30
0.0
 10
36.323365
 20
278.374781
 30
0.0
  0
LWPOLYLINE
  5
109
100
AcDbEntity
  8
Layer_1
 62
7
100
AcDbPolyline
 90
5
 70
1
 10
16.850134
 20
277.157284
 30
0.0
 10
16.611906
 20
276.813635
 30
0.0
 10
19.971907
 20
274.246867
 30
0.0
 10
20.236491
 20
274.564677
 30
0.0
 10
16.850134
 20
277.157284
 30
0.0
  0
LWPOLYLINE
  5
10a
100
AcDbEntity
  8
Layer_1
 62
7
100
AcDbPolyline
 90
123
 70
1
 10
36.323365
 20
276.549052
 30
0.0
 10
36.861832
 20
276.521664
 30
0.0
 10
37.383765
 20
276.442082
 30
0.0
 10
37.887611
 20
276.312891
 30
0.0
 10
38.369750
 20
276.136157
 30
0.0
 10
38.828120
 20
275.914982
 30
0.0
 10
39.259618
 20
275.651949
 30
0.0
 10
39.662695
 20
275.349642
 30
0.0
 10
40.033731
 20
275.011162
 30
0.0
 10
40.371178
 20
274.638575
 30
0.0
 10
40.671935
 20
274.235498
 30
0.0
 10
40.932901
 20
273.803483
 30
0.0
 10
41.152527
 20
273.345630
 30
0.0
 10
41.327710
 20
272.864523
 30
0.0
 10
41.456385
 20
272.363261
 30
0.0
 10
41.534931
 20
271.844430
 30
0.0
 10
41.561803
 20
271.310096
 30
0.0
 10
41.534931
 20
270.776278
 30
0.0
 10
41.455350
 20
270.257446
 30
0.0
 10
41.325643
 20
269.756185
 30
0.0
 10
41.148910
 20
269.275078
 30
0.0
 10
40.927734
 20
268.817224
 30
0.0
 10
40.664701
 20
268.385210
 30
0.0
 10
40.362909
 20
267.982133
 30
0.0
 10
40.023912
 20
267.609547
 30
0.0
 10
39.651842
 20
267.271065
 30
0.0
 10
39.248249
 20
266.968758
 30
0.0
 10
38.816235
 20
266.705725
 30
0.0
 10
38.358381
 20
266.484552
 30
0.0
 10
37.877792
 20
266.307818
 30
0.0
 10
37.376528
 20
266.178627
 30
0.0
 10
36.857180
 20
266.098527
 30
0.0
 10
36.323365
 20
266.071656
 30
0.0
 10
35.789028
 20
266.098527
 30
0.0
 10
35.270199
 20
266.178627
 30
0.0
 10
34.768938
 20
266.307818
 30
0.0
 10
34.287830
 20
266.484552
 30
0.0
 10
33.830492
 20
266.705725
 30
0.0
 10
33.398478
 20
266.968758
 30
0.0
 10
32.994885
 20
267.271065
 30
0.0
 10
32.675525
 20
267.561488
 30
0.0
 10
32.831071
 20
267.923739
 30
0.0
 10
32.099332
 20
268.228113
 30
0.0
 10
31.981510
 20
268.385210
 30
0.0
 10
31.718477
 20
268.817224
 30
0.0
 10
31.497301
 20
269.275078
 30
0.0
 10
31.320568
 20
269.756185
 30
0.0
 10
31.215666
 20
270.162879
 30
0.0
 10
32.735469
 20
269.963407
 30
0.0
 10
32.788696
 20
269.817680
 30
0.0
 10
32.950443
 20
269.482818
 30
0.0
 10
33.142679
 20
269.166040
 30
0.0
 10
33.363339
 20
268.870969
 30
0.0
 10
33.611386
 20
268.598117
 30
0.0
 10
33.883719
 20
268.350586
 30
0.0
 10
34.179308
 20
268.129411
 30
0.0
 10
34.495568
 20
267.937175
 30
0.0
 10
34.830948
 20
267.775427
 30
0.0
 10
35.183381
 20
267.646752
 30
0.0
 10
35.550800
 20
267.552185
 30
0.0
 10
35.931139
 20
267.493791
 30
0.0
 10
36.323365
 20
267.474154
 30
0.0
 10
36.715588
 20
267.493791
 30
0.0
 10
37.096959
 20
267.552185
 30
0.0
 10
37.465412
 20
267.646752
 30
0.0
 10
37.819396
 20
267.775427
 30
0.0
 10
38.156327
 20
267.937175
 30
0.0
 10
38.474136
 20
268.129411
 30
0.0
 10
38.771277
 20
268.350586
 30
0.0
 10
39.045163
 20
268.598117
 30
0.0
 10
39.293725
 20
268.870969
 30
0.0
 10
39.515417
 20
269.166040
 30
0.0
 10
39.708169
 20
269.482818
 30
0.0
 10
39.868885
 20
269.817680
 30
0.0
 10
39.997041
 20
270.170113
 30
0.0
 10
40.089026
 20
270.537534
 30
0.0
 10
40.144318
 20
270.918388
 30
0.0
 10
40.159823
 20
271.310096
 30
0.0
 10
40.139667
 20
271.702320
 30
0.0
 10
40.081790
 20
272.082658
 30
0.0
 10
39.987222
 20
272.450594
 30
0.0
 10
39.858031
 20
272.802511
 30
0.0
 10
39.696284
 20
273.137891
 30
0.0
 10
39.504048
 20
273.454151
 30
0.0
 10
39.282872
 20
273.749740
 30
0.0
 10
39.035344
 20
274.022075
 30
0.0
 10
38.762492
 20
274.270122
 30
0.0
 10
38.467418
 20
274.490780
 30
0.0
 10
38.151159
 20
274.683533
 30
0.0
 10
37.815779
 20
274.844764
 30
0.0
 10
37.463346
 20
274.973955
 30
0.0
 10
37.095927
 20
275.068522
 30
0.0
 10
36.715070
 20
275.126917
 30
0.0
 10
36.323365
 20
275.146554
 30
0.0
 10
35.931139
 20
275.126917
 30
0.0
 10
35.550800
 20
275.068522
 30
0.0
 10
35.183381
 20
274.973955
 30
0.0
 10
34.830948
 20
274.844764
 30
0.0
 10
34.495568
 20
274.683533
 30
0.0
 10
34.179308
 20
274.490780
 30
0.0
 10
33.883719
 20
274.270122
 30
0.0
 10
33.611386
 20
274.022075
 30
0.0
 10
33.363339
 20
273.749740
 30
0.0
 10
33.142679
 20
273.454151
 30
0.0
 10
32.950443
 20
273.137891
 30
0.0
 10
32.788696
 20
272.802511
 30
0.0
 10
32.735469
 20
272.656783
 30
0.0
 10
31.215666
 20
272.457829
 30
0.0
 10
31.320568
 20
272.864523
 30
0.0
 10
31.497301
 20
273.345630
 30
0.0
 10
31.718477
 20
273.803483
 30
0.0
 10
31.981510
 20
274.235498
 30
0.0
 10
32.073495
 20
274.358488
 30
0.0
 10
32.831071
 20
274.670614
 30
0.0
 10
32.675007
 20
275.059221
 30
0.0
 10
32.994885
 20
275.349642
 30
0.0
 10
33.398478
 20
275.651949
 30
0.0
 10
33.830492
 20
275.914982
 30
0.0
 10
34.287830
 20
276.136157
 30
0.0
 10
34.768938
 20
276.312891
 30
0.0
 10
35.270199
 20
276.442082
 30
0.0
 10
35.789028
 20
276.521664
 30
0.0
 10
36.323365
 20
276.549052
 30
0.0
  0
LWPOLYLINE
  5
10b
100
AcDbEntity
  8
Layer_1
 62
7
100
AcDbPolyline
 90
33
 70
1
 10
30.304094
 20
275.770288
 30
0.0
 10
30.116507
 20
275.519658
 30
0.0
 10
29.740820
 20
274.902641
 30
0.0
 10
29.425077
 20
274.247901
 30
0.0
 10
29.200800
 20
273.636052
 30
0.0
 10
28.756385
 20
273.453117
 30
0.0
 10
28.915032
 20
273.056242
 30
0.0
 10
29.058174
 20
273.115153
 30
0.0
 10
28.987895
 20
272.843335
 30
0.0
 10
28.874206
 20
272.101262
 30
0.0
 10
28.835450
 20
271.336967
 30
0.0
 10
28.874206
 20
270.572673
 30
0.0
 10
28.987895
 20
269.830083
 30
0.0
 10
29.076777
 20
269.485919
 30
0.0
 10
28.888676
 20
269.563950
 30
0.0
 10
28.730030
 20
269.167075
 30
0.0
 10
29.227674
 20
268.963470
 30
0.0
 10
29.425077
 20
268.425516
 30
0.0
 10
29.740820
 20
267.771294
 30
0.0
 10
30.116507
 20
267.153759
 30
0.0
 10
30.382125
 20
266.798744
 30
0.0
 10
28.273727
 20
268.415698
 30
0.0
 10
28.063404
 20
268.141296
 30
0.0
 10
27.858249
 20
268.701469
 30
0.0
 10
27.639655
 20
269.550514
 30
0.0
 10
27.505297
 20
270.430563
 30
0.0
 10
27.459823
 20
271.336967
 30
0.0
 10
27.505297
 20
272.242855
 30
0.0
 10
27.639655
 20
273.122905
 30
0.0
 10
27.858249
 20
273.972465
 30
0.0
 10
28.063404
 20
274.533155
 30
0.0
 10
28.279928
 20
274.220512
 30
0.0
 10
30.304094
 20
275.770288
 30
0.0
  0
LWPOLYLINE
  5
10c
100
AcDbEntity
  8
Layer_1
 62
7
100
AcDbPolyline
 90
5
 70
1
 10
15.606282
 20
275.067489
 30
0.0
 10
15.421281
 20
274.696969
 30
0.0
 10
19.337321
 20
273.056242
 30
0.0
 10
19.495967
 20
273.453117
 30
0.0
 10
15.606282
 20
275.067489
 30
0.0
  0
LWPOLYLINE
  5
10d
100
AcDbEntity
  8
Layer_1
 62
7
100
AcDbPolyline
 90
69
 70
1
 10
36.323365
 20
274.749679
 30
0.0
 10
36.675798
 20
274.732109
 30
0.0
 10
37.017896
 20
274.679399
 30
0.0
 10
37.347591
 20
274.593616
 30
0.0
 10
37.663850
 20
274.476827
 30
0.0
 10
37.964091
 20
274.331100
 30
0.0
 10
38.247277
 20
274.158500
 30
0.0
 10
38.511345
 20
273.960063
 30
0.0
 10
38.754224
 20
273.737854
 30
0.0
 10
38.974365
 20
273.493942
 30
0.0
 10
39.170218
 20
273.230392
 30
0.0
 10
39.340234
 20
272.949272
 30
0.0
 10
39.481828
 20
272.651616
 30
0.0
 10
39.594483
 20
272.339490
 30
0.0
 10
39.675614
 20
272.014962
 30
0.0
 10
39.723157
 20
271.680099
 30
0.0
 10
39.736074
 20
271.336967
 30
0.0
 10
39.718506
 20
270.988668
 30
0.0
 10
39.666830
 20
270.650704
 30
0.0
 10
39.582079
 20
270.324108
 30
0.0
 10
39.467358
 20
270.010950
 30
0.0
 10
39.323181
 20
269.712778
 30
0.0
 10
39.151615
 20
269.431139
 30
0.0
 10
38.954728
 20
269.168625
 30
0.0
 10
38.734068
 20
268.925745
 30
0.0
 10
38.491707
 20
268.705086
 30
0.0
 10
38.228674
 20
268.508199
 30
0.0
 10
37.947039
 20
268.337151
 30
0.0
 10
37.648864
 20
268.192974
 30
0.0
 10
37.335706
 20
268.077735
 30
0.0
 10
37.009109
 20
267.993502
 30
0.0
 10
36.671146
 20
267.941310
 30
0.0
 10
36.323365
 20
267.923739
 30
0.0
 10
35.975065
 20
267.941310
 30
0.0
 10
35.637102
 20
267.993502
 30
0.0
 10
35.310505
 20
268.077735
 30
0.0
 10
34.997347
 20
268.192974
 30
0.0
 10
34.699172
 20
268.337151
 30
0.0
 10
34.417537
 20
268.508199
 30
0.0
 10
34.155020
 20
268.705086
 30
0.0
 10
33.912143
 20
268.925745
 30
0.0
 10
33.691483
 20
269.168625
 30
0.0
 10
33.494596
 20
269.431139
 30
0.0
 10
33.323548
 20
269.712778
 30
0.0
 10
33.234148
 20
269.897780
 30
0.0
 10
33.360238
 20
269.881243
 30
0.0
 10
33.412948
 20
270.304989
 30
0.0
 10
33.056896
 20
270.351498
 30
0.0
 10
32.979899
 20
270.650704
 30
0.0
 10
32.927705
 20
270.988668
 30
0.0
 10
32.910137
 20
271.336967
 30
0.0
 10
32.927705
 20
271.684750
 30
0.0
 10
32.979899
 20
272.022713
 30
0.0
 10
33.042944
 20
272.267143
 30
0.0
 10
33.412948
 20
272.315719
 30
0.0
 10
33.360238
 20
272.738949
 30
0.0
 10
33.206758
 20
272.718795
 30
0.0
 10
33.323548
 20
272.960641
 30
0.0
 10
33.494596
 20
273.242277
 30
0.0
 10
33.691483
 20
273.505310
 30
0.0
 10
33.912143
 20
273.747673
 30
0.0
 10
34.155020
 20
273.968331
 30
0.0
 10
34.417537
 20
274.165218
 30
0.0
 10
34.699172
 20
274.336784
 30
0.0
 10
34.997347
 20
274.480961
 30
0.0
 10
35.310505
 20
274.595683
 30
0.0
 10
35.637102
 20
274.680432
 30
0.0
 10
35.975065
 20
274.732109
 30
0.0
 10
36.323365
 20
274.749679
 30
0.0
  0
LWPOLYLINE
  5
10e
100
AcDbEntity
  8
Layer_1
 62
7
100
AcDbPolyline
 90
10
 70
1
 10
31.386713
 20
274.075301
 30
0.0
 10
31.345372
 20
274.007088
 30
0.0
 10
31.106628
 20
273.512028
 30
0.0
 10
30.915943
 20
272.992163
 30
0.0
 10
30.776415
 20
272.450078
 30
0.0
 10
30.768665
 20
272.398918
 30
0.0
 10
29.322757
 20
272.209265
 30
0.0
 10
29.402857
 20
272.730681
 30
0.0
 10
29.555302
 20
273.320309
 30
0.0
 10
31.386713
 20
274.075301
 30
0.0
  0
LWPOLYLINE
  5
10f
100
AcDbEntity
  8
Layer_1
 62
7
100
AcDbPolyline
 90
65
 70
1
 10
36.323365
 20
273.374052
 30
0.0
 10
36.113040
 20
273.363200
 30
0.0
 10
35.908919
 20
273.332194
 30
0.0
 10
35.712548
 20
273.281551
 30
0.0
 10
35.524963
 20
273.211788
 30
0.0
 10
35.346679
 20
273.125489
 30
0.0
 10
35.178730
 20
273.022652
 30
0.0
 10
35.022152
 20
272.904314
 30
0.0
 10
34.877975
 20
272.772022
 30
0.0
 10
34.747231
 20
272.626811
 30
0.0
 10
34.630444
 20
272.469715
 30
0.0
 10
34.529159
 20
272.301766
 30
0.0
 10
34.444408
 20
272.123999
 30
0.0
 10
34.376711
 20
271.937448
 30
0.0
 10
34.326586
 20
271.743144
 30
0.0
 10
34.296098
 20
271.542639
 30
0.0
 10
34.285761
 20
271.336967
 30
0.0
 10
34.296614
 20
271.126644
 30
0.0
 10
34.328137
 20
270.922522
 30
0.0
 10
34.378781
 20
270.726152
 30
0.0
 10
34.448027
 20
270.538566
 30
0.0
 10
34.534842
 20
270.360282
 30
0.0
 10
34.637678
 20
270.192335
 30
0.0
 10
34.755502
 20
270.035755
 30
0.0
 10
34.887794
 20
269.891578
 30
0.0
 10
35.033002
 20
269.760837
 30
0.0
 10
35.190099
 20
269.644047
 30
0.0
 10
35.358048
 20
269.542762
 30
0.0
 10
35.536333
 20
269.458013
 30
0.0
 10
35.722366
 20
269.389798
 30
0.0
 10
35.916671
 20
269.340189
 30
0.0
 10
36.117175
 20
269.309701
 30
0.0
 10
36.323365
 20
269.299366
 30
0.0
 10
36.533687
 20
269.309701
 30
0.0
 10
36.737292
 20
269.340189
 30
0.0
 10
36.933663
 20
269.389798
 30
0.0
 10
37.121764
 20
269.458013
 30
0.0
 10
37.300048
 20
269.542762
 30
0.0
 10
37.467997
 20
269.644047
 30
0.0
 10
37.624575
 20
269.760837
 30
0.0
 10
37.768236
 20
269.891578
 30
0.0
 10
37.899496
 20
270.035755
 30
0.0
 10
38.015767
 20
270.192335
 30
0.0
 10
38.117052
 20
270.360282
 30
0.0
 10
38.202319
 20
270.538566
 30
0.0
 10
38.270015
 20
270.726152
 30
0.0
 10
38.319625
 20
270.922522
 30
0.0
 10
38.350113
 20
271.126644
 30
0.0
 10
38.360450
 20
271.336967
 30
0.0
 10
38.349597
 20
271.547290
 30
0.0
 10
38.318590
 20
271.750895
 30
0.0
 10
38.267949
 20
271.947266
 30
0.0
 10
38.198702
 20
272.134851
 30
0.0
 10
38.111885
 20
272.313652
 30
0.0
 10
38.009049
 20
272.481600
 30
0.0
 10
37.890709
 20
272.637663
 30
0.0
 10
37.758417
 20
272.781840
 30
0.0
 10
37.613209
 20
272.913099
 30
0.0
 10
37.456112
 20
273.029370
 30
0.0
 10
37.288163
 20
273.130656
 30
0.0
 10
37.110397
 20
273.215922
 30
0.0
 10
36.923845
 20
273.283618
 30
0.0
 10
36.730058
 20
273.333228
 30
0.0
 10
36.529036
 20
273.363717
 30
0.0
 10
36.323365
 20
273.374052
 30
0.0
  0
LWPOLYLINE
  5
110
100
AcDbEntity
  8
Layer_1
 62
7
100
AcDbPolyline
 90
65
 70
1
 10
36.323365
 20
272.924467
 30
0.0
 10
36.489761
 20
272.916199
 30
0.0
 10
36.650993
 20
272.891911
 30
0.0
 10
36.806023
 20
272.852637
 30
0.0
 10
36.954851
 20
272.798894
 30
0.0
 10
37.095927
 20
272.731198
 30
0.0
 10
37.229250
 20
272.651099
 30
0.0
 10
37.353274
 20
272.558598
 30
0.0
 10
37.467481
 20
272.454729
 30
0.0
 10
37.571349
 20
272.340524
 30
0.0
 10
37.663850
 20
272.216500
 30
0.0
 10
37.743950
 20
272.083175
 30
0.0
 10
37.811646
 20
271.942098
 30
0.0
 10
37.865388
 20
271.793270
 30
0.0
 10
37.904663
 20
271.638241
 30
0.0
 10
37.928952
 20
271.476494
 30
0.0
 10
37.937220
 20
271.310612
 30
0.0
 10
37.928952
 20
271.144214
 30
0.0
 10
37.904663
 20
270.982984
 30
0.0
 10
37.865388
 20
270.827438
 30
0.0
 10
37.811646
 20
270.678610
 30
0.0
 10
37.743950
 20
270.537534
 30
0.0
 10
37.663850
 20
270.404208
 30
0.0
 10
37.571349
 20
270.280185
 30
0.0
 10
37.467481
 20
270.165980
 30
0.0
 10
37.353274
 20
270.062110
 30
0.0
 10
37.229250
 20
269.970125
 30
0.0
 10
37.095927
 20
269.889511
 30
0.0
 10
36.954851
 20
269.822331
 30
0.0
 10
36.806023
 20
269.768070
 30
0.0
 10
36.650993
 20
269.728796
 30
0.0
 10
36.489761
 20
269.704509
 30
0.0
 10
36.323365
 20
269.696241
 30
0.0
 10
36.156966
 20
269.705025
 30
0.0
 10
35.995737
 20
269.729830
 30
0.0
 10
35.840188
 20
269.770655
 30
0.0
 10
35.691360
 20
269.825948
 30
0.0
 10
35.550284
 20
269.894679
 30
0.0
 10
35.417476
 20
269.976842
 30
0.0
 10
35.292934
 20
270.070894
 30
0.0
 10
35.178730
 20
270.175799
 30
0.0
 10
35.075378
 20
270.291554
 30
0.0
 10
34.982877
 20
270.416093
 30
0.0
 10
34.902261
 20
270.549419
 30
0.0
 10
34.835084
 20
270.689978
 30
0.0
 10
34.781339
 20
270.837256
 30
0.0
 10
34.741548
 20
270.990218
 30
0.0
 10
34.717259
 20
271.148348
 30
0.0
 10
34.709510
 20
271.310612
 30
0.0
 10
34.717259
 20
271.477010
 30
0.0
 10
34.741548
 20
271.638241
 30
0.0
 10
34.781339
 20
271.793270
 30
0.0
 10
34.835084
 20
271.942098
 30
0.0
 10
34.902261
 20
272.083175
 30
0.0
 10
34.982877
 20
272.216500
 30
0.0
 10
35.075378
 20
272.340524
 30
0.0
 10
35.178730
 20
272.454729
 30
0.0
 10
35.292934
 20
272.558598
 30
0.0
 10
35.417476
 20
272.651099
 30
0.0
 10
35.550284
 20
272.731198
 30
0.0
 10
35.691360
 20
272.798894
 30
0.0
 10
35.840188
 20
272.852637
 30
0.0
 10
35.995737
 20
272.891911
 30
0.0
 10
36.156966
 20
272.916199
 30
0.0
 10
36.323365
 20
272.924467
 30
0.0
  0
LWPOLYLINE
  5
111
100
AcDbEntity
  8
Layer_1
 62
7
100
AcDbPolyline
 90
5
 70
1
 10
14.918469
 20
272.738949
 30
0.0
 10
14.865759
 20
272.315719
 30
0.0
 10
19.072738
 20
271.760197
 30
0.0
 10
19.125447
 20
272.183427
 30
0.0
 10
14.918469
 20
272.738949
 30
0.0
  0
LWPOLYLINE
  5
112
100
AcDbEntity
  8
Layer_1
 62
7
100
AcDbPolyline
 90
13
 70
1
 10
32.597492
 20
272.208749
 30
0.0
 10
32.564937
 20
272.082658
 30
0.0
 10
32.506544
 20
271.702320
 30
0.0
 10
32.486907
 20
271.310096
 30
0.0
 10
32.506544
 20
270.918388
 30
0.0
 10
32.564937
 20
270.537534
 30
0.0
 10
32.596976
 20
270.411960
 30
0.0
 10
31.138151
 20
270.603679
 30
0.0
 10
31.111796
 20
270.776278
 30
0.0
 10
31.084408
 20
271.310096
 30
0.0
 10
31.111796
 20
271.844430
 30
0.0
 10
31.138151
 20
272.017029
 30
0.0
 10
32.597492
 20
272.208749
 30
0.0
  0
LWPOLYLINE
  5
113
100
AcDbEntity
  8
Layer_1
 62
7
100
AcDbPolyline
 90
9
 70
1
 10
30.701485
 20
271.959668
 30
0.0
 10
30.690632
 20
271.888355
 30
0.0
 10
30.661178
 20
271.310096
 30
0.0
 10
30.690632
 20
270.732353
 30
0.0
 10
30.701485
 20
270.661040
 30
0.0
 10
29.282450
 20
270.847075
 30
0.0
 10
29.258678
 20
271.310096
 30
0.0
 10
29.282450
 20
271.773633
 30
0.0
 10
30.701485
 20
271.959668
 30
0.0
  0
LWPOLYLINE
  5
114
100
AcDbEntity
  8
Layer_1
 62
7
100
AcDbPolyline
 90
5
 70
1
 10
19.072738
 20
270.860511
 30
0.0
 10
14.865759
 20
270.304989
 30
0.0
 10
14.918469
 20
269.881243
 30
0.0
 10
19.125447
 20
270.437281
 30
0.0
 10
19.072738
 20
270.860511
 30
0.0
  0
LWPOLYLINE
  5
115
100
AcDbEntity
  8
Layer_1
 62
7
100
AcDbPolyline
 90
10
 70
1
 10
29.322757
 20
270.411442
 30
0.0
 10
30.768665
 20
270.221791
 30
0.0
 10
30.776415
 20
270.170631
 30
0.0
 10
30.915943
 20
269.628545
 30
0.0
 10
31.106628
 20
269.108678
 30
0.0
 10
31.345372
 20
268.613619
 30
0.0
 10
31.403769
 20
268.517501
 30
0.0
 10
29.559435
 20
269.284896
 30
0.0
 10
29.402857
 20
269.890027
 30
0.0
 10
29.322757
 20
270.411442
 30
0.0
  0
LWPOLYLINE
  5
116
100
AcDbEntity
  8
Layer_1
 62
7
100
AcDbPolyline
 90
5
 70
1
 10
19.337321
 20
269.563950
 30
0.0
 10
15.447636
 20
267.923739
 30
0.0
 10
15.606282
 20
267.553219
 30
0.0
 10
19.522322
 20
269.167075
 30
0.0
 10
19.337321
 20
269.563950
 30
0.0
  0
LWPOLYLINE
  5
117
100
AcDbEntity
  8
Layer_1
 62
7
100
AcDbPolyline
 90
5
 70
1
 10
19.998779
 20
268.399680
 30
0.0
 10
16.611906
 20
265.807073
 30
0.0
 10
16.850134
 20
265.462908
 30
0.0
 10
20.236491
 20
268.056031
 30
0.0
 10
19.998779
 20
268.399680
 30
0.0
  0
LWPOLYLINE
  5
118
100
AcDbEntity
  8
Layer_1
 62
7
100
AcDbPolyline
 90
5
 70
1
 10
20.897949
 20
267.420928
 30
0.0
 10
18.278988
 20
264.034055
 30
0.0
 10
18.622636
 20
263.795827
 30
0.0
 10
21.215759
 20
267.156344
 30
0.0
 10
20.897949
 20
267.420928
 30
0.0
  0
LWPOLYLINE
  5
119
100
AcDbEntity
  8
Layer_1
 62
7
100
AcDbPolyline
 90
5
 70
1
 10
27.380242
 20
267.420928
 30
0.0
 10
27.036593
 20
267.182700
 30
0.0
 10
29.656071
 20
263.795827
 30
0.0
 10
29.973365
 20
264.034055
 30
0.0
 10
27.380242
 20
267.420928
 30
0.0
  0
LWPOLYLINE
  5
11a
100
AcDbEntity
  8
Layer_1
 62
7
100
AcDbPolyline
 90
5
 70
1
 10
22.009509
 20
266.706243
 30
0.0
 10
20.368782
 20
262.764364
 30
0.0
 10
20.765657
 20
262.605202
 30
0.0
 10
22.380029
 20
266.547596
 30
0.0
 10
22.009509
 20
266.706243
 30
0.0
  0
LWPOLYLINE
  5
11b
100
AcDbEntity
  8
Layer_1
 62
7
100
AcDbPolyline
 90
5
 70
1
 10
26.269197
 20
266.706243
 30
0.0
 10
25.872322
 20
266.547596
 30
0.0
 10
27.512534
 20
262.605202
 30
0.0
 10
27.883053
 20
262.764364
 30
0.0
 10
26.269197
 20
266.706243
 30
0.0
  0
LWPOLYLINE
  5
11c
100
AcDbEntity
  8
Layer_1
 62
7
100
AcDbPolyline
 90
5
 70
1
 10
23.279199
 20
266.336239
 30
0.0
 10
22.697322
 20
262.102906
 30
0.0
 10
23.120552
 20
262.023325
 30
0.0
 10
23.676074
 20
266.283013
 30
0.0
 10
23.279199
 20
266.336239
 30
0.0
  0
LWPOLYLINE
  5
11d
100
AcDbEntity
  8
Layer_1
 62
7
100
AcDbPolyline
 90
5
 70
1
 10
25.015010
 20
266.328487
 30
0.0
 10
24.595398
 20
266.273194
 30
0.0
 10
25.156087
 20
262.023325
 30
0.0
 10
25.575699
 20
262.079133
 30
0.0
 10
25.015010
 20
266.328487
 30
0.0
  0
ENDSEC
  0
SECTION
  2
OBJECTS
  0
DICTIONARY
  5
C
330
0
100
AcDbDictionary
  3
ACAD_GROUP
350
D
  3
ACAD_MLINESTYLE
350
17
  0
DICTIONARY
  5
D
330
C
100
AcDbDictionary
  0
DICTIONARY
  5
1A
330
C
100
AcDbDictionary
  0
DICTIONARY
  5
17
330
C
100
AcDbDictionary
  3
STANDARD
350
18
  0
DICTIONARY
  5
19
330
C
100
AcDbDictionary
  0
ENDSEC
  0
EOF
