  0
SECTION
  2
HEADER
  9
$ACADVER
  1
AC1014
  9
$HANDSEED
  5
FFFF
  9
$MEASUREMENT
 70
     1
  0
ENDSEC
  0
SECTION
  2
TABLES
  0
TABLE
  2
VPORT
  5
8
330
0
100
AcDbSymbolTable
 70
     4
  0
VPORT
  5
2E
330
8
100
AcDbSymbolTableRecord
100
AcDbViewportTableRecord
  2
*ACTIVE
 70
     0
 10
0.0
 20
0.0
 11
1.0
 21
1.0
 12
210.0
 22
148.5
 13
0.0
 23
0.0
 14
10.0
 24
10.0
 15
10.0
 25
10.0
 16
0.0
 26
0.0
 36
1.0
 17
0.0
 27
0.0
 37
0.0
 40
341.0
 41
1.24
 42
50.0
 43
0.0
 44
0.0
 50
0.0
 51
0.0
 71
     0
 72
   100
 73
     1
 74
     3
 75
     0
 76
     0
 77
     0
 78
     0
  0
ENDTAB
  0
TABLE
  2
LTYPE
  5
5
330
0
100
AcDbSymbolTable
 70
     1
  0
LTYPE
  5
14
330
5
100
AcDbSymbolTableRecord
100
AcDbLinetypeTableRecord
  2
BYBLOCK
 70
     0
  3

 72
    65
 73
     0
 40
0.0
  0
LTYPE
  5
15
330
5
100
AcDbSymbolTableRecord
100
AcDbLinetypeTableRecord
  2
BYLAYER
 70
     0
  3

 72
    65
 73
     0
 40
0.0
  0
LTYPE
  5
16
330
5
100
AcDbSymbolTableRecord
100
AcDbLinetypeTableRecord
  2
CONTINUOUS
 70
     0
  3
Solid line
 72
    65
 73
     0
 40
0.0
  0
ENDTAB
  0
TABLE
  2
LAYER
  5
2
100
AcDbSymbolTable
 70
2
  0
LAYER
  5
50
100
AcDbSymbolTableRecord
100
AcDbLayerTableRecord
  2
0
 70
0
  6
CONTINUOUS
  0
LAYER
  5
51
100
AcDbSymbolTableRecord
100
AcDbLayerTableRecord
  2
Layer_1
 70
0
  6
CONTINUOUS
  0
ENDTAB
  0
TABLE
  2
STYLE
  5
3
330
0
100
AcDbSymbolTable
 70
     1
  0
STYLE
  5
11
330
3
100
AcDbSymbolTableRecord
100
AcDbTextStyleTableRecord
  2
STANDARD
 70
     0
 40
0.0
 41
1.0
 50
0.0
 71
     0
 42
2.5
  3
txt
  4

  0
ENDTAB
  0
TABLE
  2
VIEW
  5
6
330
0
100
AcDbSymbolTable
 70
     0
  0
ENDTAB
  0
TABLE
  2
UCS
  5
7
330
0
100
AcDbSymbolTable
 70
     0
  0
ENDTAB
  0
TABLE
  2
APPID
  5
9
330
0
100
AcDbSymbolTable
 70
     2
  0
APPID
  5
12
330
9
100
AcDbSymbolTableRecord
100
AcDbRegAppTableRecord
  2
ACAD
 70
     0
  0
ENDTAB
  0
TABLE
  2
DIMSTYLE
  5
A
330
0
100
AcDbSymbolTable
 70
     1
  0
DIMSTYLE
105
27
330
A
100
AcDbSymbolTableRecord
100
AcDbDimStyleTableRecord
  2
ISO-25
 70
     0
  3

  4

  5

  6

  7

 40
1.0
 41
2.5
 42
0.625
 43
3.75
 44
1.25
 45
0.0
 46
0.0
 47
0.0
 48
0.0
140
2.5
141
2.5
142
0.0
143
0.03937007874016
144
1.0
145
0.0
146
1.0
147
0.625
 71
     0
 72
     0
 73
     0
 74
     0
 75
     0
 76
     0
 77
     1
 78
     8
170
     0
171
     3
172
     1
173
     0
174
     0
175
     0
176
     0
177
     0
178
     0
270
     2
271
     2
272
     2
273
     2
274
     3
340
11
275
     0
280
     0
281
     0
282
     0
283
     0
284
     8
285
     0
286
     0
287
     3
288
     0
  0
ENDTAB
  0
TABLE
  2
BLOCK_RECORD
  5
1
330
0
100
AcDbSymbolTable
 70
     1
  0
BLOCK_RECORD
  5
1F
330
1
100
AcDbSymbolTableRecord
100
AcDbBlockTableRecord
  2
*MODEL_SPACE
  0
BLOCK_RECORD
  5
1B
330
1
100
AcDbSymbolTableRecord
100
AcDbBlockTableRecord
  2
*PAPER_SPACE
  0
ENDTAB
  0
ENDSEC
  0
SECTION
  2
BLOCKS
  0
BLOCK
  5
20
330
1F
100
AcDbEntity
  8
0
100
AcDbBlockBegin
  2
*MODEL_SPACE
 70
     0
 10
0.0
 20
0.0
 30
0.0
  3
*MODEL_SPACE
  1

  0
ENDBLK
  5
21
330
1F
100
AcDbEntity
  8
0
100
AcDbBlockEnd
  0
BLOCK
  5
1C
330
1B
100
AcDbEntity
 67
     1
  8
0
100
AcDbBlockBegin
  2
*PAPER_SPACE
  1

  0
ENDBLK
  5
1D
330
1B
100
AcDbEntity
 67
     1
  8
0
100
AcDbBlockEnd
  0
ENDSEC
  0
SECTION
  2
ENTITIES
  0
LWPOLYLINE
  5
100
100
AcDbEntity
  8
Layer_1
 62
3
100
AcDbPolyline
 90
160
 70
1
 10
240.000000
 20
219.999999
 30
0.0
 10
233.838690
 20
220.172118
 30
0.0
 10
227.681290
 20
220.673827
 30
0.0
 10
221.522790
 20
221.483153
 30
0.0
 10
215.358210
 20
222.578124
 30
0.0
 10
209.182540
 20
223.936767
 30
0.0
 10
202.990800
 20
225.537108
 30
0.0
 10
196.777980
 20
227.357177
 30
0.0
 10
190.539100
 20
229.374999
 30
0.0
 10
184.269160
 20
231.568603
 30
0.0
 10
177.963160
 20
233.916015
 30
0.0
 10
171.616110
 20
236.395263
 30
0.0
 10
165.223020
 20
238.984374
 30
0.0
 10
158.778890
 20
241.661376
 30
0.0
 10
152.278720
 20
244.404296
 30
0.0
 10
145.717530
 20
247.191161
 30
0.0
 10
139.090310
 20
249.999999
 30
0.0
 10
132.392080
 20
252.808837
 30
0.0
 10
125.617830
 20
255.595702
 30
0.0
 10
118.762570
 20
258.338622
 30
0.0
 10
111.821310
 20
261.015624
 30
0.0
 10
104.789060
 20
263.604735
 30
0.0
 10
97.660812
 20
266.083983
 30
0.0
 10
90.431580
 20
268.431395
 30
0.0
 10
83.096367
 20
270.624999
 30
0.0
 10
75.650179
 20
272.642821
 30
0.0
 10
68.088020
 20
274.462890
 30
0.0
 10
60.404897
 20
276.063231
 30
0.0
 10
52.595815
 20
277.421874
 30
0.0
 10
44.655779
 20
278.516845
 30
0.0
 10
36.579794
 20
279.326171
 30
0.0
 10
28.362866
 20
279.827880
 30
0.0
 10
20.000000
 20
279.999999
 30
0.0
 10
19.077148
 20
280.014499
 30
0.0
 10
18.183594
 20
280.057379
 30
0.0
 10
17.319336
 20
280.127719
 30
0.0
 10
16.484375
 20
280.224609
 30
0.0
 10
15.678711
 20
280.347137
 30
0.0
 10
14.902344
 20
280.494384
 30
0.0
 10
14.155273
 20
280.665435
 30
0.0
 10
13.437500
 20
280.859374
 30
0.0
 10
12.749023
 20
281.075286
 30
0.0
 10
12.089844
 20
281.312255
 30
0.0
 10
11.459961
 20
281.569366
 30
0.0
 10
10.859375
 20
281.845702
 30
0.0
 10
10.288086
 20
282.140350
 30
0.0
 10
9.746094
 20
282.452392
 30
0.0
 10
9.233398
 20
282.780914
 30
0.0
 10
8.750000
 20
283.125000
 30
0.0
 10
8.295898
 20
283.483734
 30
0.0
 10
7.871094
 20
283.856201
 30
0.0
 10
7.475586
 20
284.241485
 30
0.0
 10
7.109375
 20
284.638672
 30
0.0
 10
6.772461
 20
285.046844
 30
0.0
 10
6.464844
 20
285.465088
 30
0.0
 10
6.186523
 20
285.892486
 30
0.0
 10
5.937500
 20
286.328125
 30
0.0
 10
5.717773
 20
286.771088
 30
0.0
 10
5.527344
 20
287.220459
 30
0.0
 10
5.366211
 20
287.675323
 30
0.0
 10
5.234375
 20
288.134766
 30
0.0
 10
5.131836
 20
288.597870
 30
0.0
 10
5.058594
 20
289.063721
 30
0.0
 10
5.014648
 20
289.531403
 30
0.0
 10
5.000000
 20
290.000000
 30
0.0
 10
12.812500
 20
290.000000
 30
0.0
 10
20.625000
 20
290.000000
 30
0.0
 10
28.437500
 20
290.000000
 30
0.0
 10
36.250000
 20
290.000000
 30
0.0
 10
44.062500
 20
290.000000
 30
0.0
 10
51.875000
 20
290.000000
 30
0.0
 10
59.687500
 20
290.000000
 30
0.0
 10
67.500000
 20
290.000000
 30
0.0
 10
75.312500
 20
290.000000
 30
0.0
 10
83.125000
 20
290.000000
 30
0.0
 10
90.937500
 20
290.000000
 30
0.0
 10
98.750000
 20
290.000000
 30
0.0
 10
106.562500
 20
290.000000
 30
0.0
 10
114.375000
 20
290.000000
 30
0.0
 10
122.187500
 20
290.000000
 30
0.0
 10
130.000000
 20
290.000000
 30
0.0
 10
137.812500
 20
290.000000
 30
0.0
 10
145.625000
 20
290.000000
 30
0.0
 10
153.437500
 20
290.000000
 30
0.0
 10
161.250000
 20
290.000000
 30
0.0
 10
169.062500
 20
290.000000
 30
0.0
 10
176.875000
 20
290.000000
 30
0.0
 10
184.687500
 20
290.000000
 30
0.0
 10
192.500000
 20
290.000000
 30
0.0
 10
200.312500
 20
290.000000
 30
0.0
 10
208.125000
 20
290.000000
 30
0.0
 10
215.937500
 20
290.000000
 30
0.0
 10
223.750000
 20
290.000000
 30
0.0
 10
231.562500
 20
290.000000
 30
0.0
 10
239.375000
 20
290.000000
 30
0.0
 10
247.187500
 20
290.000000
 30
0.0
 10
255.000000
 20
290.000000
 30
0.0
 10
255.000000
 20
288.281250
 30
0.0
 10
255.000000
 20
286.562500
 30
0.0
 10
255.000000
 20
284.843750
 30
0.0
 10
255.000000
 20
283.125000
 30
0.0
 10
255.000000
 20
281.406250
 30
0.0
 10
255.000000
 20
279.687500
 30
0.0
 10
255.000000
 20
277.968750
 30
0.0
 10
255.000000
 20
276.250000
 30
0.0
 10
255.000000
 20
274.531250
 30
0.0
 10
255.000000
 20
272.812500
 30
0.0
 10
255.000000
 20
271.093750
 30
0.0
 10
255.000000
 20
269.375000
 30
0.0
 10
255.000000
 20
267.656250
 30
0.0
 10
255.000000
 20
265.937500
 30
0.0
 10
255.000000
 20
264.218750
 30
0.0
 10
255.000000
 20
262.500000
 30
0.0
 10
255.000000
 20
260.781249
 30
0.0
 10
255.000000
 20
259.062499
 30
0.0
 10
255.000000
 20
257.343749
 30
0.0
 10
255.000000
 20
255.624999
 30
0.0
 10
255.000000
 20
253.906249
 30
0.0
 10
255.000000
 20
252.187499
 30
0.0
 10
255.000000
 20
250.468749
 30
0.0
 10
255.000000
 20
248.749999
 30
0.0
 10
255.000000
 20
247.031249
 30
0.0
 10
255.000000
 20
245.312499
 30
0.0
 10
255.000000
 20
243.593749
 30
0.0
 10
255.000000
 20
241.874999
 30
0.0
 10
255.000000
 20
240.156249
 30
0.0
 10
255.000000
 20
238.437499
 30
0.0
 10
255.000000
 20
236.718749
 30
0.0
 10
255.000000
 20
234.999999
 30
0.0
 10
254.985400
 20
234.517058
 30
0.0
 10
254.941500
 20
234.007567
 30
0.0
 10
254.868200
 20
233.474273
 30
0.0
 10
254.765660
 20
232.919921
 30
0.0
 10
254.633830
 20
232.347259
 30
0.0
 10
254.472700
 20
231.759032
 30
0.0
 10
254.282270
 20
231.157989
 30
0.0
 10
254.062540
 20
230.546874
 30
0.0
 10
253.813520
 20
229.928435
 30
0.0
 10
253.535200
 20
229.305419
 30
0.0
 10
253.227580
 20
228.680572
 30
0.0
 10
252.890670
 20
228.056640
 30
0.0
 10
252.524450
 20
227.436370
 30
0.0
 10
252.128950
 20
226.822509
 30
0.0
 10
251.704140
 20
226.217803
 30
0.0
 10
251.250040
 20
225.624999
 30
0.0
 10
250.766640
 20
225.046843
 30
0.0
 10
250.253950
 20
224.486083
 30
0.0
 10
249.711950
 20
223.945464
 30
0.0
 10
249.140660
 20
223.427733
 30
0.0
 10
248.540080
 20
222.935637
 30
0.0
 10
247.910200
 20
222.471923
 30
0.0
 10
247.251020
 20
222.039336
 30
0.0
 10
246.562540
 20
221.640624
 30
0.0
 10
245.844770
 20
221.278533
 30
0.0
 10
245.097700
 20
220.955810
 30
0.0
 10
244.321330
 20
220.675200
 30
0.0
 10
243.515660
 20
220.439452
 30
0.0
 10
242.680700
 20
220.251311
 30
0.0
 10
241.816450
 20
220.113524
 30
0.0
 10
240.922890
 20
220.028834
 30
0.0
  0
ENDSEC
  0
SECTION
  2
OBJECTS
  0
DICTIONARY
  5
C
330
0
100
AcDbDictionary
  3
ACAD_GROUP
350
D
  3
ACAD_MLINESTYLE
350
17
  0
DICTIONARY
  5
D
330
C
100
AcDbDictionary
  0
DICTIONARY
  5
1A
330
C
100
AcDbDictionary
  0
DICTIONARY
  5
17
330
C
100
AcDbDictionary
  3
STANDARD
350
18
  0
DICTIONARY
  5
19
330
C
100
AcDbDictionary
  0
ENDSEC
  0
EOF
