  0
SECTION
  2
HEADER
  9
$ACADVER
  1
AC1014
  9
$HANDSEED
  5
FFFF
  9
$MEASUREMENT
 70
     1
  0
ENDSEC
  0
SECTION
  2
TABLES
  0
TABLE
  2
VPORT
  5
8
330
0
100
AcDbSymbolTable
 70
     4
  0
VPORT
  5
2E
330
8
100
AcDbSymbolTableRecord
100
AcDbViewportTableRecord
  2
*ACTIVE
 70
     0
 10
0.0
 20
0.0
 11
1.0
 21
1.0
 12
210.0
 22
148.5
 13
0.0
 23
0.0
 14
10.0
 24
10.0
 15
10.0
 25
10.0
 16
0.0
 26
0.0
 36
1.0
 17
0.0
 27
0.0
 37
0.0
 40
341.0
 41
1.24
 42
50.0
 43
0.0
 44
0.0
 50
0.0
 51
0.0
 71
     0
 72
   100
 73
     1
 74
     3
 75
     0
 76
     0
 77
     0
 78
     0
  0
ENDTAB
  0
TABLE
  2
LTYPE
  5
5
330
0
100
AcDbSymbolTable
 70
     1
  0
LTYPE
  5
14
330
5
100
AcDbSymbolTableRecord
100
AcDbLinetypeTableRecord
  2
BYBLOCK
 70
     0
  3

 72
    65
 73
     0
 40
0.0
  0
LTYPE
  5
15
330
5
100
AcDbSymbolTableRecord
100
AcDbLinetypeTableRecord
  2
BYLAYER
 70
     0
  3

 72
    65
 73
     0
 40
0.0
  0
LTYPE
  5
16
330
5
100
AcDbSymbolTableRecord
100
AcDbLinetypeTableRecord
  2
CONTINUOUS
 70
     0
  3
Solid line
 72
    65
 73
     0
 40
0.0
  0
ENDTAB
  0
TABLE
  2
LAYER
  5
2
100
AcDbSymbolTable
 70
1
  0
LAYER
  5
50
100
AcDbSymbolTableRecord
100
AcDbLayerTableRecord
  2
0
 70
0
  6
CONTINUOUS
  0
ENDTAB
  0
TABLE
  2
STYLE
  5
3
330
0
100
AcDbSymbolTable
 70
     1
  0
STYLE
  5
11
330
3
100
AcDbSymbolTableRecord
100
AcDbTextStyleTableRecord
  2
STANDARD
 70
     0
 40
0.0
 41
1.0
 50
0.0
 71
     0
 42
2.5
  3
txt
  4

  0
ENDTAB
  0
TABLE
  2
VIEW
  5
6
330
0
100
AcDbSymbolTable
 70
     0
  0
ENDTAB
  0
TABLE
  2
UCS
  5
7
330
0
100
AcDbSymbolTable
 70
     0
  0
ENDTAB
  0
TABLE
  2
APPID
  5
9
330
0
100
AcDbSymbolTable
 70
     2
  0
APPID
  5
12
330
9
100
AcDbSymbolTableRecord
100
AcDbRegAppTableRecord
  2
ACAD
 70
     0
  0
ENDTAB
  0
TABLE
  2
DIMSTYLE
  5
A
330
0
100
AcDbSymbolTable
 70
     1
  0
DIMSTYLE
105
27
330
A
100
AcDbSymbolTableRecord
100
AcDbDimStyleTableRecord
  2
ISO-25
 70
     0
  3

  4

  5

  6

  7

 40
1.0
 41
2.5
 42
0.625
 43
3.75
 44
1.25
 45
0.0
 46
0.0
 47
0.0
 48
0.0
140
2.5
141
2.5
142
0.0
143
0.03937007874016
144
1.0
145
0.0
146
1.0
147
0.625
 71
     0
 72
     0
 73
     0
 74
     0
 75
     0
 76
     0
 77
     1
 78
     8
170
     0
171
     3
172
     1
173
     0
174
     0
175
     0
176
     0
177
     0
178
     0
270
     2
271
     2
272
     2
273
     2
274
     3
340
11
275
     0
280
     0
281
     0
282
     0
283
     0
284
     8
285
     0
286
     0
287
     3
288
     0
  0
ENDTAB
  0
TABLE
  2
BLOCK_RECORD
  5
1
330
0
100
AcDbSymbolTable
 70
     1
  0
BLOCK_RECORD
  5
1F
330
1
100
AcDbSymbolTableRecord
100
AcDbBlockTableRecord
  2
*MODEL_SPACE
  0
BLOCK_RECORD
  5
1B
330
1
100
AcDbSymbolTableRecord
100
AcDbBlockTableRecord
  2
*PAPER_SPACE
  0
ENDTAB
  0
ENDSEC
  0
SECTION
  2
BLOCKS
  0
BLOCK
  5
20
330
1F
100
AcDbEntity
  8
0
100
AcDbBlockBegin
  2
*MODEL_SPACE
 70
     0
 10
0.0
 20
0.0
 30
0.0
  3
*MODEL_SPACE
  1

  0
ENDBLK
  5
21
330
1F
100
AcDbEntity
  8
0
100
AcDbBlockEnd
  0
BLOCK
  5
1C
330
1B
100
AcDbEntity
 67
     1
  8
0
100
AcDbBlockBegin
  2
*PAPER_SPACE
  1

  0
ENDBLK
  5
1D
330
1B
100
AcDbEntity
 67
     1
  8
0
100
AcDbBlockEnd
  0
ENDSEC
  0
SECTION
  2
ENTITIES
  0
LWPOLYLINE
  5
100
100
AcDbEntity
  8
0
 62
7
100
AcDbPolyline
 90
8
 70
1
 10
3.046500
 20
8.952750
 30
0.0
 10
2.967750
 20
8.355000
 30
0.0
 10
1.799250
 20
8.355000
 30
0.0
 10
0.825000
 20
1.417500
 30
0.0
 10
1.980000
 20
1.417500
 30
0.0
 10
1.901250
 20
0.819750
 30
0.0
 10
0.000000
 20
0.819750
 30
0.0
 10
1.142250
 20
8.952750
 30
0.0
  0
LWPOLYLINE
  5
101
100
AcDbEntity
  8
0
 62
7
100
AcDbPolyline
 90
108
 70
1
 10
7.410000
 20
8.882250
 30
0.0
 10
7.093500
 20
7.088062
 30
0.0
 10
6.777000
 20
5.293875
 30
0.0
 10
6.460500
 20
3.499687
 30
0.0
 10
6.144000
 20
1.705500
 30
0.0
 10
6.049934
 20
1.279148
 30
0.0
 10
5.926406
 20
0.918188
 30
0.0
 10
5.773488
 20
0.622758
 30
0.0
 10
5.591250
 20
0.393000
 30
0.0
 10
5.370305
 20
0.220852
 30
0.0
 10
5.103375
 20
0.098062
 30
0.0
 10
4.790320
 20
0.024492
 30
0.0
 10
4.431000
 20
0.000000
 30
0.0
 10
4.087008
 20
0.010252
 30
0.0
 10
3.727688
 20
0.040969
 30
0.0
 10
3.352898
 20
0.092074
 30
0.0
 10
2.962500
 20
0.163500
 30
0.0
 10
3.020250
 20
0.416813
 30
0.0
 10
3.078000
 20
0.670125
 30
0.0
 10
3.135750
 20
0.923438
 30
0.0
 10
3.193500
 20
1.176750
 30
0.0
 10
3.500238
 20
1.113315
 30
0.0
 10
3.768094
 20
1.068090
 30
0.0
 10
3.997277
 20
1.041007
 30
0.0
 10
4.188000
 20
1.032000
 30
0.0
 10
4.369148
 20
1.045327
 30
0.0
 10
4.523438
 20
1.085160
 30
0.0
 10
4.651008
 20
1.151287
 30
0.0
 10
4.752000
 20
1.243500
 30
0.0
 10
4.834102
 20
1.372723
 30
0.0
 10
4.907062
 20
1.548844
 30
0.0
 10
4.970742
 20
1.771793
 30
0.0
 10
5.025000
 20
2.041500
 30
0.0
 10
5.322000
 20
3.751875
 30
0.0
 10
5.619000
 20
5.462250
 30
0.0
 10
5.916000
 20
7.172625
 30
0.0
 10
6.213000
 20
8.883000
 30
0.0
 10
5.881687
 20
8.883000
 30
0.0
 10
5.550375
 20
8.883000
 30
0.0
 10
5.219062
 20
8.883000
 30
0.0
 10
4.887750
 20
8.883000
 30
0.0
 10
4.923938
 20
9.111375
 30
0.0
 10
4.960125
 20
9.339750
 30
0.0
 10
4.996313
 20
9.568125
 30
0.0
 10
5.032500
 20
9.796500
 30
0.0
 10
5.367188
 20
9.796500
 30
0.0
 10
5.701875
 20
9.796500
 30
0.0
 10
6.036563
 20
9.796500
 30
0.0
 10
6.371250
 20
9.796500
 30
0.0
 10
6.410250
 20
10.019062
 30
0.0
 10
6.449250
 20
10.241625
 30
0.0
 10
6.488250
 20
10.464187
 30
0.0
 10
6.527250
 20
10.686750
 30
0.0
 10
6.613453
 20
11.130668
 30
0.0
 10
6.720187
 20
11.508281
 30
0.0
 10
6.847453
 20
11.819379
 30
0.0
 10
6.995250
 20
12.063750
 30
0.0
 10
7.272961
 20
12.322758
 30
0.0
 10
7.605375
 20
12.507937
 30
0.0
 10
7.992352
 20
12.619148
 30
0.0
 10
8.433750
 20
12.656250
 30
0.0
 10
8.581113
 20
12.647848
 30
0.0
 10
8.759906
 20
12.622781
 30
0.0
 10
8.970059
 20
12.581262
 30
0.0
 10
9.211500
 20
12.523500
 30
0.0
 10
9.330375
 20
12.495375
 30
0.0
 10
9.449250
 20
12.467250
 30
0.0
 10
9.568125
 20
12.439125
 30
0.0
 10
9.687000
 20
12.411000
 30
0.0
 10
9.716625
 20
12.404437
 30
0.0
 10
9.746250
 20
12.397875
 30
0.0
 10
9.775875
 20
12.391312
 30
0.0
 10
9.805500
 20
12.384750
 30
0.0
 10
9.749250
 20
12.130312
 30
0.0
 10
9.693000
 20
11.875875
 30
0.0
 10
9.636750
 20
11.621437
 30
0.0
 10
9.580500
 20
11.367000
 30
0.0
 10
9.248062
 20
11.438977
 30
0.0
 10
8.967375
 20
11.490562
 30
0.0
 10
8.738437
 20
11.521617
 30
0.0
 10
8.561250
 20
11.532000
 30
0.0
 10
8.368043
 20
11.519215
 30
0.0
 10
8.205844
 20
11.480906
 30
0.0
 10
8.074723
 20
11.417144
 30
0.0
 10
7.974750
 20
11.328000
 30
0.0
 10
7.893890
 20
11.199387
 30
0.0
 10
7.820063
 20
11.017406
 30
0.0
 10
7.753265
 20
10.782410
 30
0.0
 10
7.693500
 20
10.494750
 30
0.0
 10
7.662937
 20
10.320562
 30
0.0
 10
7.632375
 20
10.146375
 30
0.0
 10
7.601812
 20
9.972187
 30
0.0
 10
7.571250
 20
9.798000
 30
0.0
 10
7.907250
 20
9.798000
 30
0.0
 10
8.243250
 20
9.798000
 30
0.0
 10
8.579250
 20
9.798000
 30
0.0
 10
8.915250
 20
9.798000
 30
0.0
 10
8.875875
 20
9.569437
 30
0.0
 10
8.836500
 20
9.340875
 30
0.0
 10
8.797125
 20
9.112312
 30
0.0
 10
8.757750
 20
8.883750
 30
0.0
 10
8.420813
 20
8.883750
 30
0.0
 10
8.083875
 20
8.883750
 30
0.0
 10
7.746937
 20
8.883750
 30
0.0
 10
7.410000
 20
8.883750
 30
0.0
 10
7.410000
 20
8.883375
 30
0.0
 10
7.410000
 20
8.883000
 30
0.0
 10
7.410000
 20
8.882625
 30
0.0
  0
LWPOLYLINE
  5
102
100
AcDbEntity
  8
0
 62
7
100
AcDbPolyline
 90
32
 70
1
 10
12.149250
 20
9.796500
 30
0.0
 10
12.634805
 20
9.751652
 30
0.0
 10
13.069875
 20
9.617156
 30
0.0
 10
13.454321
 20
9.393082
 30
0.0
 10
13.788000
 20
9.079500
 30
0.0
 10
14.057719
 20
8.691082
 30
0.0
 10
14.250375
 20
8.243531
 30
0.0
 10
14.365969
 20
7.736777
 30
0.0
 10
14.404500
 20
7.170750
 30
0.0
 10
14.352492
 20
6.381984
 30
0.0
 10
14.196563
 20
5.667187
 30
0.0
 10
13.936852
 20
5.026359
 30
0.0
 10
13.573500
 20
4.459500
 30
0.0
 10
13.134457
 20
3.995308
 30
0.0
 10
12.647531
 20
3.663656
 30
0.0
 10
12.112652
 20
3.464613
 30
0.0
 10
11.529750
 20
3.398250
 30
0.0
 10
11.024332
 20
3.442840
 30
0.0
 10
10.576781
 20
3.576656
 30
0.0
 10
10.187027
 20
3.799769
 30
0.0
 10
9.855000
 20
4.112250
 30
0.0
 10
9.589652
 20
4.504066
 30
0.0
 10
9.400031
 20
4.965281
 30
0.0
 10
9.286207
 20
5.496105
 30
0.0
 10
9.248250
 20
6.096750
 30
0.0
 10
9.300562
 20
6.853488
 30
0.0
 10
9.457500
 20
7.545469
 30
0.0
 10
9.719062
 20
8.172902
 30
0.0
 10
10.085250
 20
8.736000
 30
0.0
 10
10.528090
 20
9.200391
 30
0.0
 10
11.019656
 20
9.531750
 30
0.0
 10
11.560019
 20
9.730359
 30
0.0
  0
LWPOLYLINE
  5
103
100
AcDbEntity
  8
0
 62
7
100
AcDbPolyline
 90
32
 70
1
 10
12.149250
 20
8.882250
 30
0.0
 10
11.808223
 20
8.828250
 30
0.0
 10
11.491594
 20
8.666250
 30
0.0
 10
11.199293
 20
8.396250
 30
0.0
 10
10.931250
 20
8.018250
 30
0.0
 10
10.707363
 20
7.566434
 30
0.0
 10
10.547531
 20
7.075031
 30
0.0
 10
10.451683
 20
6.544113
 30
0.0
 10
10.419750
 20
5.973750
 30
0.0
 10
10.438890
 20
5.637504
 30
0.0
 10
10.496348
 20
5.334094
 30
0.0
 10
10.592195
 20
5.063449
 30
0.0
 10
10.726504
 20
4.825500
 30
0.0
 10
10.888926
 20
4.631262
 30
0.0
 10
11.070191
 20
4.492781
 30
0.0
 10
11.270301
 20
4.409848
 30
0.0
 10
11.489254
 20
4.382248
 30
0.0
 10
11.836187
 20
4.432745
 30
0.0
 10
12.157035
 20
4.584281
 30
0.0
 10
12.451867
 20
4.836925
 30
0.0
 10
12.720750
 20
5.190750
 30
0.0
 10
12.944754
 20
5.621332
 30
0.0
 10
13.104844
 20
6.104156
 30
0.0
 10
13.200950
 20
6.639152
 30
0.0
 10
13.233000
 20
7.226250
 30
0.0
 10
13.214332
 20
7.585008
 30
0.0
 10
13.158469
 20
7.905375
 30
0.0
 10
13.065621
 20
8.187492
 30
0.0
 10
12.936000
 20
8.431500
 30
0.0
 10
12.774785
 20
8.628809
 30
0.0
 10
12.590156
 20
8.769656
 30
0.0
 10
12.381762
 20
8.854113
 30
0.0
  0
LWPOLYLINE
  5
104
100
AcDbEntity
  8
0
 62
7
100
AcDbPolyline
 90
40
 70
1
 10
20.841000
 20
9.611250
 30
0.0
 10
20.626500
 20
8.099062
 30
0.0
 10
20.412000
 20
6.586875
 30
0.0
 10
20.197500
 20
5.074687
 30
0.0
 10
19.983000
 20
3.562500
 30
0.0
 10
19.696875
 20
3.562500
 30
0.0
 10
19.410750
 20
3.562500
 30
0.0
 10
19.124625
 20
3.562500
 30
0.0
 10
18.838500
 20
3.562500
 30
0.0
 10
18.862312
 20
3.730500
 30
0.0
 10
18.886125
 20
3.898500
 30
0.0
 10
18.909937
 20
4.066500
 30
0.0
 10
18.933750
 20
4.234500
 30
0.0
 10
18.934650
 20
4.241625
 30
0.0
 10
18.935550
 20
4.248750
 30
0.0
 10
18.936525
 20
4.255875
 30
0.0
 10
18.937500
 20
4.263000
 30
0.0
 10
18.535594
 20
3.905121
 30
0.0
 10
18.128625
 20
3.649406
 30
0.0
 10
17.716594
 20
3.495925
 30
0.0
 10
17.299500
 20
3.444750
 30
0.0
 10
16.899152
 20
3.488602
 30
0.0
 10
16.529531
 20
3.620062
 30
0.0
 10
16.190707
 20
3.838992
 30
0.0
 10
15.882750
 20
4.145250
 30
0.0
 10
15.627047
 20
4.513418
 30
0.0
 10
15.444750
 20
4.918219
 30
0.0
 10
15.335578
 20
5.359723
 30
0.0
 10
15.299250
 20
5.838000
 30
0.0
 10
15.366914
 20
6.661477
 30
0.0
 10
15.570000
 20
7.409437
 30
0.0
 10
15.908648
 20
8.081742
 30
0.0
 10
16.383000
 20
8.678250
 30
0.0
 10
16.978535
 20
9.167484
 30
0.0
 10
17.681719
 20
9.516937
 30
0.0
 10
18.492481
 20
9.726609
 30
0.0
 10
19.410750
 20
9.796500
 30
0.0
 10
19.797071
 20
9.784852
 30
0.0
 10
20.164125
 20
9.750000
 30
0.0
 10
20.512054
 20
9.692086
 30
0.0
  0
LWPOLYLINE
  5
105
100
AcDbEntity
  8
0
 62
7
100
AcDbPolyline
 90
32
 70
1
 10
19.083000
 20
5.289000
 30
0.0
 10
19.208063
 20
6.166687
 30
0.0
 10
19.333125
 20
7.044375
 30
0.0
 10
19.458188
 20
7.922062
 30
0.0
 10
19.583250
 20
8.799750
 30
0.0
 10
19.491844
 20
8.805656
 30
0.0
 10
19.402125
 20
8.809875
 30
0.0
 10
19.314094
 20
8.812406
 30
0.0
 10
19.227750
 20
8.813250
 30
0.0
 10
18.593660
 20
8.759285
 30
0.0
 10
18.040219
 20
8.597531
 30
0.0
 10
17.567356
 20
8.328199
 30
0.0
 10
17.175000
 20
7.951500
 30
0.0
 10
16.867008
 20
7.507230
 30
0.0
 10
16.647188
 20
7.038281
 30
0.0
 10
16.515398
 20
6.544441
 30
0.0
 10
16.471500
 20
6.025500
 30
0.0
 10
16.492605
 20
5.675484
 30
0.0
 10
16.555965
 20
5.358937
 30
0.0
 10
16.661656
 20
5.075860
 30
0.0
 10
16.809746
 20
4.826250
 30
0.0
 10
16.990450
 20
4.622484
 30
0.0
 10
17.193934
 20
4.476937
 30
0.0
 10
17.420200
 20
4.389609
 30
0.0
 10
17.669246
 20
4.360501
 30
0.0
 10
17.881180
 20
4.386249
 30
0.0
 10
18.103027
 20
4.463534
 30
0.0
 10
18.334859
 20
4.592428
 30
0.0
 10
18.576750
 20
4.773000
 30
0.0
 10
18.793277
 20
4.958566
 30
0.0
 10
18.949969
 20
5.106656
 30
0.0
 10
19.046613
 20
5.216918
 30
0.0
  0
LWPOLYLINE
  5
106
100
AcDbEntity
  8
0
 62
7
100
AcDbPolyline
 90
112
 70
1
 10
23.454750
 20
9.632250
 30
0.0
 10
23.417250
 20
9.367875
 30
0.0
 10
23.379750
 20
9.103500
 30
0.0
 10
23.342250
 20
8.839125
 30
0.0
 10
23.304750
 20
8.574750
 30
0.0
 10
23.835562
 20
9.078316
 30
0.0
 10
24.365812
 20
9.438094
 30
0.0
 10
24.895219
 20
9.654012
 30
0.0
 10
25.423500
 20
9.726000
 30
0.0
 10
25.950152
 20
9.640078
 30
0.0
 10
26.355656
 20
9.382312
 30
0.0
 10
26.640082
 20
8.952703
 30
0.0
 10
26.803500
 20
8.351250
 30
0.0
 10
27.360375
 20
8.952703
 30
0.0
 10
27.924000
 20
9.382312
 30
0.0
 10
28.494375
 20
9.640078
 30
0.0
 10
29.071500
 20
9.726000
 30
0.0
 10
29.378613
 20
9.698285
 30
0.0
 10
29.654156
 20
9.615094
 30
0.0
 10
29.898058
 20
9.476355
 30
0.0
 10
30.110250
 20
9.282000
 30
0.0
 10
30.281965
 20
9.037594
 30
0.0
 10
30.404531
 20
8.748750
 30
0.0
 10
30.478019
 20
8.415469
 30
0.0
 10
30.502500
 20
8.037750
 30
0.0
 10
30.499981
 20
7.908504
 30
0.0
 10
30.492469
 20
7.773844
 30
0.0
 10
30.480035
 20
7.633699
 30
0.0
 10
30.462750
 20
7.488000
 30
0.0
 10
30.322875
 20
6.506625
 30
0.0
 10
30.183000
 20
5.525250
 30
0.0
 10
30.043125
 20
4.543875
 30
0.0
 10
29.903250
 20
3.562500
 30
0.0
 10
29.617125
 20
3.562500
 30
0.0
 10
29.331000
 20
3.562500
 30
0.0
 10
29.044875
 20
3.562500
 30
0.0
 10
28.758750
 20
3.562500
 30
0.0
 10
28.900500
 20
4.557187
 30
0.0
 10
29.042250
 20
5.551875
 30
0.0
 10
29.184000
 20
6.546562
 30
0.0
 10
29.325750
 20
7.541250
 30
0.0
 10
29.340082
 20
7.641820
 30
0.0
 10
29.350406
 20
7.738875
 30
0.0
 10
29.356652
 20
7.832555
 30
0.0
 10
29.358750
 20
7.923000
 30
0.0
 10
29.317711
 20
8.312379
 30
0.0
 10
29.194688
 20
8.590594
 30
0.0
 10
28.989821
 20
8.757574
 30
0.0
 10
28.703250
 20
8.813250
 30
0.0
 10
28.618465
 20
8.808996
 30
0.0
 10
28.529531
 20
8.796094
 30
0.0
 10
28.436519
 20
8.774332
 30
0.0
 10
28.339500
 20
8.743500
 30
0.0
 10
28.237113
 20
8.703574
 30
0.0
 10
28.129031
 20
8.652469
 30
0.0
 10
28.015183
 20
8.590254
 30
0.0
 10
27.895500
 20
8.517000
 30
0.0
 10
27.761918
 20
8.421680
 30
0.0
 10
27.606469
 20
8.294437
 30
0.0
 10
27.429223
 20
8.135414
 30
0.0
 10
27.230250
 20
7.944750
 30
0.0
 10
27.045023
 20
7.755855
 30
0.0
 10
26.910000
 20
7.604156
 30
0.0
 10
26.825039
 20
7.489441
 30
0.0
 10
26.790000
 20
7.411500
 30
0.0
 10
26.654250
 20
6.449250
 30
0.0
 10
26.518500
 20
5.487000
 30
0.0
 10
26.382750
 20
4.524750
 30
0.0
 10
26.247000
 20
3.562500
 30
0.0
 10
25.960875
 20
3.562500
 30
0.0
 10
25.674750
 20
3.562500
 30
0.0
 10
25.388625
 20
3.562500
 30
0.0
 10
25.102500
 20
3.562500
 30
0.0
 10
25.237687
 20
4.521000
 30
0.0
 10
25.372875
 20
5.479500
 30
0.0
 10
25.508063
 20
6.438000
 30
0.0
 10
25.643250
 20
7.396500
 30
0.0
 10
25.663488
 20
7.534148
 30
0.0
 10
25.678031
 20
7.664625
 30
0.0
 10
25.686808
 20
7.787789
 30
0.0
 10
25.689750
 20
7.903500
 30
0.0
 10
25.644738
 20
8.301187
 30
0.0
 10
25.509656
 20
8.585250
 30
0.0
 10
25.284433
 20
8.755687
 30
0.0
 10
24.969000
 20
8.812500
 30
0.0
 10
24.727277
 20
8.772832
 30
0.0
 10
24.457781
 20
8.653781
 30
0.0
 10
24.160582
 20
8.455277
 30
0.0
 10
23.835750
 20
8.177250
 30
0.0
 10
23.537871
 20
7.891219
 30
0.0
 10
23.322469
 20
7.667625
 30
0.0
 10
23.189332
 20
7.506469
 30
0.0
 10
23.138250
 20
7.407750
 30
0.0
 10
23.001562
 20
6.446437
 30
0.0
 10
22.864875
 20
5.485125
 30
0.0
 10
22.728188
 20
4.523813
 30
0.0
 10
22.591500
 20
3.562500
 30
0.0
 10
22.305375
 20
3.562500
 30
0.0
 10
22.019250
 20
3.562500
 30
0.0
 10
21.733125
 20
3.562500
 30
0.0
 10
21.447000
 20
3.562500
 30
0.0
 10
21.662813
 20
5.080125
 30
0.0
 10
21.878625
 20
6.597750
 30
0.0
 10
22.094438
 20
8.115375
 30
0.0
 10
22.310250
 20
9.633000
 30
0.0
 10
22.596375
 20
9.633000
 30
0.0
 10
22.882500
 20
9.633000
 30
0.0
 10
23.168625
 20
9.633000
 30
0.0
 10
23.454750
 20
9.633000
 30
0.0
 10
23.454750
 20
9.632812
 30
0.0
 10
23.454750
 20
9.632625
 30
0.0
 10
23.454750
 20
9.632437
 30
0.0
  0
LWPOLYLINE
  5
107
100
AcDbEntity
  8
0
 62
7
100
AcDbPolyline
 90
8
 70
1
 10
30.502500
 20
0.585750
 30
0.0
 10
30.620250
 20
1.500000
 30
0.0
 10
32.354250
 20
1.500000
 30
0.0
 10
33.817500
 20
11.882250
 30
0.0
 10
32.073000
 20
11.882250
 30
0.0
 10
32.199000
 20
12.773250
 30
0.0
 10
35.061000
 20
12.773250
 30
0.0
 10
33.343500
 20
0.585750
 30
0.0
  0
ENDSEC
  0
SECTION
  2
OBJECTS
  0
DICTIONARY
  5
C
330
0
100
AcDbDictionary
  3
ACAD_GROUP
350
D
  3
ACAD_MLINESTYLE
350
17
  0
DICTIONARY
  5
D
330
C
100
AcDbDictionary
  0
DICTIONARY
  5
1A
330
C
100
AcDbDictionary
  0
DICTIONARY
  5
17
330
C
100
AcDbDictionary
  3
STANDARD
350
18
  0
DICTIONARY
  5
19
330
C
100
AcDbDictionary
  0
ENDSEC
  0
EOF
