<?xml version="1.0" standalone="no"?>
<!DOCTYPE svg PUBLIC "-//W3C//DTD SVG 1.1//EN"
"http://www.w3.org/Graphics/SVG/1.1/DTD/svg11.dtd">
<svg width="168.756" height="191.433" viewBox="0 0 3515.75 3988.19" version="1.1"
xmlns="http://www.w3.org/2000/svg"
xmlns:xlink="http://www.w3.org/1999/xlink">
<circle cx="3175.98" cy="3055.51" r="31.5" style=""/>
<circle cx="3175.98" cy="2255.51" r="31.5" style=""/>
<circle cx="2938.98" cy="1442.91" r="31.5" style=""/>
<circle cx="2938.98" cy="852.312" r="31.5" style=""/>
<circle cx="2075.98" cy="855.512" r="31.5" style=""/>
<circle cx="2075.98" cy="1655.51" r="31.5" style=""/>
<circle cx="875.984" cy="2655.51" r="31.5" style=""/>
<circle cx="261.784" cy="2545.31" r="31.5" style=""/>
<circle cx="261.784" cy="1954.71" r="31.5" style=""/>
<circle cx="575.984" cy="1655.51" r="31.5" style=""/>
<circle cx="875.984" cy="1855.51" r="31.5" style=""/>
<circle cx="575.984" cy="855.512" r="31.5" style=""/>
<circle cx="975.984" cy="855.512" r="35.4" style=""/>
<circle cx="975.984" cy="1055.51" r="35.4" style=""/>
<circle cx="3175.98" cy="1255.51" r="39.4" style=""/>
<circle cx="3175.98" cy="1455.51" r="39.4" style=""/>
<circle cx="3175.98" cy="1655.51" r="39.4" style=""/>
<circle cx="3175.98" cy="1855.51" r="39.4" style=""/>
<circle cx="2698.38" cy="1477.11" r="39.4" style=""/>
<circle cx="2698.38" cy="1277.11" r="39.4" style=""/>
<circle cx="2698.38" cy="1077.11" r="39.4" style=""/>
<circle cx="2698.38" cy="877.112" r="39.4" style=""/>
<circle cx="2698.38" cy="677.112" r="39.4" style=""/>
<circle cx="2698.38" cy="477.112" r="39.4" style=""/>
<circle cx="1498.38" cy="477.112" r="39.4" style=""/>
<circle cx="1498.38" cy="677.112" r="39.4" style=""/>
<circle cx="1498.38" cy="877.112" r="39.4" style=""/>
<circle cx="1498.38" cy="1077.11" r="39.4" style=""/>
<circle cx="475.984" cy="2155.51" r="39.4" style=""/>
<circle cx="475.984" cy="2355.51" r="39.4" style=""/>
<circle cx="475.984" cy="2555.51" r="39.4" style=""/>
<circle cx="475.984" cy="3055.51" r="39.4" style=""/>
<circle cx="475.984" cy="3255.51" r="39.4" style=""/>
<circle cx="475.984" cy="3455.51" r="39.4" style=""/>
<circle cx="475.984" cy="3655.51" r="39.4" style=""/>
<circle cx="1175.98" cy="3655.51" r="39.4" style=""/>
<circle cx="1175.98" cy="3455.51" r="39.4" style=""/>
<circle cx="1175.98" cy="3255.51" r="39.4" style=""/>
<circle cx="1175.98" cy="3055.51" r="39.4" style=""/>
<circle cx="1498.38" cy="3277.11" r="39.4" style=""/>
<circle cx="1498.38" cy="3077.11" r="39.4" style=""/>
<circle cx="1498.38" cy="2877.11" r="39.4" style=""/>
<circle cx="1498.38" cy="2677.11" r="39.4" style=""/>
<circle cx="1498.38" cy="2477.11" r="39.4" style=""/>
<circle cx="1498.38" cy="2277.11" r="39.4" style=""/>
<circle cx="1498.38" cy="2077.11" r="39.4" style=""/>
<circle cx="1498.38" cy="1877.11" r="39.4" style=""/>
<circle cx="1498.38" cy="1677.11" r="39.4" style=""/>
<circle cx="1498.38" cy="1477.11" r="39.4" style=""/>
<circle cx="1498.38" cy="1277.11" r="39.4" style=""/>
<circle cx="2698.38" cy="1677.11" r="39.4" style=""/>
<circle cx="2698.38" cy="1877.11" r="39.4" style=""/>
<circle cx="2698.38" cy="2077.11" r="39.4" style=""/>
<circle cx="2698.38" cy="2277.11" r="39.4" style=""/>
<circle cx="2698.38" cy="2477.11" r="39.4" style=""/>
<circle cx="2698.38" cy="2677.11" r="39.4" style=""/>
<circle cx="2698.38" cy="2877.11" r="39.4" style=""/>
<circle cx="2698.38" cy="3077.11" r="39.4" style=""/>
<circle cx="2698.38" cy="3277.11" r="39.4" style=""/>
</svg>
