<?xml version="1.0" standalone="no"?>
<!DOCTYPE svg PUBLIC "-//W3C//DTD SVG 1.1//EN"
"http://www.w3.org/Graphics/SVG/1.1/DTD/svg11.dtd">
<svg width="168.756" height="191.433" viewBox="0 0 3515.75 3988.19" version="1.1"
xmlns="http://www.w3.org/2000/svg"
xmlns:xlink="http://www.w3.org/1999/xlink">
<g fill-rule="evenodd"><path d="M 1435.43,540.158 L 1435.43,414.173 L 1561.42,414.173 L 1561.42,540.158 L 1435.43,540.158 z " style="fill-opacity:1.000000;fill:rgb(103,198,105);stroke:rgb(0,0,0);stroke-width:2"/></g>
<g fill-rule="evenodd"><path d="M 1561.42,677.165 L 1560.04,690.262 L 1555.97,702.787 L 1549.39,714.191 L 1540.58,723.978 L 1529.92,731.718 L 1517.89,737.075 L 1505.01,739.812 L 1491.84,739.812 L 1478.96,737.075 L 1466.93,731.718 L 1456.28,723.978 L 1447.46,714.191 L 1440.88,702.787 L 1436.81,690.262 L 1435.43,677.165 L 1436.81,664.069 L 1440.88,651.544 L 1447.46,640.14 L 1456.28,630.353 L 1466.93,622.613 L 1478.96,617.256 L 1491.84,614.518 L 1505.01,614.518 L 1517.89,617.256 L 1529.92,622.613 L 1540.58,630.353 L 1549.39,640.14 L 1555.97,651.544 L 1560.04,664.069 L 1561.42,677.165 z " style="fill-opacity:1.000000;fill:rgb(115,81,255);stroke:rgb(0,0,0);stroke-width:2"/></g>
<g fill-rule="evenodd"><path d="M 2761.42,2877.17 L 2760.04,2890.26 L 2755.97,2902.79 L 2749.39,2914.19 L 2740.58,2923.98 L 2729.92,2931.72 L 2717.89,2937.07 L 2705.01,2939.81 L 2691.84,2939.81 L 2678.96,2937.07 L 2666.93,2931.72 L 2656.28,2923.98 L 2647.46,2914.19 L 2640.88,2902.79 L 2636.81,2890.26 L 2635.43,2877.17 L 2636.81,2864.07 L 2640.88,2851.54 L 2647.46,2840.14 L 2656.28,2830.35 L 2666.93,2822.61 L 2678.96,2817.26 L 2691.84,2814.52 L 2705.01,2814.52 L 2717.89,2817.26 L 2729.92,2822.61 L 2740.58,2830.35 L 2749.39,2840.14 L 2755.97,2851.54 L 2760.04,2864.07 L 2761.42,2877.17 z " style="fill-opacity:1.000000;fill:rgb(74,236,41);stroke:rgb(0,0,0);stroke-width:2"/></g>
<g fill-rule="evenodd"><path d="M 1561.42,877.165 L 1560.04,890.262 L 1555.97,902.787 L 1549.39,914.191 L 1540.58,923.978 L 1529.92,931.718 L 1517.89,937.075 L 1505.01,939.812 L 1491.84,939.812 L 1478.96,937.075 L 1466.93,931.718 L 1456.28,923.978 L 1447.46,914.191 L 1440.88,902.787 L 1436.81,890.262 L 1435.43,877.165 L 1436.81,864.069 L 1440.88,851.544 L 1447.46,840.14 L 1456.28,830.353 L 1466.93,822.613 L 1478.96,817.256 L 1491.84,814.518 L 1505.01,814.518 L 1517.89,817.256 L 1529.92,822.613 L 1540.58,830.353 L 1549.39,840.14 L 1555.97,851.544 L 1560.04,864.069 L 1561.42,877.165 z " style="fill-opacity:1.000000;fill:rgb(205,186,171);stroke:rgb(0,0,0);stroke-width:2"/></g>
<g fill-rule="evenodd"><path d="M 2761.42,2477.17 L 2760.04,2490.26 L 2755.97,2502.79 L 2749.39,2514.19 L 2740.58,2523.98 L 2729.92,2531.72 L 2717.89,2537.07 L 2705.01,2539.81 L 2691.84,2539.81 L 2678.96,2537.07 L 2666.93,2531.72 L 2656.28,2523.98 L 2647.46,2514.19 L 2640.88,2502.79 L 2636.81,2490.26 L 2635.43,2477.17 L 2636.81,2464.07 L 2640.88,2451.54 L 2647.46,2440.14 L 2656.28,2430.35 L 2666.93,2422.61 L 2678.96,2417.26 L 2691.84,2414.52 L 2705.01,2414.52 L 2717.89,2417.26 L 2729.92,2422.61 L 2740.58,2430.35 L 2749.39,2440.14 L 2755.97,2451.54 L 2760.04,2464.07 L 2761.42,2477.17 z " style="fill-opacity:1.000000;fill:rgb(242,251,227);stroke:rgb(0,0,0);stroke-width:2"/></g>
<g fill-rule="evenodd"><path d="M 2761.42,2277.17 L 2760.04,2290.26 L 2755.97,2302.79 L 2749.39,2314.19 L 2740.58,2323.98 L 2729.92,2331.72 L 2717.89,2337.07 L 2705.01,2339.81 L 2691.84,2339.81 L 2678.96,2337.07 L 2666.93,2331.72 L 2656.28,2323.98 L 2647.46,2314.19 L 2640.88,2302.79 L 2636.81,2290.26 L 2635.43,2277.17 L 2636.81,2264.07 L 2640.88,2251.54 L 2647.46,2240.14 L 2656.28,2230.35 L 2666.93,2222.61 L 2678.96,2217.26 L 2691.84,2214.52 L 2705.01,2214.52 L 2717.89,2217.26 L 2729.92,2222.61 L 2740.58,2230.35 L 2749.39,2240.14 L 2755.97,2251.54 L 2760.04,2264.07 L 2761.42,2277.17 z " style="fill-opacity:1.000000;fill:rgb(70,124,194);stroke:rgb(0,0,0);stroke-width:2"/></g>
<g fill-rule="evenodd"><path d="M 2761.42,2077.17 L 2760.04,2090.26 L 2755.97,2102.79 L 2749.39,2114.19 L 2740.58,2123.98 L 2729.92,2131.72 L 2717.89,2137.07 L 2705.01,2139.81 L 2691.84,2139.81 L 2678.96,2137.07 L 2666.93,2131.72 L 2656.28,2123.98 L 2647.46,2114.19 L 2640.88,2102.79 L 2636.81,2090.26 L 2635.43,2077.17 L 2636.81,2064.07 L 2640.88,2051.54 L 2647.46,2040.14 L 2656.28,2030.35 L 2666.93,2022.61 L 2678.96,2017.26 L 2691.84,2014.52 L 2705.01,2014.52 L 2717.89,2017.26 L 2729.92,2022.61 L 2740.58,2030.35 L 2749.39,2040.14 L 2755.97,2051.54 L 2760.04,2064.07 L 2761.42,2077.17 z " style="fill-opacity:1.000000;fill:rgb(84,248,27);stroke:rgb(0,0,0);stroke-width:2"/></g>
<g fill-rule="evenodd"><path d="M 1561.42,1877.17 L 1560.04,1890.26 L 1555.97,1902.79 L 1549.39,1914.19 L 1540.58,1923.98 L 1529.92,1931.72 L 1517.89,1937.07 L 1505.01,1939.81 L 1491.84,1939.81 L 1478.96,1937.07 L 1466.93,1931.72 L 1456.28,1923.98 L 1447.46,1914.19 L 1440.88,1902.79 L 1436.81,1890.26 L 1435.43,1877.17 L 1436.81,1864.07 L 1440.88,1851.54 L 1447.46,1840.14 L 1456.28,1830.35 L 1466.93,1822.61 L 1478.96,1817.26 L 1491.84,1814.52 L 1505.01,1814.52 L 1517.89,1817.26 L 1529.92,1822.61 L 1540.58,1830.35 L 1549.39,1840.14 L 1555.97,1851.54 L 1560.04,1864.07 L 1561.42,1877.17 z " style="fill-opacity:1.000000;fill:rgb(232,231,141);stroke:rgb(0,0,0);stroke-width:2"/></g>
<g fill-rule="evenodd"><path d="M 1561.42,2077.17 L 1560.04,2090.26 L 1555.97,2102.79 L 1549.39,2114.19 L 1540.58,2123.98 L 1529.92,2131.72 L 1517.89,2137.07 L 1505.01,2139.81 L 1491.84,2139.81 L 1478.96,2137.07 L 1466.93,2131.72 L 1456.28,2123.98 L 1447.46,2114.19 L 1440.88,2102.79 L 1436.81,2090.26 L 1435.43,2077.17 L 1436.81,2064.07 L 1440.88,2051.54 L 1447.46,2040.14 L 1456.28,2030.35 L 1466.93,2022.61 L 1478.96,2017.26 L 1491.84,2014.52 L 1505.01,2014.52 L 1517.89,2017.26 L 1529.92,2022.61 L 1540.58,2030.35 L 1549.39,2040.14 L 1555.97,2051.54 L 1560.04,2064.07 L 1561.42,2077.17 z " style="fill-opacity:1.000000;fill:rgb(118,90,46);stroke:rgb(0,0,0);stroke-width:2"/></g>
<g fill-rule="evenodd"><path d="M 2761.42,1477.17 L 2760.04,1490.26 L 2755.97,1502.79 L 2749.39,1514.19 L 2740.58,1523.98 L 2729.92,1531.72 L 2717.89,1537.07 L 2705.01,1539.81 L 2691.84,1539.81 L 2678.96,1537.07 L 2666.93,1531.72 L 2656.28,1523.98 L 2647.46,1514.19 L 2640.88,1502.79 L 2636.81,1490.26 L 2635.43,1477.17 L 2636.81,1464.07 L 2640.88,1451.54 L 2647.46,1440.14 L 2656.28,1430.35 L 2666.93,1422.61 L 2678.96,1417.26 L 2691.84,1414.52 L 2705.01,1414.52 L 2717.89,1417.26 L 2729.92,1422.61 L 2740.58,1430.35 L 2749.39,1440.14 L 2755.97,1451.54 L 2760.04,1464.07 L 2761.42,1477.17 z " style="fill-opacity:1.000000;fill:rgb(99,51,159);stroke:rgb(0,0,0);stroke-width:2"/></g>
<g fill-rule="evenodd"><path d="M 1561.42,2277.17 L 1560.04,2290.26 L 1555.97,2302.79 L 1549.39,2314.19 L 1540.58,2323.98 L 1529.92,2331.72 L 1517.89,2337.07 L 1505.01,2339.81 L 1491.84,2339.81 L 1478.96,2337.07 L 1466.93,2331.72 L 1456.28,2323.98 L 1447.46,2314.19 L 1440.88,2302.79 L 1436.81,2290.26 L 1435.43,2277.17 L 1436.81,2264.07 L 1440.88,2251.54 L 1447.46,2240.14 L 1456.28,2230.35 L 1466.93,2222.61 L 1478.96,2217.26 L 1491.84,2214.52 L 1505.01,2214.52 L 1517.89,2217.26 L 1529.92,2222.61 L 1540.58,2230.35 L 1549.39,2240.14 L 1555.97,2251.54 L 1560.04,2264.07 L 1561.42,2277.17 z " style="fill-opacity:1.000000;fill:rgb(201,154,102);stroke:rgb(0,0,0);stroke-width:2"/></g>
<g fill-rule="evenodd"><path d="M 2761.42,1277.17 L 2760.04,1290.26 L 2755.97,1302.79 L 2749.39,1314.19 L 2740.58,1323.98 L 2729.92,1331.72 L 2717.89,1337.07 L 2705.01,1339.81 L 2691.84,1339.81 L 2678.96,1337.07 L 2666.93,1331.72 L 2656.28,1323.98 L 2647.46,1314.19 L 2640.88,1302.79 L 2636.81,1290.26 L 2635.43,1277.17 L 2636.81,1264.07 L 2640.88,1251.54 L 2647.46,1240.14 L 2656.28,1230.35 L 2666.93,1222.61 L 2678.96,1217.26 L 2691.84,1214.52 L 2705.01,1214.52 L 2717.89,1217.26 L 2729.92,1222.61 L 2740.58,1230.35 L 2749.39,1240.14 L 2755.97,1251.54 L 2760.04,1264.07 L 2761.42,1277.17 z " style="fill-opacity:1.000000;fill:rgb(50,13,183);stroke:rgb(0,0,0);stroke-width:2"/></g>
<g fill-rule="evenodd"><path d="M 1561.42,2477.17 L 1560.04,2490.26 L 1555.97,2502.79 L 1549.39,2514.19 L 1540.58,2523.98 L 1529.92,2531.72 L 1517.89,2537.07 L 1505.01,2539.81 L 1491.84,2539.81 L 1478.96,2537.07 L 1466.93,2531.72 L 1456.28,2523.98 L 1447.46,2514.19 L 1440.88,2502.79 L 1436.81,2490.26 L 1435.43,2477.17 L 1436.81,2464.07 L 1440.88,2451.54 L 1447.46,2440.14 L 1456.28,2430.35 L 1466.93,2422.61 L 1478.96,2417.26 L 1491.84,2414.52 L 1505.01,2414.52 L 1517.89,2417.26 L 1529.92,2422.61 L 1540.58,2430.35 L 1549.39,2440.14 L 1555.97,2451.54 L 1560.04,2464.07 L 1561.42,2477.17 z " style="fill-opacity:1.000000;fill:rgb(49,88,163);stroke:rgb(0,0,0);stroke-width:2"/></g>
<g fill-rule="evenodd"><path d="M 1561.42,2677.17 L 1560.04,2690.26 L 1555.97,2702.79 L 1549.39,2714.19 L 1540.58,2723.98 L 1529.92,2731.72 L 1517.89,2737.07 L 1505.01,2739.81 L 1491.84,2739.81 L 1478.96,2737.07 L 1466.93,2731.72 L 1456.28,2723.98 L 1447.46,2714.19 L 1440.88,2702.79 L 1436.81,2690.26 L 1435.43,2677.17 L 1436.81,2664.07 L 1440.88,2651.54 L 1447.46,2640.14 L 1456.28,2630.35 L 1466.93,2622.61 L 1478.96,2617.26 L 1491.84,2614.52 L 1505.01,2614.52 L 1517.89,2617.26 L 1529.92,2622.61 L 1540.58,2630.35 L 1549.39,2640.14 L 1555.97,2651.54 L 1560.04,2664.07 L 1561.42,2677.17 z " style="fill-opacity:1.000000;fill:rgb(90,37,93);stroke:rgb(0,0,0);stroke-width:2"/></g>
<g fill-rule="evenodd"><path d="M 2761.42,877.165 L 2760.04,890.262 L 2755.97,902.787 L 2749.39,914.191 L 2740.58,923.978 L 2729.92,931.718 L 2717.89,937.075 L 2705.01,939.812 L 2691.84,939.812 L 2678.96,937.075 L 2666.93,931.718 L 2656.28,923.978 L 2647.46,914.191 L 2640.88,902.787 L 2636.81,890.262 L 2635.43,877.165 L 2636.81,864.069 L 2640.88,851.544 L 2647.46,840.14 L 2656.28,830.353 L 2666.93,822.613 L 2678.96,817.256 L 2691.84,814.518 L 2705.01,814.518 L 2717.89,817.256 L 2729.92,822.613 L 2740.58,830.353 L 2749.39,840.14 L 2755.97,851.544 L 2760.04,864.069 L 2761.42,877.165 z " style="fill-opacity:1.000000;fill:rgb(5,23,88);stroke:rgb(0,0,0);stroke-width:2"/></g>
<g fill-rule="evenodd"><path d="M 1561.42,2877.17 L 1560.04,2890.26 L 1555.97,2902.79 L 1549.39,2914.19 L 1540.58,2923.98 L 1529.92,2931.72 L 1517.89,2937.07 L 1505.01,2939.81 L 1491.84,2939.81 L 1478.96,2937.07 L 1466.93,2931.72 L 1456.28,2923.98 L 1447.46,2914.19 L 1440.88,2902.79 L 1436.81,2890.26 L 1435.43,2877.17 L 1436.81,2864.07 L 1440.88,2851.54 L 1447.46,2840.14 L 1456.28,2830.35 L 1466.93,2822.61 L 1478.96,2817.26 L 1491.84,2814.52 L 1505.01,2814.52 L 1517.89,2817.26 L 1529.92,2822.61 L 1540.58,2830.35 L 1549.39,2840.14 L 1555.97,2851.54 L 1560.04,2864.07 L 1561.42,2877.17 z " style="fill-opacity:1.000000;fill:rgb(233,94,212);stroke:rgb(0,0,0);stroke-width:2"/></g>
<g fill-rule="evenodd"><path d="M 2761.42,477.165 L 2760.04,490.262 L 2755.97,502.787 L 2749.39,514.191 L 2740.58,523.978 L 2729.92,531.718 L 2717.89,537.075 L 2705.01,539.812 L 2691.84,539.812 L 2678.96,537.075 L 2666.93,531.718 L 2656.28,523.978 L 2647.46,514.191 L 2640.88,502.787 L 2636.81,490.262 L 2635.43,477.165 L 2636.81,464.069 L 2640.88,451.544 L 2647.46,440.14 L 2656.28,430.353 L 2666.93,422.613 L 2678.96,417.256 L 2691.84,414.518 L 2705.01,414.518 L 2717.89,417.256 L 2729.92,422.613 L 2740.58,430.353 L 2749.39,440.14 L 2755.97,451.544 L 2760.04,464.069 L 2761.42,477.165 z " style="fill-opacity:1.000000;fill:rgb(171,178,205);stroke:rgb(0,0,0);stroke-width:2"/></g>
<g fill-rule="evenodd"><path d="M 2761.42,3277.17 L 2760.04,3290.26 L 2755.97,3302.79 L 2749.39,3314.19 L 2740.58,3323.98 L 2729.92,3331.72 L 2717.89,3337.07 L 2705.01,3339.81 L 2691.84,3339.81 L 2678.96,3337.07 L 2666.93,3331.72 L 2656.28,3323.98 L 2647.46,3314.19 L 2640.88,3302.79 L 2636.81,3290.26 L 2635.43,3277.17 L 2636.81,3264.07 L 2640.88,3251.54 L 2647.46,3240.14 L 2656.28,3230.35 L 2666.93,3222.61 L 2678.96,3217.26 L 2691.84,3214.52 L 2705.01,3214.52 L 2717.89,3217.26 L 2729.92,3222.61 L 2740.58,3230.35 L 2749.39,3240.14 L 2755.97,3251.54 L 2760.04,3264.07 L 2761.42,3277.17 z " style="fill-opacity:1.000000;fill:rgb(198,155,180);stroke:rgb(0,0,0);stroke-width:2"/></g>
<g fill-rule="evenodd"><path d="M 542.913,3255.51 L 541.451,3269.43 L 537.127,3282.73 L 530.131,3294.85 L 520.769,3305.25 L 509.449,3313.47 L 496.666,3319.17 L 482.98,3322.07 L 468.988,3322.07 L 455.302,3319.17 L 442.52,3313.47 L 431.2,3305.25 L 421.837,3294.85 L 414.841,3282.73 L 410.518,3269.43 L 409.055,3255.51 L 410.518,3241.6 L 414.841,3228.29 L 421.837,3216.17 L 431.2,3205.77 L 442.52,3197.55 L 455.302,3191.86 L 468.988,3188.95 L 482.98,3188.95 L 496.666,3191.86 L 509.449,3197.55 L 520.769,3205.77 L 530.131,3216.17 L 537.127,3228.29 L 541.451,3241.6 L 542.913,3255.51 z " style="fill-opacity:1.000000;fill:rgb(84,17,14);stroke:rgb(0,0,0);stroke-width:2"/></g>
<g fill-rule="evenodd"><path d="M 106.929,1982.21 L 106.929,116.929 L 107.121,114.978 L 108.614,111.373 L 111.373,108.614 L 113.102,107.69 L 116.929,106.929 L 3398.82,106.929 L 3400.77,107.121 L 3404.37,108.614 L 3407.13,111.373 L 3408.06,113.102 L 3408.82,116.929 L 3408.82,3871.26 L 3408.63,3873.21 L 3407.13,3876.82 L 3404.37,3879.57 L 3402.65,3880.5 L 3398.82,3881.26 L 116.929,3881.26 L 114.85,3881.04 L 111.929,3879.92 L 110.238,3878.69 L 108.269,3876.26 L 107.148,3873.34 L 106.929,3871.26 L 106.929,1982.21M 281.811,2014.4 L 281.811,2048.8 L 290.42,2053.53 L 296.242,2051.77 L 314.712,2043.04 L 330.925,2031.02 L 344.481,2016.07 L 354.86,1998.76 L 360.482,1983.06 L 355.928,1974.72 L 321.184,1974.72 L 319.357,1980.35 L 312.773,1991.75 L 303.961,2001.54 L 293.307,2009.28 L 281.811,2014.4M 241.811,2014.4 L 230.315,2009.28 L 219.661,2001.54 L 210.849,1991.75 L 204.265,1980.35 L 202.438,1974.72 L 167.694,1974.72 L 163.14,1983.06 L 168.762,1998.76 L 179.141,2016.07 L 192.697,2031.02 L 208.911,2043.04 L 227.381,2051.77 L 233.202,2053.53 L 241.811,2048.8 L 241.811,2014.4M 321.184,1934.72 L 355.928,1934.72 L 360.482,1926.39 L 354.86,1910.69 L 344.481,1893.38 L 330.925,1878.43 L 314.712,1866.41 L 296.244,1857.68 L 290.42,1855.92 L 281.811,1860.65 L 281.811,1895.05 L 293.307,1900.17 L 303.961,1907.91 L 312.773,1917.7 L 319.357,1929.1 L 321.184,1934.72M 202.438,1934.72 L 204.265,1929.1 L 210.849,1917.7 L 219.661,1907.91 L 230.315,1900.17 L 241.811,1895.05 L 241.811,1860.65 L 233.202,1855.92 L 227.379,1857.68 L 208.911,1866.41 L 192.697,1878.43 L 179.141,1893.38 L 168.762,1910.69 L 163.14,1926.39 L 167.694,1934.72 L 202.438,1934.72M 2998.35,872.362 L 2996.52,877.983 L 2989.94,889.388 L 2981.13,899.174 L 2970.47,906.915 L 2958.98,912.033 L 2958.98,946.44 L 2967.59,951.17 L 2973.41,949.404 L 2991.88,940.674 L 3008.09,928.656 L 3021.65,913.707 L 3032.03,896.401 L 3037.65,880.7 L 3033.09,872.362 L 2998.35,872.362M 2879.6,872.362 L 2844.86,872.362 L 2840.31,880.7 L 2845.93,896.401 L 2856.31,913.707 L 2869.86,928.657 L 2886.07,940.674 L 2904.55,949.404 L 2910.37,951.17 L 2918.98,946.44 L 2918.98,912.033 L 2907.48,906.915 L 2896.83,899.174 L 2888.01,889.388 L 2881.43,877.983 L 2879.6,872.362M 2918.98,792.691 L 2918.98,758.285 L 2910.37,753.555 L 2904.55,755.32 L 2886.07,764.051 L 2869.86,776.067 L 2856.31,791.017 L 2845.93,808.324 L 2840.31,824.024 L 2844.86,832.362 L 2879.6,832.362 L 2881.43,826.741 L 2888.01,815.336 L 2896.83,805.55 L 2907.48,797.809 L 2918.98,792.691M 2998.35,832.362 L 3033.09,832.362 L 3037.65,824.024 L 3032.03,808.324 L 3021.65,791.017 L 3008.09,776.068 L 2991.88,764.05 L 2973.41,755.321 L 2967.59,753.555 L 2958.98,758.285 L 2958.98,792.691 L 2970.47,797.809 L 2981.13,805.55 L 2989.94,815.336 L 2996.52,826.741 L 2998.35,832.362M 495.984,2088.58 L 542.913,2088.58 L 542.913,2135.51 L 576.271,2135.51 L 582.936,2128.85 L 583.152,2089.04 L 582.335,2080.74 L 580.047,2073.2 L 576.333,2066.25 L 571.334,2060.16 L 565.243,2055.16 L 558.295,2051.45 L 550.754,2049.16 L 542.452,2048.34 L 502.649,2048.56 L 495.984,2055.22 L 495.984,2088.58M 455.984,2088.58 L 455.984,2055.22 L 449.32,2048.56 L 409.516,2048.34 L 401.214,2049.16 L 393.673,2051.45 L 386.725,2055.16 L 380.635,2060.16 L 375.635,2066.25 L 371.921,2073.2 L 369.634,2080.74 L 368.816,2089.05 L 369.033,2128.85 L 375.697,2135.51 L 409.055,2135.51 L 409.055,2088.58 L 455.984,2088.58M 3109.05,1235.51 L 3109.06,1188.58 L 3155.98,1188.58 L 3155.98,1155.22 L 3149.32,1148.56 L 3109.52,1148.34 L 3101.21,1149.16 L 3093.67,1151.45 L 3086.72,1155.16 L 3080.63,1160.16 L 3075.64,1166.25 L 3071.92,1173.2 L 3069.63,1180.74 L 3068.82,1189.05 L 3069.03,1228.85 L 3075.7,1235.51 L 3109.05,1235.51M 3195.98,1188.58 L 3242.91,1188.58 L 3242.91,1235.51 L 3276.27,1235.51 L 3282.94,1228.85 L 3283.15,1189.05 L 3282.33,1180.74 L 3280.05,1173.2 L 3276.33,1166.25 L 3271.33,1160.16 L 3265.24,1155.16 L 3258.3,1151.45 L 3250.75,1149.16 L 3242.45,1148.34 L 3202.65,1148.56 L 3195.98,1155.22 L 3195.98,1188.58M 955.984,1126.38 L 905.118,1126.38 L 905.118,1075.51 L 871.76,1075.51 L 865.098,1082.17 L 864.879,1125.91 L 865.697,1134.22 L 867.984,1141.76 L 871.698,1148.71 L 876.697,1154.8 L 882.788,1159.8 L 889.736,1163.51 L 897.277,1165.8 L 905.582,1166.62 L 949.321,1166.4 L 955.984,1159.74 L 955.984,1126.38M 995.984,1126.38 L 995.984,1159.74 L 1002.65,1166.4 L 1046.39,1166.62 L 1054.69,1165.8 L 1062.23,1163.51 L 1069.18,1159.8 L 1075.27,1154.8 L 1080.27,1148.71 L 1083.98,1141.76 L 1086.27,1134.22 L 1087.09,1125.91 L 1086.87,1082.17 L 1080.21,1075.51 L 1046.85,1075.51 L 1046.85,1126.38 L 995.984,1126.38M 905.118,1035.51 L 905.118,984.646 L 1046.85,984.646 L 1046.85,1035.51 L 1080.21,1035.51 L 1086.87,1028.85 L 1087.09,985.113 L 1086.27,976.805 L 1083.98,969.264 L 1080.27,962.316 L 1075.27,956.224 L 1069.18,951.226 L 1062.23,947.512 L 1059.84,946.563 L 1058.14,945.395 L 1056.72,943.904 L 1055.64,942.155 L 1054.94,940.221 L 1054.64,938.183 L 1054.77,936.13 L 1055.32,934.146 L 1056.27,932.317 L 1062.1,926.185 L 1074.23,908.026 L 1082.59,887.851 L 1086.85,866.431 L 1086.85,844.593 L 1082.59,823.173 L 1074.23,802.998 L 1062.1,784.838 L 1046.66,769.396 L 1028.5,757.264 L 1008.32,748.906 L 986.903,744.646 L 965.065,744.646 L 943.645,748.906 L 923.468,757.264 L 905.311,769.396 L 889.869,784.839 L 884.253,792.898 L 882.738,794.141 L 879.133,795.635 L 665.317,795.827 L 663.366,795.635 L 659.761,794.141 L 658.246,792.898 L 655.983,789.858 L 641.638,775.513 L 624.771,764.242 L 606.026,756.478 L 586.128,752.52 L 565.841,752.52 L 545.942,756.478 L 527.198,764.242 L 510.331,775.513 L 495.985,789.858 L 484.713,806.728 L 476.95,825.47 L 472.992,845.368 L 472.992,865.655 L 476.95,885.554 L 484.714,904.297 L 495.985,921.165 L 510.331,935.511 L 527.199,946.782 L 545.942,954.546 L 565.841,958.504 L 586.128,958.504 L 606.026,954.546 L 624.769,946.782 L 641.638,935.511 L 655.983,921.165 L 658.246,918.126 L 659.761,916.882 L 661.49,915.958 L 665.317,915.197 L 879.133,915.389 L 881.009,915.958 L 884.253,918.126 L 889.869,926.185 L 895.702,932.317 L 896.645,934.146 L 897.194,936.13 L 897.325,938.183 L 897.033,940.221 L 896.33,942.155 L 895.247,943.904 L 893.828,945.395 L 892.133,946.563 L 889.737,947.512 L 882.788,951.226 L 876.697,956.224 L 871.698,962.316 L 867.984,969.264 L 865.697,976.805 L 864.879,985.109 L 865.098,1028.85 L 871.76,1035.51 L 905.118,1035.51M 1439.05,1057.17 L 1440.88,1051.54 L 1447.46,1040.14 L 1456.28,1030.35 L 1466.93,1022.61 L 1478.96,1017.26 L 1491.84,1014.52 L 1505.01,1014.52 L 1517.89,1017.26 L 1529.92,1022.61 L 1540.58,1030.35 L 1549.39,1040.14 L 1555.97,1051.54 L 1557.8,1057.17 L 1592.5,1057.17 L 1597.23,1048.56 L 1595.47,1042.73 L 1586.74,1024.26 L 1574.72,1008.05 L 1559.77,994.496 L 1544.36,985.021 L 1543.03,983.526 L 1542.02,981.795 L 1541.37,979.898 L 1541.12,977.909 L 1541.26,975.91 L 1541.81,973.981 L 1542.73,972.198 L 1543.98,970.635 L 1545.52,969.353 L 1564.08,957.165 L 1578.43,942.818 L 1589.7,925.952 L 1597.46,907.207 L 1601.42,887.309 L 1601.42,867.022 L 1597.46,847.124 L 1589.7,828.379 L 1578.43,811.513 L 1564.08,797.166 L 1545.07,784.237 L 1542.91,780.992 L 1542.15,777.165 L 1542.91,773.339 L 1545.07,770.094 L 1564.08,757.165 L 1578.43,742.818 L 1589.7,725.951 L 1597.46,707.208 L 1601.42,687.309 L 1601.42,667.022 L 1597.46,647.123 L 1589.7,628.38 L 1578.43,611.513 L 1563.48,596.571 L 1562.19,594.981 L 1561.25,593.161 L 1560.7,591.187 L 1560.56,589.142 L 1560.84,587.113 L 1561.53,585.183 L 1562.6,583.435 L 1564.01,581.942 L 1565.68,580.766 L 1567.57,579.956 L 1576.8,577.291 L 1583.75,573.577 L 1589.84,568.579 L 1594.84,562.488 L 1598.55,555.538 L 1600.84,548 L 1601.66,539.668 L 1601.66,414.663 L 1600.84,406.331 L 1598.55,398.793 L 1594.84,391.843 L 1589.84,385.752 L 1583.75,380.753 L 1576.8,377.04 L 1569.26,374.752 L 1560.93,373.931 L 1435.92,373.931 L 1427.59,374.752 L 1420.05,377.039 L 1413.1,380.753 L 1407.01,385.752 L 1402.01,391.842 L 1398.3,398.792 L 1396.01,406.332 L 1395.19,414.667 L 1395.19,539.664 L 1396.01,547.998 L 1398.3,555.539 L 1402.01,562.489 L 1407.01,568.58 L 1413.1,573.578 L 1420.05,577.291 L 1429.28,579.956 L 1431.17,580.766 L 1432.84,581.942 L 1434.25,583.435 L 1435.32,585.183 L 1436.01,587.113 L 1436.29,589.142 L 1436.15,591.187 L 1435.6,593.161 L 1434.66,594.981 L 1418.43,611.512 L 1407.15,628.381 L 1399.39,647.123 L 1395.43,667.022 L 1395.43,687.309 L 1399.39,707.208 L 1407.15,725.95 L 1418.43,742.819 L 1432.77,757.165 L 1451.78,770.094 L 1453.94,773.339 L 1454.71,777.165 L 1453.94,780.992 L 1451.78,784.237 L 1432.77,797.166 L 1418.43,811.512 L 1407.15,828.38 L 1399.39,847.124 L 1395.43,867.022 L 1395.43,887.309 L 1399.39,907.207 L 1407.15,925.951 L 1418.43,942.819 L 1432.77,957.165 L 1451.33,969.353 L 1452.87,970.635 L 1454.13,972.198 L 1455.04,973.981 L 1455.59,975.91 L 1455.73,977.909 L 1455.48,979.898 L 1454.83,981.795 L 1453.82,983.526 L 1452.49,985.021 L 1437.08,994.496 L 1422.13,1008.05 L 1410.11,1024.26 L 1401.38,1042.74 L 1399.62,1048.56 L 1404.35,1057.17 L 1439.05,1057.17M 1557.8,1097.17 L 1555.97,1102.79 L 1549.39,1114.19 L 1540.58,1123.98 L 1529.92,1131.72 L 1517.89,1137.07 L 1505.01,1139.81 L 1491.84,1139.81 L 1478.96,1137.07 L 1466.93,1131.72 L 1456.28,1123.98 L 1447.46,1114.19 L 1440.88,1102.79 L 1439.05,1097.17 L 1404.35,1097.17 L 1399.62,1105.77 L 1401.38,1111.6 L 1410.11,1130.07 L 1422.13,1146.28 L 1437.08,1159.84 L 1452.49,1169.31 L 1453.82,1170.8 L 1454.83,1172.54 L 1455.48,1174.43 L 1455.73,1176.42 L 1455.59,1178.42 L 1455.04,1180.35 L 1454.13,1182.13 L 1452.87,1183.7 L 1451.33,1184.98 L 1432.77,1197.17 L 1418.43,1211.51 L 1407.15,1228.38 L 1399.75,1246.27 L 1397.58,1249.51 L 896.948,1750.14 L 895.433,1751.38 L 891.828,1752.88 L 889.877,1753.07 L 886.128,1752.52 L 865.841,1752.52 L 845.942,1756.48 L 827.199,1764.24 L 810.331,1775.51 L 795.985,1789.86 L 784.714,1806.73 L 776.95,1825.47 L 772.992,1845.37 L 772.992,1865.66 L 776.95,1885.55 L 784.713,1904.3 L 795.985,1921.17 L 810.331,1935.51 L 827.198,1946.78 L 845.944,1954.55 L 865.839,1958.5 L 886.13,1958.5 L 906.025,1954.55 L 913.712,1951.57 L 917.614,1951.57 L 921.219,1953.06 L 923.978,1955.82 L 925.471,1959.43 L 925.471,1963.33 L 923.978,1966.93 L 906.086,1985.1 L 902.841,1987.27 L 899.014,1988.03 L 804.649,1988.03 L 802.698,1987.83 L 799.093,1986.34 L 637.355,1824.6 L 636.43,1822.87 L 635.669,1819.05 L 635.861,1742.89 L 636.431,1741.02 L 638.598,1737.77 L 641.638,1735.51 L 655.983,1721.17 L 667.255,1704.3 L 675.018,1685.55 L 678.976,1665.66 L 678.976,1645.37 L 675.018,1625.47 L 667.255,1606.73 L 655.983,1589.86 L 641.638,1575.51 L 624.771,1564.24 L 606.025,1556.48 L 586.128,1552.52 L 565.841,1552.52 L 545.944,1556.48 L 527.198,1564.24 L 510.331,1575.51 L 495.985,1589.86 L 484.713,1606.73 L 476.95,1625.47 L 472.992,1645.37 L 472.992,1665.66 L 476.95,1685.55 L 484.713,1704.3 L 495.985,1721.17 L 510.331,1735.51 L 513.37,1737.77 L 514.614,1739.29 L 516.107,1742.89 L 516.299,1844.49 L 516.011,1847.91 L 517.163,1859.61 L 520.576,1870.86 L 526.119,1881.23 L 533.576,1890.32 L 536.201,1892.54 L 731.16,2087.49 L 733.377,2090.12 L 742.464,2097.58 L 752.834,2103.12 L 764.085,2106.53 L 775.784,2107.69 L 779.207,2107.4 L 924.456,2107.4 L 927.879,2107.69 L 939.578,2106.53 L 950.829,2103.12 L 961.2,2097.58 L 970.286,2090.12 L 972.503,2087.49 L 1378.43,1681.57 L 1379.95,1680.32 L 1383.55,1678.83 L 1387.45,1678.83 L 1391.06,1680.32 L 1393.82,1683.08 L 1394.74,1684.81 L 1395.79,1689.11 L 1395.79,1693.01 L 1395.22,1694.89 L 1393.05,1698.13 L 946.886,2144.3 L 943.641,2146.47 L 939.814,2147.23 L 828.007,2147.23 L 824.584,2146.94 L 812.884,2148.09 L 801.634,2151.5 L 791.266,2157.04 L 782.176,2164.5 L 779.96,2167.13 L 599.327,2347.76 L 596.083,2349.93 L 594.207,2350.5 L 590.305,2350.5 L 586.7,2349.01 L 583.941,2346.25 L 582.448,2342.64 L 578.804,2324.32 L 570.744,2304.86 L 559.042,2287.35 L 548.058,2276.07 L 547.115,2274.24 L 546.566,2272.25 L 546.434,2270.2 L 546.726,2268.16 L 547.429,2266.23 L 548.513,2264.48 L 549.932,2262.99 L 551.626,2261.82 L 553.524,2261.02 L 558.295,2259.57 L 565.243,2255.86 L 571.335,2250.86 L 576.333,2244.77 L 580.047,2237.82 L 582.335,2230.28 L 583.152,2221.98 L 582.936,2182.18 L 576.271,2175.51 L 542.913,2175.51 L 542.913,2222.44 L 409.055,2222.44 L 409.055,2175.51 L 375.697,2175.51 L 369.033,2182.18 L 368.816,2221.98 L 369.634,2230.28 L 371.921,2237.82 L 375.635,2244.77 L 380.634,2250.86 L 386.725,2255.86 L 393.674,2259.57 L 398.445,2261.02 L 400.342,2261.82 L 402.036,2262.99 L 403.455,2264.48 L 404.539,2266.23 L 405.242,2268.16 L 405.534,2270.2 L 405.403,2272.25 L 404.854,2274.24 L 403.911,2276.07 L 392.927,2287.35 L 381.226,2304.86 L 373.164,2324.32 L 369.055,2344.98 L 369.055,2366.04 L 370.194,2372.75 L 369.433,2376.58 L 367.265,2379.82 L 301.422,2445.39 L 299.693,2446.32 L 295.866,2447.08 L 271.955,2442.28 L 251.667,2442.28 L 231.769,2446.24 L 213.027,2454 L 196.157,2465.28 L 181.812,2479.62 L 170.541,2496.49 L 162.776,2515.23 L 158.819,2535.13 L 158.819,2555.42 L 162.776,2575.32 L 170.541,2594.06 L 181.812,2610.93 L 196.157,2625.27 L 213.025,2636.55 L 231.77,2644.31 L 251.667,2648.27 L 271.955,2648.27 L 291.461,2644.56 L 295.036,2645.16 L 296.682,2645.94 L 299.42,2648.32 L 307.592,2658.39 L 310.217,2660.61 L 370.888,2721.28 L 373.104,2723.9 L 382.192,2731.36 L 392.56,2736.9 L 403.812,2740.32 L 415.512,2741.47 L 418.934,2741.18 L 529.176,2741.18 L 532.598,2741.47 L 544.298,2740.32 L 555.55,2736.9 L 565.918,2731.36 L 575.005,2723.91 L 577.223,2721.28 L 848.033,2450.74 L 849.762,2449.82 L 853.589,2449.06 L 1013.26,2449.06 L 1017.09,2449.82 L 1018.82,2450.74 L 1086.37,2518.02 L 1088.54,2521.27 L 1089.3,2525.09 L 1089.11,2869.14 L 1087.61,2872.75 L 1086.37,2874.26 L 1010.22,2950.42 L 1007.59,2952.63 L 1000.13,2961.72 L 994.592,2972.09 L 991.179,2983.34 L 990.026,2995.04 L 990.315,2998.46 L 990.315,3067.47 L 990.026,3070.9 L 991.04,3081.68 L 991.04,3184.25 L 990.026,3195.04 L 990.315,3198.46 L 990.315,3312.56 L 990.026,3315.98 L 991.179,3327.69 L 994.591,3338.94 L 1000.13,3349.3 L 1007.59,3358.39 L 1010.22,3360.61 L 1070.76,3421.42 L 1071.68,3423.15 L 1072.44,3426.97 L 1069.06,3444.98 L 1069.06,3466.04 L 1073.16,3486.7 L 1081.22,3506.16 L 1092.93,3523.68 L 1103.91,3534.96 L 1104.85,3536.79 L 1105.4,3538.77 L 1105.53,3540.82 L 1105.24,3542.86 L 1104.54,3544.8 L 1103.46,3546.55 L 1102.04,3548.04 L 1100.34,3549.2 L 1098.44,3550 L 1093.67,3551.45 L 1086.73,3555.16 L 1080.63,3560.16 L 1075.64,3566.25 L 1071.92,3573.2 L 1069.63,3580.74 L 1068.82,3589.05 L 1069.03,3628.85 L 1075.7,3635.51 L 1109.05,3635.51 L 1109.06,3588.58 L 1242.91,3588.58 L 1242.91,3635.51 L 1276.27,3635.51 L 1282.94,3628.85 L 1283.15,3589.05 L 1282.33,3580.74 L 1280.05,3573.2 L 1276.33,3566.25 L 1271.33,3560.16 L 1265.24,3555.16 L 1258.3,3551.45 L 1253.52,3550 L 1251.63,3549.2 L 1249.93,3548.04 L 1248.51,3546.55 L 1247.43,3544.8 L 1246.73,3542.86 L 1246.43,3540.82 L 1246.57,3538.77 L 1247.11,3536.79 L 1248.06,3534.96 L 1259.04,3523.68 L 1262.98,3518.13 L 1266.22,3515.96 L 1270.05,3515.2 L 1497.29,3515.2 L 1500.71,3515.49 L 1512.41,3514.33 L 1523.66,3510.92 L 1534.03,3505.38 L 1543.12,3497.92 L 1545.33,3495.29 L 2428.97,2611.66 L 2431.59,2609.44 L 2439.05,2600.36 L 2444.59,2589.99 L 2448.01,2578.74 L 2449.16,2567.04 L 2448.87,2563.61 L 2449.06,1413.32 L 2449.63,1411.44 L 2451.8,1408.2 L 2578.43,1281.57 L 2581.67,1279.4 L 2585.5,1278.64 L 2589.33,1279.4 L 2591.06,1280.32 L 2592.57,1281.57 L 2594.74,1284.81 L 2599.39,1307.21 L 2607.15,1325.95 L 2618.43,1342.82 L 2632.77,1357.16 L 2651.78,1370.09 L 2653.94,1373.34 L 2654.71,1377.17 L 2653.94,1380.99 L 2651.78,1384.24 L 2632.77,1397.17 L 2618.43,1411.51 L 2607.15,1428.38 L 2599.39,1447.12 L 2595.43,1467.02 L 2595.43,1487.31 L 2599.39,1507.21 L 2607.15,1525.95 L 2618.43,1542.82 L 2632.77,1557.16 L 2651.78,1570.09 L 2653.94,1573.34 L 2654.71,1577.17 L 2653.94,1580.99 L 2651.78,1584.24 L 2632.77,1597.17 L 2618.43,1611.51 L 2607.15,1628.38 L 2599.39,1647.12 L 2595.43,1667.02 L 2595.43,1687.31 L 2599.39,1707.21 L 2607.15,1725.95 L 2618.43,1742.82 L 2632.77,1757.16 L 2651.78,1770.09 L 2653.94,1773.34 L 2654.71,1777.17 L 2653.94,1780.99 L 2651.78,1784.24 L 2632.77,1797.17 L 2618.43,1811.51 L 2607.15,1828.38 L 2599.39,1847.12 L 2595.43,1867.02 L 2595.43,1887.31 L 2599.39,1907.21 L 2607.15,1925.95 L 2618.43,1942.82 L 2632.77,1957.16 L 2651.78,1970.09 L 2653.94,1973.34 L 2654.71,1977.17 L 2653.94,1980.99 L 2651.78,1984.24 L 2632.77,1997.17 L 2618.43,2011.51 L 2607.15,2028.38 L 2599.39,2047.12 L 2595.43,2067.02 L 2595.43,2087.31 L 2599.39,2107.21 L 2607.15,2125.95 L 2618.43,2142.82 L 2632.77,2157.16 L 2651.78,2170.09 L 2653.94,2173.34 L 2654.71,2177.17 L 2653.94,2180.99 L 2651.78,2184.24 L 2632.77,2197.17 L 2618.43,2211.51 L 2607.15,2228.38 L 2599.39,2247.12 L 2595.43,2267.02 L 2595.43,2287.31 L 2599.39,2307.21 L 2607.15,2325.95 L 2618.43,2342.82 L 2632.77,2357.16 L 2651.78,2370.09 L 2653.94,2373.34 L 2654.71,2377.17 L 2653.94,2380.99 L 2651.78,2384.24 L 2632.77,2397.17 L 2618.43,2411.51 L 2607.15,2428.38 L 2599.39,2447.12 L 2595.43,2467.02 L 2595.43,2487.31 L 2599.39,2507.21 L 2607.15,2525.95 L 2618.43,2542.82 L 2632.77,2557.16 L 2651.78,2570.09 L 2653.02,2571.61 L 2654.51,2575.21 L 2654.71,2577.17 L 2653.94,2580.99 L 2653.02,2582.72 L 2650.26,2585.48 L 2632.77,2597.17 L 2618.43,2611.51 L 2607.15,2628.38 L 2599.39,2647.12 L 2595.43,2667.02 L 2595.43,2687.31 L 2595.98,2691.06 L 2595.79,2693.01 L 2595.22,2694.88 L 2593.05,2698.13 L 1572.3,3718.88 L 1569.06,3721.05 L 1565.23,3721.81 L 1291.15,3721.62 L 1287.56,3720.14 L 1286.05,3718.9 L 1283.87,3715.68 L 1283.1,3711.87 L 1282.94,3682.18 L 1276.27,3675.51 L 1242.91,3675.51 L 1242.91,3722.44 L 1109.06,3722.44 L 1109.05,3675.51 L 1075.7,3675.51 L 1069.03,3682.18 L 1068.87,3711.87 L 1068.09,3715.68 L 1067.17,3717.4 L 1064.41,3720.14 L 1062.69,3721.06 L 1058.87,3721.81 L 593.097,3721.81 L 591.153,3721.62 L 587.559,3720.14 L 586.046,3718.9 L 583.874,3715.68 L 583.098,3711.87 L 582.936,3682.18 L 576.271,3675.51 L 542.913,3675.51 L 542.913,3722.44 L 409.055,3722.44 L 409.055,3588.58 L 542.913,3588.58 L 542.913,3635.51 L 576.272,3635.51 L 582.936,3628.85 L 583.152,3589.04 L 582.335,3580.74 L 580.047,3573.2 L 576.333,3566.25 L 571.335,3560.16 L 565.243,3555.16 L 558.295,3551.45 L 553.524,3550 L 551.626,3549.2 L 549.932,3548.04 L 548.513,3546.55 L 547.429,3544.8 L 546.726,3542.86 L 546.434,3540.82 L 546.566,3538.77 L 547.115,3536.79 L 548.058,3534.96 L 559.041,3523.68 L 570.744,3506.16 L 578.804,3486.7 L 582.913,3466.04 L 582.913,3444.98 L 581.775,3438.27 L 581.967,3436.32 L 583.46,3432.72 L 915.767,3100.14 L 918.393,3097.92 L 925.85,3088.83 L 931.393,3078.46 L 934.806,3067.21 L 935.958,3055.51 L 935.669,3052.09 L 935.669,2744.84 L 935.861,2742.89 L 937.355,2739.29 L 938.598,2737.77 L 941.639,2735.51 L 955.983,2721.17 L 967.255,2704.3 L 975.018,2685.55 L 978.976,2665.66 L 978.976,2645.37 L 975.018,2625.47 L 967.255,2606.73 L 955.983,2589.86 L 941.638,2575.51 L 924.769,2564.24 L 906.026,2556.48 L 886.128,2552.52 L 865.841,2552.52 L 845.942,2556.48 L 827.199,2564.24 L 810.331,2575.51 L 795.985,2589.86 L 784.714,2606.73 L 776.95,2625.47 L 772.992,2645.37 L 772.992,2665.66 L 776.95,2685.55 L 784.713,2704.3 L 795.985,2721.17 L 810.33,2735.51 L 813.37,2737.77 L 815.538,2741.02 L 816.107,2742.89 L 816.299,3026.65 L 815.538,3030.47 L 813.37,3033.72 L 594.506,3252.58 L 592.991,3253.83 L 589.386,3255.32 L 579.934,3255.51 L 577.892,3255.3 L 575.936,3254.68 L 574.148,3253.67 L 572.605,3252.32 L 571.37,3250.68 L 570.496,3248.82 L 570.02,3246.82 L 569.961,3244.77 L 570.323,3242.75 L 571.09,3240.84 L 578.724,3226.38 L 576.619,3219.44 L 567.509,3200.31 L 554.981,3183.52 L 539.418,3169.49 L 529.445,3163.31 L 528.101,3161.82 L 527.084,3160.08 L 526.436,3158.18 L 526.182,3156.18 L 526.332,3154.17 L 526.881,3152.24 L 527.807,3150.45 L 529.071,3148.89 L 544.148,3138.57 L 559.042,3123.68 L 570.744,3106.16 L 578.804,3086.7 L 582.913,3066.04 L 582.913,3044.98 L 578.804,3024.32 L 570.744,3004.86 L 559.042,2987.35 L 544.147,2972.45 L 526.635,2960.75 L 507.173,2952.69 L 486.516,2948.58 L 465.453,2948.58 L 444.795,2952.69 L 425.334,2960.75 L 407.821,2972.45 L 392.927,2987.35 L 381.225,3004.86 L 373.164,3024.32 L 369.055,3044.98 L 369.055,3066.04 L 370.194,3072.75 L 370.002,3074.7 L 368.508,3078.31 L 310.217,3136.87 L 307.592,3139.09 L 300.134,3148.18 L 294.591,3158.55 L 291.178,3169.8 L 290.026,3181.5 L 290.315,3184.92 L 290.315,3766.26 L 290.026,3769.69 L 291.178,3781.39 L 294.591,3792.64 L 300.134,3803.01 L 307.592,3812.09 L 310.217,3814.31 L 317.186,3821.28 L 319.403,3823.9 L 328.491,3831.36 L 338.861,3836.91 L 350.111,3840.32 L 361.811,3841.47 L 365.233,3841.18 L 1590.67,3841.18 L 1594.09,3841.47 L 1605.79,3840.32 L 1617.04,3836.9 L 1627.41,3831.36 L 1636.5,3823.91 L 1638.72,3821.28 L 2578.43,2881.57 L 2579.95,2880.32 L 2583.55,2878.83 L 2585.5,2878.64 L 2589.33,2879.4 L 2592.57,2881.57 L 2593.82,2883.08 L 2595.31,2886.69 L 2599.39,2907.21 L 2607.15,2925.95 L 2618.43,2942.82 L 2632.77,2957.16 L 2651.78,2970.09 L 2653.94,2973.34 L 2654.71,2977.17 L 2653.94,2980.99 L 2651.78,2984.24 L 2632.77,2997.17 L 2618.43,3011.51 L 2607.15,3028.38 L 2599.39,3047.12 L 2595.43,3067.02 L 2595.43,3087.31 L 2599.39,3107.21 L 2607.15,3125.95 L 2618.43,3142.82 L 2632.77,3157.16 L 2651.78,3170.09 L 2653.94,3173.34 L 2654.71,3177.17 L 2653.94,3180.99 L 2651.78,3184.24 L 2632.77,3197.17 L 2618.43,3211.51 L 2607.15,3228.38 L 2599.39,3247.12 L 2595.43,3267.02 L 2595.43,3287.31 L 2599.39,3307.21 L 2607.15,3325.95 L 2618.43,3342.82 L 2632.77,3357.16 L 2649.64,3368.44 L 2668.38,3376.2 L 2688.28,3380.16 L 2708.57,3380.16 L 2728.47,3376.2 L 2747.21,3368.44 L 2764.08,3357.16 L 2778.42,3342.82 L 2789.7,3325.95 L 2797.46,3307.21 L 2801.42,3287.31 L 2801.42,3267.02 L 2797.46,3247.12 L 2789.7,3228.38 L 2778.42,3211.51 L 2764.08,3197.17 L 2745.07,3184.24 L 2742.91,3180.99 L 2742.15,3177.17 L 2742.91,3173.34 L 2745.07,3170.09 L 2764.08,3157.16 L 2778.42,3142.82 L 2780.69,3139.78 L 2783.93,3137.61 L 2787.76,3136.85 L 3109.3,3136.85 L 3111.25,3137.04 L 3114.86,3138.54 L 3127.2,3146.78 L 3145.94,3154.55 L 3165.84,3158.5 L 3186.13,3158.5 L 3206.02,3154.55 L 3224.77,3146.78 L 3241.64,3135.51 L 3255.98,3121.17 L 3267.26,3104.3 L 3275.02,3085.55 L 3278.98,3065.66 L 3278.98,3045.37 L 3275.02,3025.47 L 3267.26,3006.73 L 3255.98,2989.86 L 3241.64,2975.51 L 3224.77,2964.24 L 3206.02,2956.48 L 3186.13,2952.52 L 3165.84,2952.52 L 3145.94,2956.48 L 3127.2,2964.24 L 3110.33,2975.51 L 3095.99,2989.86 L 3084.71,3006.73 L 3082.82,3011.31 L 3080.65,3014.55 L 3077.4,3016.72 L 3073.58,3017.48 L 2785.81,3017.29 L 2783.93,3016.72 L 2780.69,3014.55 L 2778.42,3011.51 L 2764.08,2997.17 L 2746.59,2985.48 L 2743.83,2982.72 L 2742.91,2980.99 L 2742.34,2979.12 L 2742.34,2975.21 L 2743.83,2971.61 L 2745.07,2970.09 L 2764.08,2957.16 L 2778.42,2942.82 L 2789.7,2925.95 L 2797.46,2907.21 L 2801.42,2887.31 L 2801.42,2867.02 L 2797.46,2847.13 L 2789.7,2828.38 L 2778.42,2811.51 L 2764.08,2797.17 L 2745.07,2784.24 L 2742.91,2780.99 L 2742.15,2777.17 L 2742.91,2773.34 L 2745.07,2770.09 L 2764.08,2757.16 L 2778.42,2742.82 L 2789.7,2725.95 L 2797.46,2707.21 L 2801.42,2687.31 L 2801.42,2667.02 L 2800.87,2663.27 L 2801.06,2661.32 L 2802.55,2657.72 L 3114.53,2345.74 L 3118.13,2344.25 L 3122.04,2344.25 L 3123.91,2344.82 L 3127.2,2346.78 L 3145.94,2354.55 L 3165.84,2358.5 L 3186.13,2358.5 L 3206.03,2354.55 L 3224.77,2346.78 L 3241.64,2335.51 L 3255.98,2321.17 L 3267.25,2304.3 L 3275.02,2285.55 L 3278.98,2265.66 L 3278.98,2245.37 L 3275.02,2225.47 L 3267.26,2206.73 L 3255.98,2189.86 L 3241.64,2175.51 L 3224.77,2164.24 L 3206.02,2156.48 L 3186.13,2152.52 L 3165.84,2152.52 L 3145.94,2156.48 L 3127.2,2164.24 L 3110.33,2175.51 L 3095.99,2189.86 L 3083.75,2207.98 L 3077.67,2213.1 L 3075.45,2215.73 L 2818.42,2472.76 L 2815.18,2474.93 L 2813.3,2475.5 L 2809.4,2475.5 L 2807.52,2474.93 L 2804.28,2472.76 L 2802.11,2469.52 L 2797.46,2447.12 L 2789.7,2428.38 L 2778.42,2411.51 L 2764.08,2397.17 L 2745.07,2384.24 L 2743.83,2382.72 L 2742.34,2379.12 L 2742.15,2377.17 L 2742.91,2373.34 L 2745.07,2370.09 L 2764.08,2357.16 L 2778.42,2342.82 L 2789.7,2325.95 L 2797.46,2307.21 L 2801.42,2287.31 L 2801.42,2267.02 L 2797.46,2247.12 L 2789.7,2228.38 L 2778.42,2211.51 L 2764.08,2197.17 L 2745.07,2184.24 L 2742.91,2180.99 L 2742.15,2177.17 L 2742.91,2173.34 L 2745.07,2170.09 L 2764.08,2157.16 L 2778.42,2142.82 L 2789.7,2125.95 L 2797.46,2107.21 L 2801.42,2087.31 L 2801.42,2067.02 L 2797.46,2047.12 L 2789.7,2028.38 L 2778.42,2011.51 L 2764.08,1997.17 L 2745.07,1984.24 L 2742.91,1980.99 L 2742.15,1977.17 L 2742.91,1973.34 L 2745.07,1970.09 L 2764.08,1957.16 L 2778.42,1942.82 L 2780.69,1939.78 L 2782.2,1938.54 L 2785.81,1937.04 L 3102.22,1936.85 L 3106.04,1937.61 L 3107.77,1938.54 L 3125.33,1950.27 L 3144.79,1958.33 L 3165.45,1962.44 L 3186.52,1962.44 L 3207.17,1958.33 L 3226.63,1950.27 L 3244.15,1938.57 L 3259.04,1923.68 L 3270.74,1906.16 L 3278.8,1886.7 L 3282.91,1866.04 L 3282.91,1844.98 L 3278.8,1824.32 L 3270.74,1804.86 L 3259.04,1787.35 L 3244.15,1772.45 L 3229.72,1762.58 L 3227.55,1759.34 L 3226.79,1755.51 L 3227.55,1751.68 L 3229.72,1748.44 L 3244.15,1738.57 L 3259.04,1723.68 L 3270.74,1706.16 L 3278.8,1686.7 L 3282.91,1666.04 L 3282.91,1644.98 L 3278.8,1624.32 L 3270.74,1604.86 L 3259.04,1587.35 L 3244.15,1572.45 L 3229.72,1562.58 L 3227.55,1559.34 L 3226.79,1555.51 L 3227.55,1551.68 L 3229.72,1548.44 L 3244.15,1538.57 L 3259.04,1523.68 L 3270.74,1506.16 L 3278.8,1486.7 L 3282.91,1466.04 L 3282.91,1444.98 L 3278.8,1424.32 L 3270.74,1404.86 L 3259.04,1387.35 L 3248.06,1376.07 L 3247.11,1374.24 L 3246.57,1372.25 L 3246.43,1370.2 L 3246.73,1368.16 L 3247.43,1366.23 L 3248.51,1364.48 L 3249.93,1362.99 L 3251.63,1361.82 L 3253.52,1361.02 L 3258.29,1359.58 L 3265.24,1355.86 L 3271.33,1350.86 L 3276.33,1344.77 L 3280.05,1337.82 L 3282.33,1330.28 L 3283.15,1321.98 L 3282.94,1282.18 L 3276.27,1275.51 L 3242.91,1275.51 L 3242.91,1322.44 L 3109.06,1322.44 L 3109.06,1275.51 L 3075.7,1275.51 L 3069.03,1282.18 L 3068.82,1321.98 L 3069.63,1330.28 L 3071.92,1337.82 L 3075.64,1344.77 L 3080.63,1350.86 L 3086.73,1355.86 L 3093.68,1359.58 L 3100.34,1361.82 L 3102.04,1362.99 L 3103.46,1364.48 L 3104.54,1366.23 L 3105.24,1368.16 L 3105.53,1370.2 L 3105.4,1372.25 L 3104.85,1374.24 L 3103.91,1376.07 L 3102.61,1377.66 L 3092.93,1387.35 L 3088.99,1392.9 L 3087.47,1394.14 L 3083.87,1395.63 L 3036.73,1395.83 L 3032.9,1395.07 L 3029.66,1392.9 L 3018.98,1377.26 L 3004.63,1362.91 L 3001.59,1360.65 L 2999.42,1357.41 L 2998.66,1353.58 L 2998.66,1340.51 L 2998.95,1337.09 L 2997.8,1325.39 L 2994.39,1314.14 L 2988.84,1303.77 L 2981.38,1294.68 L 2978.76,1292.46 L 2799.34,1112.77 L 2797.85,1109.17 L 2797.65,1107.21 L 2801.42,1087.31 L 2801.42,1067.02 L 2797.46,1047.12 L 2789.7,1028.38 L 2778.42,1011.51 L 2764.08,997.166 L 2746.59,985.48 L 2743.83,982.721 L 2742.91,980.992 L 2742.34,979.116 L 2742.34,975.215 L 2743.83,971.61 L 2745.07,970.094 L 2764.08,957.165 L 2778.42,942.819 L 2789.7,925.952 L 2797.46,907.206 L 2801.42,887.309 L 2801.42,867.022 L 2797.46,847.125 L 2789.7,828.38 L 2778.42,811.512 L 2764.08,797.166 L 2745.52,784.978 L 2743.98,783.696 L 2742.73,782.132 L 2741.81,780.35 L 2741.26,778.421 L 2741.12,776.422 L 2741.37,774.433 L 2742.02,772.535 L 2743.03,770.804 L 2744.36,769.31 L 2759.77,759.835 L 2774.72,746.279 L 2786.74,730.066 L 2795.47,711.595 L 2797.23,705.775 L 2792.5,697.165 L 2757.8,697.166 L 2755.97,702.787 L 2749.39,714.191 L 2740.58,723.978 L 2729.92,731.718 L 2717.89,737.075 L 2705.01,739.812 L 2691.84,739.812 L 2678.96,737.075 L 2666.93,731.718 L 2656.28,723.978 L 2647.46,714.191 L 2640.88,702.787 L 2639.05,697.166 L 2604.35,697.165 L 2599.62,705.775 L 2601.38,711.595 L 2610.11,730.066 L 2622.13,746.278 L 2637.08,759.834 L 2652.49,769.31 L 2653.82,770.804 L 2654.83,772.535 L 2655.48,774.433 L 2655.73,776.422 L 2655.59,778.421 L 2655.04,780.35 L 2654.13,782.132 L 2652.87,783.696 L 2651.33,784.978 L 2632.77,797.166 L 2618.43,811.512 L 2607.15,828.38 L 2599.39,847.124 L 2594.74,869.519 L 2593.82,871.248 L 2591.06,874.007 L 2587.45,875.5 L 2583.55,875.5 L 2581.67,874.931 L 2578.43,872.763 L 2521.4,815.729 L 2519.18,813.103 L 2510.09,805.646 L 2499.72,800.104 L 2488.47,796.69 L 2476.77,795.538 L 2473.35,795.827 L 2163.37,795.635 L 2161.49,795.066 L 2158.25,792.898 L 2155.98,789.859 L 2141.64,775.513 L 2124.77,764.242 L 2106.03,756.478 L 2086.13,752.52 L 2065.84,752.52 L 2045.94,756.478 L 2027.2,764.242 L 2010.33,775.513 L 1995.99,789.858 L 1984.71,806.728 L 1976.95,825.47 L 1972.99,845.368 L 1972.99,865.655 L 1976.95,885.554 L 1984.71,904.297 L 1995.99,921.165 L 2010.33,935.511 L 2027.2,946.782 L 2045.94,954.546 L 2065.84,958.504 L 2086.13,958.504 L 2106.03,954.546 L 2124.77,946.783 L 2141.64,935.511 L 2155.98,921.165 L 2158.25,918.126 L 2159.76,916.882 L 2163.37,915.389 L 2447.91,915.197 L 2451.73,915.958 L 2454.98,918.126 L 2594.3,1057.72 L 2595.22,1059.45 L 2595.98,1063.27 L 2595.43,1067.02 L 2595.43,1087.31 L 2595.98,1091.06 L 2595.79,1093.01 L 2594.3,1096.61 L 2593.05,1098.13 L 2349.4,1341.78 L 2346.78,1344 L 2339.32,1353.09 L 2333.78,1363.46 L 2330.36,1374.71 L 2329.21,1386.41 L 2329.5,1389.83 L 2329.5,2538.17 L 2328.74,2542 L 2326.57,2545.24 L 1615.21,3256.61 L 1611.96,3258.77 L 1608.14,3259.54 L 1604.31,3258.77 L 1601.06,3256.61 L 1598.9,3253.36 L 1597.46,3247.12 L 1589.7,3228.38 L 1578.42,3211.51 L 1564.08,3197.17 L 1545.07,3184.24 L 1542.91,3180.99 L 1542.15,3177.17 L 1542.91,3173.34 L 1545.07,3170.09 L 1564.08,3157.16 L 1578.43,3142.82 L 1589.7,3125.95 L 1597.46,3107.21 L 1601.42,3087.31 L 1601.42,3067.02 L 1597.46,3047.12 L 1589.7,3028.38 L 1578.43,3011.51 L 1564.08,2997.17 L 1545.07,2984.24 L 1542.91,2980.99 L 1542.15,2977.17 L 1542.91,2973.34 L 1545.07,2970.09 L 1564.08,2957.16 L 1578.43,2942.82 L 1589.7,2925.95 L 1597.46,2907.21 L 1601.42,2887.31 L 1601.42,2867.02 L 1597.46,2847.12 L 1589.7,2828.38 L 1578.43,2811.51 L 1564.08,2797.17 L 1545.07,2784.24 L 1542.91,2780.99 L 1542.15,2777.17 L 1542.91,2773.34 L 1545.07,2770.09 L 1564.08,2757.16 L 1578.43,2742.82 L 1589.7,2725.95 L 1597.46,2707.21 L 1601.42,2687.31 L 1601.42,2667.02 L 1597.46,2647.12 L 1589.7,2628.38 L 1578.43,2611.51 L 1564.08,2597.17 L 1545.07,2584.24 L 1542.91,2580.99 L 1542.15,2577.17 L 1542.91,2573.34 L 1545.07,2570.09 L 1564.08,2557.16 L 1578.43,2542.82 L 1589.7,2525.95 L 1597.46,2507.21 L 1601.42,2487.31 L 1601.42,2467.02 L 1597.46,2447.12 L 1589.7,2428.38 L 1578.43,2411.51 L 1564.08,2397.17 L 1545.07,2384.24 L 1542.91,2380.99 L 1542.15,2377.17 L 1542.91,2373.34 L 1545.07,2370.09 L 1564.08,2357.16 L 1578.43,2342.82 L 1589.7,2325.95 L 1597.46,2307.21 L 1601.42,2287.31 L 1601.42,2267.02 L 1597.46,2247.12 L 1589.7,2228.38 L 1578.43,2211.51 L 1564.08,2197.17 L 1545.07,2184.24 L 1542.91,2180.99 L 1542.15,2177.17 L 1542.91,2173.34 L 1545.07,2170.09 L 1564.08,2157.16 L 1578.43,2142.82 L 1589.7,2125.95 L 1597.46,2107.21 L 1601.42,2087.31 L 1601.42,2067.02 L 1597.46,2047.12 L 1589.7,2028.38 L 1578.43,2011.51 L 1564.08,1997.17 L 1545.07,1984.24 L 1542.91,1980.99 L 1542.15,1977.17 L 1542.91,1973.34 L 1545.07,1970.09 L 1564.08,1957.16 L 1578.42,1942.82 L 1589.7,1925.95 L 1597.46,1907.21 L 1601.42,1887.31 L 1601.42,1867.02 L 1597.46,1847.12 L 1589.7,1828.38 L 1578.43,1811.51 L 1564.08,1797.17 L 1545.07,1784.24 L 1543.83,1782.72 L 1542.34,1779.12 L 1542.15,1777.17 L 1542.91,1773.34 L 1543.83,1771.61 L 1546.59,1768.85 L 1564.08,1757.16 L 1578.42,1742.82 L 1580.69,1739.78 L 1582.2,1738.54 L 1583.93,1737.61 L 1587.76,1736.85 L 2009.3,1736.85 L 2011.25,1737.04 L 2014.86,1738.54 L 2027.2,1746.78 L 2045.94,1754.55 L 2065.84,1758.5 L 2086.13,1758.5 L 2106.03,1754.55 L 2124.77,1746.78 L 2141.64,1735.51 L 2155.98,1721.17 L 2167.25,1704.3 L 2175.02,1685.55 L 2178.98,1665.66 L 2178.98,1645.37 L 2175.02,1625.47 L 2167.25,1606.73 L 2155.98,1589.86 L 2141.64,1575.51 L 2124.77,1564.24 L 2106.02,1556.48 L 2086.13,1552.52 L 2065.84,1552.52 L 2045.94,1556.48 L 2027.2,1564.24 L 2010.33,1575.51 L 1995.99,1589.86 L 1984.71,1606.73 L 1982.82,1611.31 L 1980.65,1614.55 L 1977.4,1616.72 L 1973.58,1617.48 L 1587.76,1617.48 L 1585.81,1617.29 L 1582.2,1615.8 L 1580.69,1614.55 L 1578.42,1611.51 L 1564.08,1597.17 L 1545.07,1584.24 L 1543.83,1582.72 L 1542.34,1579.12 L 1542.34,1575.21 L 1543.83,1571.61 L 1546.59,1568.85 L 1564.08,1557.16 L 1578.43,1542.82 L 1589.7,1525.95 L 1597.46,1507.21 L 1601.42,1487.31 L 1601.42,1467.02 L 1597.46,1447.12 L 1589.7,1428.38 L 1578.43,1411.51 L 1564.08,1397.17 L 1545.07,1384.24 L 1543.83,1382.72 L 1542.34,1379.12 L 1542.15,1377.17 L 1542.91,1373.34 L 1545.07,1370.09 L 1564.08,1357.16 L 1578.43,1342.82 L 1589.7,1325.95 L 1597.46,1307.21 L 1601.42,1287.31 L 1601.42,1267.02 L 1597.46,1247.12 L 1589.7,1228.38 L 1578.42,1211.51 L 1564.08,1197.17 L 1545.52,1184.98 L 1543.98,1183.7 L 1542.73,1182.13 L 1541.81,1180.35 L 1541.26,1178.42 L 1541.12,1176.42 L 1541.37,1174.43 L 1542.02,1172.54 L 1543.03,1170.8 L 1544.36,1169.31 L 1559.77,1159.84 L 1574.72,1146.28 L 1586.74,1130.07 L 1595.47,1111.6 L 1597.23,1105.77 L 1592.5,1097.17 L 1557.8,1097.17M 2639.05,657.166 L 2640.88,651.544 L 2647.46,640.14 L 2656.28,630.353 L 2666.93,622.613 L 2678.96,617.256 L 2691.84,614.518 L 2705.01,614.518 L 2717.89,617.256 L 2729.92,622.613 L 2740.58,630.353 L 2749.39,640.14 L 2755.97,651.544 L 2757.8,657.166 L 2792.5,657.165 L 2797.23,648.556 L 2795.47,642.734 L 2786.74,624.265 L 2774.72,608.052 L 2759.77,594.496 L 2744.36,585.021 L 2743.03,583.526 L 2742.02,581.795 L 2741.37,579.898 L 2741.12,577.909 L 2741.26,575.91 L 2741.81,573.981 L 2742.73,572.198 L 2743.98,570.635 L 2745.52,569.353 L 2764.08,557.165 L 2778.42,542.819 L 2789.7,525.951 L 2797.46,507.206 L 2801.42,487.309 L 2801.42,467.021 L 2797.46,447.125 L 2789.7,428.38 L 2778.42,411.512 L 2764.08,397.166 L 2747.21,385.895 L 2728.47,378.131 L 2708.57,374.173 L 2688.28,374.173 L 2668.38,378.131 L 2649.64,385.895 L 2632.77,397.166 L 2618.43,411.512 L 2607.15,428.381 L 2599.39,447.123 L 2595.43,467.022 L 2595.43,487.309 L 2599.39,507.208 L 2607.15,525.95 L 2618.43,542.819 L 2632.77,557.165 L 2651.33,569.353 L 2652.87,570.635 L 2654.13,572.198 L 2655.04,573.981 L 2655.59,575.91 L 2655.73,577.909 L 2655.48,579.898 L 2654.83,581.795 L 2653.82,583.526 L 2652.49,585.021 L 2637.08,594.496 L 2622.13,608.053 L 2610.11,624.265 L 2601.38,642.734 L 2599.62,648.556 L 2604.35,657.165 L 2639.05,657.166 z " style="fill-opacity:1.000000;fill:rgb(130,116,65);stroke:rgb(0,0,0);stroke-width:2"/></g>
<g fill-rule="evenodd"><path d="M 895.67,2715.32 L 895.669,3055.51 L 895.291,3059.35 L 894.171,3063.04 L 892.352,3066.45 L 889.904,3069.43 L 534.901,3424.43 L 537.127,3428.29 L 541.451,3441.6 L 542.913,3455.51 L 541.451,3469.43 L 537.127,3482.73 L 530.131,3494.85 L 520.769,3505.25 L 509.449,3513.47 L 496.666,3519.17 L 482.98,3522.07 L 468.988,3522.07 L 455.302,3519.17 L 442.52,3513.47 L 431.2,3505.25 L 421.837,3494.85 L 414.841,3482.73 L 410.518,3469.43 L 409.055,3455.51 L 410.518,3441.6 L 414.841,3428.29 L 421.837,3416.17 L 431.2,3405.77 L 442.52,3397.55 L 455.302,3391.86 L 468.988,3388.95 L 482.98,3388.95 L 496.666,3391.86 L 507.137,3396.52 L 856.299,3047.36 L 856.299,2715.32 L 844.488,2710.06 L 833.834,2702.32 L 825.023,2692.54 L 818.438,2681.13 L 814.369,2668.61 L 812.992,2655.51 L 814.369,2642.42 L 818.438,2629.89 L 825.023,2618.49 L 833.834,2608.7 L 844.488,2600.96 L 856.519,2595.6 L 869.4,2592.86 L 882.569,2592.86 L 895.45,2595.6 L 907.48,2600.96 L 918.134,2608.7 L 926.946,2618.49 L 933.53,2629.89 L 937.6,2642.42 L 938.976,2655.51 L 937.6,2668.61 L 933.53,2681.13 L 926.946,2692.54 L 918.134,2702.32 L 907.48,2710.06 L 895.67,2715.32 z " style="fill-opacity:1.000000;fill:rgb(33,61,220);stroke:rgb(0,0,0);stroke-width:2"/></g>
<g fill-rule="evenodd"><path d="M 1557.9,1696.85 L 1555.97,1702.79 L 1549.39,1714.19 L 1540.58,1723.98 L 1529.92,1731.72 L 1517.89,1737.07 L 1505.01,1739.81 L 1491.84,1739.81 L 1478.96,1737.07 L 1470.24,1733.19 L 982.598,2220.83 L 979.615,2223.28 L 976.212,2225.1 L 972.519,2226.22 L 968.679,2226.6 L 832.738,2226.6 L 534.901,2524.43 L 537.127,2528.29 L 541.451,2541.6 L 542.913,2555.51 L 541.451,2569.43 L 537.127,2582.73 L 530.131,2594.85 L 520.769,2605.25 L 509.449,2613.47 L 496.666,2619.17 L 482.98,2622.07 L 468.988,2622.07 L 455.302,2619.17 L 442.52,2613.47 L 431.2,2605.25 L 421.837,2594.85 L 414.841,2582.73 L 410.518,2569.43 L 409.055,2555.51 L 410.518,2541.6 L 414.841,2528.29 L 421.837,2516.17 L 431.2,2505.77 L 442.52,2497.55 L 455.302,2491.86 L 468.988,2488.95 L 482.98,2488.95 L 496.666,2491.86 L 507.137,2496.52 L 810.665,2192.99 L 813.648,2190.54 L 817.051,2188.73 L 820.744,2187.61 L 824.584,2187.23 L 960.525,2187.23 L 1442.37,1705.38 L 1440.88,1702.79 L 1436.81,1690.26 L 1435.43,1677.17 L 1436.81,1664.07 L 1440.88,1651.54 L 1447.46,1640.14 L 1456.28,1630.35 L 1466.93,1622.61 L 1478.96,1617.26 L 1491.84,1614.52 L 1505.01,1614.52 L 1517.89,1617.26 L 1529.92,1622.61 L 1540.58,1630.35 L 1549.39,1640.14 L 1555.97,1651.54 L 1557.9,1657.48 L 2013.2,1657.48 L 2012.99,1655.51 L 2014.37,1642.42 L 2018.44,1629.89 L 2025.02,1618.49 L 2033.83,1608.7 L 2044.49,1600.96 L 2056.52,1595.6 L 2069.4,1592.86 L 2082.57,1592.86 L 2095.45,1595.6 L 2107.48,1600.96 L 2118.13,1608.7 L 2126.95,1618.49 L 2133.53,1629.89 L 2137.6,1642.42 L 2138.98,1655.51 L 2137.6,1668.61 L 2133.53,1681.13 L 2126.95,1692.54 L 2118.13,1702.32 L 2107.48,1710.06 L 2095.45,1715.42 L 2082.57,1718.16 L 2069.4,1718.16 L 2056.52,1715.42 L 2044.49,1710.06 L 2033.83,1702.32 L 2028.91,1696.85 L 1557.9,1696.85 z " style="fill-opacity:1.000000;fill:rgb(135,112,233);stroke:rgb(0,0,0);stroke-width:2"/></g>
<g fill-rule="evenodd"><path d="M 2642.37,2705.38 L 2640.88,2702.79 L 2636.81,2690.26 L 2635.43,2677.17 L 2636.81,2664.07 L 2640.88,2651.54 L 2647.46,2640.14 L 2656.28,2630.35 L 2666.93,2622.61 L 2678.96,2617.26 L 2691.84,2614.52 L 2705.01,2614.52 L 2717.89,2617.26 L 2726.61,2621.14 L 3106.16,2241.59 L 3109.14,2239.14 L 3112.55,2237.33 L 3116.39,2236.19 L 3118.44,2229.89 L 3125.02,2218.49 L 3133.83,2208.7 L 3144.49,2200.96 L 3156.52,2195.6 L 3169.4,2192.86 L 3182.57,2192.86 L 3195.45,2195.6 L 3207.48,2200.96 L 3218.13,2208.7 L 3226.95,2218.49 L 3233.53,2229.89 L 3237.6,2242.42 L 3238.98,2255.51 L 3237.6,2268.61 L 3233.53,2281.13 L 3226.95,2292.54 L 3218.13,2302.32 L 3207.48,2310.06 L 3195.45,2315.42 L 3182.57,2318.16 L 3169.4,2318.16 L 3156.52,2315.42 L 3144.49,2310.06 L 3133.83,2302.32 L 3125.02,2292.54 L 3119.85,2283.58 L 2754.48,2648.95 L 2755.97,2651.54 L 2760.04,2664.07 L 2761.42,2677.17 L 2760.04,2690.26 L 2755.97,2702.79 L 2749.39,2714.19 L 2740.58,2723.98 L 2729.92,2731.72 L 2717.89,2737.07 L 2705.01,2739.81 L 2691.84,2739.81 L 2678.96,2737.07 L 2670.24,2733.19 L 1608.01,3795.42 L 1605.03,3797.86 L 1601.63,3799.68 L 1597.93,3800.8 L 1594.09,3801.18 L 361.811,3801.18 L 357.971,3800.8 L 354.278,3799.68 L 350.875,3797.86 L 347.892,3795.42 L 336.08,3783.6 L 333.632,3780.62 L 331.813,3777.22 L 330.693,3773.53 L 330.315,3769.69 L 330.315,3181.5 L 330.693,3177.66 L 331.813,3173.96 L 333.632,3170.56 L 336.08,3167.58 L 417.068,3086.59 L 414.841,3082.73 L 410.518,3069.43 L 409.055,3055.51 L 410.518,3041.6 L 414.841,3028.29 L 421.837,3016.17 L 431.2,3005.77 L 442.52,2997.55 L 455.302,2991.86 L 468.988,2988.95 L 482.98,2988.95 L 496.666,2991.86 L 509.449,2997.55 L 520.769,3005.77 L 530.131,3016.17 L 537.127,3028.29 L 541.451,3041.6 L 542.913,3055.51 L 541.451,3069.43 L 537.127,3082.73 L 530.131,3094.85 L 520.769,3105.25 L 509.449,3113.47 L 496.666,3119.17 L 482.98,3122.07 L 468.988,3122.07 L 455.302,3119.17 L 444.831,3114.5 L 369.685,3189.65 L 369.685,3761.53 L 369.965,3761.81 L 1585.94,3761.81 L 2642.37,2705.38 z " style="fill-opacity:1.000000;fill:rgb(62,161,65);stroke:rgb(0,0,0);stroke-width:2"/></g>
<g fill-rule="evenodd"><path d="M 1442.37,1505.38 L 1440.88,1502.79 L 1436.81,1490.26 L 1435.43,1477.17 L 1436.81,1464.07 L 1440.88,1451.54 L 1447.46,1440.14 L 1456.28,1430.35 L 1466.93,1422.61 L 1478.96,1417.26 L 1491.84,1414.52 L 1505.01,1414.52 L 1517.89,1417.26 L 1529.92,1422.61 L 1540.58,1430.35 L 1549.39,1440.14 L 1555.97,1451.54 L 1560.04,1464.07 L 1561.42,1477.17 L 1560.04,1490.26 L 1555.97,1502.79 L 1549.39,1514.19 L 1540.58,1523.98 L 1529.92,1531.72 L 1517.89,1537.07 L 1505.01,1539.81 L 1491.84,1539.81 L 1478.96,1537.07 L 1470.24,1533.19 L 941.798,2061.63 L 938.815,2064.08 L 935.412,2065.9 L 931.719,2067.02 L 927.879,2067.4 L 775.784,2067.4 L 771.944,2067.02 L 768.251,2065.9 L 764.848,2064.08 L 761.865,2061.63 L 562.065,1861.83 L 559.617,1858.85 L 557.798,1855.44 L 556.677,1851.75 L 556.299,1847.91 L 556.299,1715.32 L 544.488,1710.06 L 533.834,1702.32 L 525.023,1692.54 L 518.438,1681.13 L 514.369,1668.61 L 512.992,1655.51 L 514.369,1642.42 L 518.438,1629.89 L 525.023,1618.49 L 533.834,1608.7 L 544.488,1600.96 L 556.519,1595.6 L 569.4,1592.86 L 582.569,1592.86 L 595.45,1595.6 L 607.48,1600.96 L 618.134,1608.7 L 626.946,1618.49 L 633.53,1629.89 L 637.6,1642.42 L 638.976,1655.51 L 637.6,1668.61 L 633.53,1681.13 L 626.946,1692.54 L 618.134,1702.32 L 607.48,1710.06 L 595.67,1715.32 L 595.669,1839.76 L 783.938,2028.03 L 919.725,2028.03 L 1442.37,1505.38 z " style="fill-opacity:1.000000;fill:rgb(225,252,103);stroke:rgb(0,0,0);stroke-width:2"/></g>
<g fill-rule="evenodd"><path d="M 1451.35,3035.83 L 1456.28,3030.35 L 1466.93,3022.61 L 1478.96,3017.26 L 1491.84,3014.52 L 1505.01,3014.52 L 1517.89,3017.26 L 1529.92,3022.61 L 1540.58,3030.35 L 1549.39,3040.14 L 1555.97,3051.54 L 1560.04,3064.07 L 1561.42,3077.17 L 1560.04,3090.26 L 1555.97,3102.79 L 1549.39,3114.19 L 1540.58,3123.98 L 1529.92,3131.72 L 1517.89,3137.07 L 1505.01,3139.81 L 1491.84,3139.81 L 1478.96,3137.07 L 1466.93,3131.72 L 1456.28,3123.98 L 1447.46,3114.19 L 1440.88,3102.79 L 1436.81,3090.26 L 1435.43,3077.17 L 1435.64,3075.2 L 1239.58,3075.2 L 1237.13,3082.73 L 1230.13,3094.85 L 1220.77,3105.25 L 1209.45,3113.47 L 1196.67,3119.17 L 1182.98,3122.07 L 1168.99,3122.07 L 1155.3,3119.17 L 1142.52,3113.47 L 1131.2,3105.25 L 1121.84,3094.85 L 1114.84,3082.73 L 1110.52,3069.43 L 1109.06,3055.51 L 1110.52,3041.6 L 1114.84,3028.29 L 1121.84,3016.17 L 1131.2,3005.77 L 1142.52,2997.55 L 1155.3,2991.86 L 1168.99,2988.95 L 1182.98,2988.95 L 1196.67,2991.86 L 1209.45,2997.55 L 1220.77,3005.77 L 1230.13,3016.17 L 1237.13,3028.29 L 1239.58,3035.83 L 1451.35,3035.83 z " style="fill-opacity:1.000000;fill:rgb(62,1,126);stroke:rgb(0,0,0);stroke-width:2"/></g>
<g fill-rule="evenodd"><path d="M 1451.35,3235.83 L 1456.28,3230.35 L 1466.93,3222.61 L 1478.96,3217.26 L 1491.84,3214.52 L 1505.01,3214.52 L 1517.89,3217.26 L 1529.92,3222.61 L 1540.58,3230.35 L 1549.39,3240.14 L 1555.97,3251.54 L 1560.04,3264.07 L 1561.42,3277.17 L 1560.04,3290.26 L 1555.97,3302.79 L 1549.39,3314.19 L 1540.58,3323.98 L 1529.92,3331.72 L 1517.89,3337.07 L 1505.01,3339.81 L 1491.84,3339.81 L 1478.96,3337.07 L 1466.93,3331.72 L 1456.28,3323.98 L 1447.46,3314.19 L 1440.88,3302.79 L 1436.81,3290.26 L 1435.43,3277.17 L 1435.64,3275.2 L 1239.58,3275.2 L 1237.13,3282.73 L 1230.13,3294.85 L 1220.77,3305.25 L 1209.45,3313.47 L 1196.67,3319.17 L 1182.98,3322.07 L 1168.99,3322.07 L 1155.3,3319.17 L 1142.52,3313.47 L 1131.2,3305.25 L 1121.84,3294.85 L 1114.84,3282.73 L 1110.52,3269.43 L 1109.06,3255.51 L 1110.52,3241.6 L 1114.84,3228.29 L 1121.84,3216.17 L 1131.2,3205.77 L 1142.52,3197.55 L 1155.3,3191.86 L 1168.99,3188.95 L 1182.98,3188.95 L 1196.67,3191.86 L 1209.45,3197.55 L 1220.77,3205.77 L 1230.13,3216.17 L 1237.13,3228.29 L 1239.58,3235.83 L 1451.35,3235.83 z " style="fill-opacity:1.000000;fill:rgb(151,234,220);stroke:rgb(0,0,0);stroke-width:2"/></g>
<g fill-rule="evenodd"><path d="M 908.275,875.197 L 635.459,875.197 L 633.53,881.133 L 626.946,892.538 L 618.134,902.324 L 607.48,910.065 L 595.45,915.421 L 582.569,918.159 L 569.4,918.159 L 556.519,915.421 L 544.488,910.065 L 533.834,902.324 L 525.023,892.538 L 518.438,881.133 L 514.369,868.609 L 512.992,855.512 L 514.369,842.415 L 518.438,829.891 L 525.023,818.486 L 533.834,808.7 L 544.488,800.959 L 556.519,795.603 L 569.4,792.865 L 582.569,792.865 L 595.45,795.603 L 607.48,800.959 L 618.134,808.7 L 626.946,818.486 L 633.53,829.891 L 635.459,835.827 L 908.275,835.827 L 911.245,826.688 L 918.652,813.858 L 928.566,802.848 L 940.551,794.14 L 954.085,788.114 L 968.577,785.034 L 983.392,785.034 L 997.883,788.114 L 1011.42,794.14 L 1023.4,802.848 L 1033.32,813.858 L 1040.72,826.688 L 1045.3,840.778 L 1046.85,855.512 L 1045.3,870.246 L 1040.72,884.336 L 1033.32,897.166 L 1023.4,908.176 L 1011.42,916.884 L 997.883,922.91 L 983.392,925.99 L 968.577,925.99 L 954.085,922.91 L 940.551,916.884 L 928.566,908.176 L 918.652,897.166 L 911.245,884.336 L 908.275,875.197 z " style="fill-opacity:1.000000;fill:rgb(107,150,143);stroke:rgb(0,0,0);stroke-width:2"/></g>
<g fill-rule="evenodd"><path d="M 1446.61,1312.72 L 932.035,1827.3 L 933.53,1829.89 L 937.6,1842.42 L 938.976,1855.51 L 937.6,1868.61 L 933.53,1881.13 L 926.946,1892.54 L 918.134,1902.32 L 907.48,1910.06 L 895.45,1915.42 L 882.569,1918.16 L 869.4,1918.16 L 856.519,1915.42 L 844.488,1910.06 L 833.834,1902.32 L 825.023,1892.54 L 818.438,1881.13 L 814.369,1868.61 L 812.992,1855.51 L 814.369,1842.42 L 818.438,1829.89 L 825.023,1818.49 L 833.834,1808.7 L 844.488,1800.96 L 856.519,1795.6 L 869.4,1792.86 L 882.569,1792.86 L 895.45,1795.6 L 904.171,1799.49 L 1436.48,1267.17 L 1436.81,1264.07 L 1440.88,1251.54 L 1447.46,1240.14 L 1456.28,1230.35 L 1466.93,1222.61 L 1478.96,1217.26 L 1491.84,1214.52 L 1505.01,1214.52 L 1517.89,1217.26 L 1529.92,1222.61 L 1540.58,1230.35 L 1549.39,1240.14 L 1555.97,1251.54 L 1560.04,1264.07 L 1561.42,1277.17 L 1560.04,1290.26 L 1555.97,1302.79 L 1549.39,1314.19 L 1540.58,1323.98 L 1529.92,1331.72 L 1517.89,1337.07 L 1505.01,1339.81 L 1491.84,1339.81 L 1478.96,1337.07 L 1466.93,1331.72 L 1456.28,1323.98 L 1447.46,1314.19 L 1446.61,1312.72 z " style="fill-opacity:1.000000;fill:rgb(56,92,42);stroke:rgb(0,0,0);stroke-width:2"/></g>
<g fill-rule="evenodd"><path d="M 2757.9,3096.85 L 2755.97,3102.79 L 2749.39,3114.19 L 2740.58,3123.98 L 2729.92,3131.72 L 2717.89,3137.07 L 2705.01,3139.81 L 2691.84,3139.81 L 2678.96,3137.07 L 2666.93,3131.72 L 2656.28,3123.98 L 2647.46,3114.19 L 2640.88,3102.79 L 2636.81,3090.26 L 2635.43,3077.17 L 2636.81,3064.07 L 2640.88,3051.54 L 2647.46,3040.14 L 2656.28,3030.35 L 2666.93,3022.61 L 2678.96,3017.26 L 2691.84,3014.52 L 2705.01,3014.52 L 2717.89,3017.26 L 2729.92,3022.61 L 2740.58,3030.35 L 2749.39,3040.14 L 2755.97,3051.54 L 2757.9,3057.48 L 3113.2,3057.48 L 3112.99,3055.51 L 3114.37,3042.42 L 3118.44,3029.89 L 3125.02,3018.49 L 3133.83,3008.7 L 3144.49,3000.96 L 3156.52,2995.6 L 3169.4,2992.86 L 3182.57,2992.86 L 3195.45,2995.6 L 3207.48,3000.96 L 3218.13,3008.7 L 3226.95,3018.49 L 3233.53,3029.89 L 3237.6,3042.42 L 3238.98,3055.51 L 3237.6,3068.61 L 3233.53,3081.13 L 3226.95,3092.54 L 3218.13,3102.32 L 3207.48,3110.06 L 3195.45,3115.42 L 3182.57,3118.16 L 3169.4,3118.16 L 3156.52,3115.42 L 3144.49,3110.06 L 3133.83,3102.32 L 3128.91,3096.85 L 2757.9,3096.85 z " style="fill-opacity:1.000000;fill:rgb(236,176,59);stroke:rgb(0,0,0);stroke-width:2"/></g>
<g fill-rule="evenodd"><path d="M 2642.37,1105.38 L 2640.88,1102.79 L 2636.81,1090.26 L 2635.43,1077.17 L 2636.81,1064.07 L 2640.88,1051.54 L 2642.37,1048.95 L 2468.62,875.197 L 2135.46,875.197 L 2133.53,881.133 L 2126.95,892.538 L 2118.13,902.324 L 2107.48,910.065 L 2095.45,915.421 L 2082.57,918.159 L 2069.4,918.159 L 2056.52,915.421 L 2044.49,910.065 L 2033.83,902.324 L 2025.02,892.538 L 2018.44,881.133 L 2014.37,868.609 L 2012.99,855.512 L 2014.37,842.415 L 2018.44,829.891 L 2025.02,818.486 L 2033.83,808.7 L 2044.49,800.959 L 2056.52,795.603 L 2069.4,792.865 L 2082.57,792.865 L 2095.45,795.603 L 2107.48,800.959 L 2118.13,808.7 L 2126.95,818.486 L 2133.53,829.891 L 2135.46,835.827 L 2476.77,835.827 L 2480.61,836.205 L 2484.3,837.325 L 2487.71,839.144 L 2490.69,841.592 L 2670.24,1021.14 L 2678.96,1017.26 L 2691.84,1014.52 L 2705.01,1014.52 L 2717.89,1017.26 L 2729.92,1022.61 L 2740.58,1030.35 L 2749.39,1040.14 L 2755.97,1051.54 L 2760.04,1064.07 L 2761.42,1077.17 L 2760.04,1090.26 L 2755.97,1102.79 L 2749.39,1114.19 L 2746.8,1117.07 L 2952.9,1323.17 L 2955.34,1326.15 L 2957.16,1329.55 L 2958.28,1333.25 L 2958.66,1337.09 L 2958.66,1383.1 L 2970.47,1388.36 L 2981.13,1396.1 L 2989.94,1405.89 L 2996.52,1417.29 L 3000.59,1429.82 L 3001.22,1435.83 L 3112.39,1435.83 L 3114.84,1428.29 L 3121.84,1416.17 L 3131.2,1405.77 L 3142.52,1397.55 L 3155.3,1391.86 L 3168.99,1388.95 L 3182.98,1388.95 L 3196.67,1391.86 L 3209.45,1397.55 L 3220.77,1405.77 L 3230.13,1416.17 L 3237.13,1428.29 L 3241.45,1441.6 L 3242.91,1455.51 L 3241.45,1469.43 L 3237.13,1482.73 L 3230.13,1494.85 L 3220.77,1505.25 L 3209.45,1513.47 L 3196.67,1519.17 L 3182.98,1522.07 L 3168.99,1522.07 L 3155.3,1519.17 L 3142.52,1513.47 L 3131.2,1505.25 L 3121.84,1494.85 L 3114.84,1482.73 L 3112.39,1475.2 L 2992.68,1475.2 L 2989.94,1479.94 L 2981.13,1489.73 L 2970.47,1497.47 L 2958.44,1502.82 L 2945.56,1505.56 L 2932.39,1505.56 L 2919.51,1502.82 L 2907.48,1497.47 L 2896.83,1489.73 L 2888.01,1479.94 L 2881.43,1468.53 L 2877.36,1456.01 L 2875.98,1442.91 L 2877.36,1429.82 L 2881.43,1417.29 L 2888.01,1405.89 L 2896.83,1396.1 L 2907.48,1388.36 L 2919.29,1383.1 L 2919.29,1345.24 L 2712.31,1138.26 L 2705.01,1139.81 L 2691.84,1139.81 L 2678.96,1137.07 L 2670.24,1133.19 L 2408.87,1394.56 L 2408.87,2567.04 L 2408.49,2570.88 L 2407.37,2574.57 L 2405.55,2577.97 L 2403.1,2580.96 L 1514.63,3469.43 L 1511.65,3471.88 L 1508.24,3473.7 L 1504.55,3474.82 L 1500.71,3475.2 L 1239.58,3475.2 L 1237.13,3482.73 L 1230.13,3494.85 L 1220.77,3505.25 L 1209.45,3513.47 L 1196.67,3519.17 L 1182.98,3522.07 L 1168.99,3522.07 L 1155.3,3519.17 L 1142.52,3513.47 L 1131.2,3505.25 L 1121.84,3494.85 L 1114.84,3482.73 L 1110.52,3469.43 L 1109.06,3455.51 L 1110.52,3441.6 L 1114.84,3428.29 L 1122.08,3415.9 L 1036.08,3329.9 L 1033.63,3326.92 L 1031.81,3323.52 L 1030.69,3319.82 L 1030.31,3315.98 L 1030.31,3195.04 L 1031.04,3190.05 L 1031.04,3075.88 L 1030.31,3070.9 L 1030.31,2995.04 L 1030.69,2991.2 L 1031.81,2987.51 L 1033.63,2984.1 L 1036.08,2981.12 L 1129.3,2887.9 L 1129.3,2504.38 L 1033.97,2409.06 L 832.879,2409.06 L 546.518,2695.42 L 543.535,2697.86 L 540.132,2699.68 L 536.439,2700.8 L 532.598,2701.18 L 415.512,2701.18 L 411.671,2700.8 L 407.979,2699.68 L 404.575,2697.86 L 401.592,2695.42 L 336.08,2629.9 L 333.632,2626.92 L 331.813,2623.52 L 330.693,2619.82 L 330.315,2615.98 L 330.315,2529.02 L 323.781,2535.55 L 324.803,2545.28 L 323.427,2558.37 L 319.357,2570.9 L 312.773,2582.3 L 303.961,2592.09 L 293.307,2599.83 L 281.277,2605.18 L 268.395,2607.92 L 255.227,2607.92 L 242.345,2605.18 L 230.315,2599.83 L 219.661,2592.09 L 210.849,2582.3 L 204.265,2570.9 L 200.195,2558.37 L 198.819,2545.28 L 200.195,2532.18 L 204.265,2519.65 L 210.849,2508.25 L 219.661,2498.46 L 230.315,2490.72 L 242.345,2485.37 L 255.227,2482.63 L 268.395,2482.63 L 281.277,2485.37 L 293.307,2490.72 L 304.545,2499.11 L 417.067,2386.59 L 414.841,2382.73 L 410.518,2369.43 L 409.055,2355.51 L 410.518,2341.6 L 414.841,2328.29 L 421.837,2316.17 L 431.2,2305.77 L 442.52,2297.55 L 455.302,2291.86 L 468.988,2288.95 L 482.98,2288.95 L 496.666,2291.86 L 509.449,2297.55 L 520.769,2305.77 L 530.131,2316.17 L 537.127,2328.29 L 541.451,2341.6 L 542.913,2355.51 L 541.451,2369.43 L 537.127,2382.73 L 530.131,2394.85 L 520.769,2405.25 L 509.449,2413.47 L 496.666,2419.17 L 482.98,2422.07 L 468.988,2422.07 L 455.302,2419.17 L 444.832,2414.5 L 369.685,2489.65 L 369.685,2607.83 L 423.666,2661.81 L 524.445,2661.81 L 810.805,2375.45 L 813.788,2373 L 817.191,2371.18 L 820.884,2370.06 L 824.724,2369.69 L 1042.13,2369.69 L 1045.97,2370.06 L 1049.66,2371.18 L 1053.06,2373 L 1056.05,2375.45 L 1162.9,2482.31 L 1165.35,2485.29 L 1167.17,2488.7 L 1168.29,2492.39 L 1168.67,2496.23 L 1168.67,2896.05 L 1168.29,2899.9 L 1167.17,2903.59 L 1165.35,2906.99 L 1162.9,2909.97 L 1069.68,3003.19 L 1069.68,3066.64 L 1070.41,3071.62 L 1070.41,3194.31 L 1069.68,3199.3 L 1069.68,3307.83 L 1154.2,3392.35 L 1155.3,3391.86 L 1168.99,3388.95 L 1182.98,3388.95 L 1196.67,3391.86 L 1209.45,3397.55 L 1220.77,3405.77 L 1230.13,3416.17 L 1237.13,3428.29 L 1239.58,3435.83 L 1492.56,3435.83 L 2369.5,2558.88 L 2369.5,1386.41 L 2369.88,1382.57 L 2371,1378.87 L 2372.82,1375.47 L 2375.26,1372.49 L 2642.37,1105.38 z " style="fill-opacity:1.000000;fill:rgb(251,50,175);stroke:rgb(0,0,0);stroke-width:2"/></g>
<g fill-rule="evenodd"><path d="M 2757.9,1896.85 L 2755.97,1902.79 L 2749.39,1914.19 L 2740.58,1923.98 L 2729.92,1931.72 L 2717.89,1937.07 L 2705.01,1939.81 L 2691.84,1939.81 L 2678.96,1937.07 L 2666.93,1931.72 L 2656.28,1923.98 L 2647.46,1914.19 L 2640.88,1902.79 L 2636.81,1890.26 L 2635.43,1877.17 L 2636.81,1864.07 L 2640.88,1851.54 L 2647.46,1840.14 L 2656.28,1830.35 L 2666.93,1822.61 L 2678.96,1817.26 L 2691.84,1814.52 L 2705.01,1814.52 L 2717.89,1817.26 L 2729.92,1822.61 L 2740.58,1830.35 L 2749.39,1840.14 L 2755.97,1851.54 L 2757.9,1857.48 L 3109.26,1857.48 L 3109.06,1855.51 L 3110.52,1841.6 L 3114.84,1828.29 L 3121.84,1816.17 L 3131.2,1805.77 L 3142.52,1797.55 L 3155.3,1791.86 L 3168.99,1788.95 L 3182.98,1788.95 L 3196.67,1791.86 L 3209.45,1797.55 L 3220.77,1805.77 L 3230.13,1816.17 L 3237.13,1828.29 L 3241.45,1841.6 L 3242.91,1855.51 L 3241.45,1869.43 L 3237.13,1882.73 L 3230.13,1894.85 L 3220.77,1905.25 L 3209.45,1913.47 L 3196.67,1919.17 L 3182.98,1922.07 L 3168.99,1922.07 L 3155.3,1919.17 L 3142.52,1913.47 L 3131.2,1905.25 L 3123.64,1896.85 L 2757.9,1896.85 z " style="fill-opacity:1.000000;fill:rgb(60,84,236);stroke:rgb(0,0,0);stroke-width:2"/></g>
<g fill-rule="evenodd"><path d="M 2761.21,1675.2 L 2761.42,1677.17 L 2760.04,1690.26 L 2755.97,1702.79 L 2749.39,1714.19 L 2740.58,1723.98 L 2729.92,1731.72 L 2717.89,1737.07 L 2705.01,1739.81 L 2691.84,1739.81 L 2678.96,1737.07 L 2666.93,1731.72 L 2656.28,1723.98 L 2647.46,1714.19 L 2640.88,1702.79 L 2636.81,1690.26 L 2635.43,1677.17 L 2636.81,1664.07 L 2640.88,1651.54 L 2647.46,1640.14 L 2656.28,1630.35 L 2666.93,1622.61 L 2678.96,1617.26 L 2691.84,1614.52 L 2705.01,1614.52 L 2717.89,1617.26 L 2729.92,1622.61 L 2740.58,1630.35 L 2745.5,1635.83 L 3112.39,1635.83 L 3114.84,1628.29 L 3121.84,1616.17 L 3131.2,1605.77 L 3142.52,1597.55 L 3155.3,1591.86 L 3168.99,1588.95 L 3182.98,1588.95 L 3196.67,1591.86 L 3209.45,1597.55 L 3220.77,1605.77 L 3230.13,1616.17 L 3237.13,1628.29 L 3241.45,1641.6 L 3242.91,1655.51 L 3241.45,1669.43 L 3237.13,1682.73 L 3230.13,1694.85 L 3220.77,1705.25 L 3209.45,1713.47 L 3196.67,1719.17 L 3182.98,1722.07 L 3168.99,1722.07 L 3155.3,1719.17 L 3142.52,1713.47 L 3131.2,1705.25 L 3121.84,1694.85 L 3114.84,1682.73 L 3112.39,1675.2 L 2761.21,1675.2 z " style="fill-opacity:1.000000;fill:rgb(24,219,92);stroke:rgb(0,0,0);stroke-width:2"/></g>
</svg>
