<?xml version="1.0" standalone="no"?>
<!DOCTYPE svg PUBLIC "-//W3C//DTD SVG 1.1//EN"
"http://www.w3.org/Graphics/SVG/1.1/DTD/svg11.dtd">
<svg width="168.756" height="191.433" viewBox="0 0 3515.75 3988.19" version="1.1"
xmlns="http://www.w3.org/2000/svg"
xmlns:xlink="http://www.w3.org/1999/xlink">
<g fill-rule="evenodd"><path d="M 1435.43,540.158 L 1435.43,414.173 L 1561.42,414.173 L 1561.42,540.158 L 1435.43,540.158 z " style="fill-opacity:1.000000;fill:rgb(103,198,105);stroke:rgb(0,0,0);stroke-width:2"/></g>
<g fill-rule="evenodd"><path d="M 1561.42,677.165 L 1560.04,690.262 L 1555.97,702.787 L 1549.39,714.191 L 1540.58,723.978 L 1529.92,731.718 L 1517.89,737.075 L 1505.01,739.812 L 1491.84,739.812 L 1478.96,737.075 L 1466.93,731.718 L 1456.28,723.978 L 1447.46,714.191 L 1440.88,702.787 L 1436.81,690.262 L 1435.43,677.165 L 1436.81,664.069 L 1440.88,651.544 L 1447.46,640.14 L 1456.28,630.353 L 1466.93,622.613 L 1478.96,617.256 L 1491.84,614.518 L 1505.01,614.518 L 1517.89,617.256 L 1529.92,622.613 L 1540.58,630.353 L 1549.39,640.14 L 1555.97,651.544 L 1560.04,664.069 L 1561.42,677.165 z " style="fill-opacity:1.000000;fill:rgb(115,81,255);stroke:rgb(0,0,0);stroke-width:2"/></g>
<g fill-rule="evenodd"><path d="M 2761.42,2877.17 L 2760.04,2890.26 L 2755.97,2902.79 L 2749.39,2914.19 L 2740.58,2923.98 L 2729.92,2931.72 L 2717.89,2937.07 L 2705.01,2939.81 L 2691.84,2939.81 L 2678.96,2937.07 L 2666.93,2931.72 L 2656.28,2923.98 L 2647.46,2914.19 L 2640.88,2902.79 L 2636.81,2890.26 L 2635.43,2877.17 L 2636.81,2864.07 L 2640.88,2851.54 L 2647.46,2840.14 L 2656.28,2830.35 L 2666.93,2822.61 L 2678.96,2817.26 L 2691.84,2814.52 L 2705.01,2814.52 L 2717.89,2817.26 L 2729.92,2822.61 L 2740.58,2830.35 L 2749.39,2840.14 L 2755.97,2851.54 L 2760.04,2864.07 L 2761.42,2877.17 z " style="fill-opacity:1.000000;fill:rgb(74,236,41);stroke:rgb(0,0,0);stroke-width:2"/></g>
<g fill-rule="evenodd"><path d="M 1561.42,877.165 L 1560.04,890.262 L 1555.97,902.787 L 1549.39,914.191 L 1540.58,923.978 L 1529.92,931.718 L 1517.89,937.075 L 1505.01,939.812 L 1491.84,939.812 L 1478.96,937.075 L 1466.93,931.718 L 1456.28,923.978 L 1447.46,914.191 L 1440.88,902.787 L 1436.81,890.262 L 1435.43,877.165 L 1436.81,864.069 L 1440.88,851.544 L 1447.46,840.14 L 1456.28,830.353 L 1466.93,822.613 L 1478.96,817.256 L 1491.84,814.518 L 1505.01,814.518 L 1517.89,817.256 L 1529.92,822.613 L 1540.58,830.353 L 1549.39,840.14 L 1555.97,851.544 L 1560.04,864.069 L 1561.42,877.165 z " style="fill-opacity:1.000000;fill:rgb(205,186,171);stroke:rgb(0,0,0);stroke-width:2"/></g>
<g fill-rule="evenodd"><path d="M 1561.42,1077.17 L 1560.04,1090.26 L 1555.97,1102.79 L 1549.39,1114.19 L 1540.58,1123.98 L 1529.92,1131.72 L 1517.89,1137.07 L 1505.01,1139.81 L 1491.84,1139.81 L 1478.96,1137.07 L 1466.93,1131.72 L 1456.28,1123.98 L 1447.46,1114.19 L 1440.88,1102.79 L 1436.81,1090.26 L 1435.43,1077.17 L 1436.81,1064.07 L 1440.88,1051.54 L 1447.46,1040.14 L 1456.28,1030.35 L 1466.93,1022.61 L 1478.96,1017.26 L 1491.84,1014.52 L 1505.01,1014.52 L 1517.89,1017.26 L 1529.92,1022.61 L 1540.58,1030.35 L 1549.39,1040.14 L 1555.97,1051.54 L 1560.04,1064.07 L 1561.42,1077.17 z " style="fill-opacity:1.000000;fill:rgb(242,251,227);stroke:rgb(0,0,0);stroke-width:2"/></g>
<g fill-rule="evenodd"><path d="M 2761.42,2477.17 L 2760.04,2490.26 L 2755.97,2502.79 L 2749.39,2514.19 L 2740.58,2523.98 L 2729.92,2531.72 L 2717.89,2537.07 L 2705.01,2539.81 L 2691.84,2539.81 L 2678.96,2537.07 L 2666.93,2531.72 L 2656.28,2523.98 L 2647.46,2514.19 L 2640.88,2502.79 L 2636.81,2490.26 L 2635.43,2477.17 L 2636.81,2464.07 L 2640.88,2451.54 L 2647.46,2440.14 L 2656.28,2430.35 L 2666.93,2422.61 L 2678.96,2417.26 L 2691.84,2414.52 L 2705.01,2414.52 L 2717.89,2417.26 L 2729.92,2422.61 L 2740.58,2430.35 L 2749.39,2440.14 L 2755.97,2451.54 L 2760.04,2464.07 L 2761.42,2477.17 z " style="fill-opacity:1.000000;fill:rgb(70,124,194);stroke:rgb(0,0,0);stroke-width:2"/></g>
<g fill-rule="evenodd"><path d="M 2761.42,2277.17 L 2760.04,2290.26 L 2755.97,2302.79 L 2749.39,2314.19 L 2740.58,2323.98 L 2729.92,2331.72 L 2717.89,2337.07 L 2705.01,2339.81 L 2691.84,2339.81 L 2678.96,2337.07 L 2666.93,2331.72 L 2656.28,2323.98 L 2647.46,2314.19 L 2640.88,2302.79 L 2636.81,2290.26 L 2635.43,2277.17 L 2636.81,2264.07 L 2640.88,2251.54 L 2647.46,2240.14 L 2656.28,2230.35 L 2666.93,2222.61 L 2678.96,2217.26 L 2691.84,2214.52 L 2705.01,2214.52 L 2717.89,2217.26 L 2729.92,2222.61 L 2740.58,2230.35 L 2749.39,2240.14 L 2755.97,2251.54 L 2760.04,2264.07 L 2761.42,2277.17 z " style="fill-opacity:1.000000;fill:rgb(84,248,27);stroke:rgb(0,0,0);stroke-width:2"/></g>
<g fill-rule="evenodd"><path d="M 2761.42,2077.17 L 2760.04,2090.26 L 2755.97,2102.79 L 2749.39,2114.19 L 2740.58,2123.98 L 2729.92,2131.72 L 2717.89,2137.07 L 2705.01,2139.81 L 2691.84,2139.81 L 2678.96,2137.07 L 2666.93,2131.72 L 2656.28,2123.98 L 2647.46,2114.19 L 2640.88,2102.79 L 2636.81,2090.26 L 2635.43,2077.17 L 2636.81,2064.07 L 2640.88,2051.54 L 2647.46,2040.14 L 2656.28,2030.35 L 2666.93,2022.61 L 2678.96,2017.26 L 2691.84,2014.52 L 2705.01,2014.52 L 2717.89,2017.26 L 2729.92,2022.61 L 2740.58,2030.35 L 2749.39,2040.14 L 2755.97,2051.54 L 2760.04,2064.07 L 2761.42,2077.17 z " style="fill-opacity:1.000000;fill:rgb(232,231,141);stroke:rgb(0,0,0);stroke-width:2"/></g>
<g fill-rule="evenodd"><path d="M 1561.42,1877.17 L 1560.04,1890.26 L 1555.97,1902.79 L 1549.39,1914.19 L 1540.58,1923.98 L 1529.92,1931.72 L 1517.89,1937.07 L 1505.01,1939.81 L 1491.84,1939.81 L 1478.96,1937.07 L 1466.93,1931.72 L 1456.28,1923.98 L 1447.46,1914.19 L 1440.88,1902.79 L 1436.81,1890.26 L 1435.43,1877.17 L 1436.81,1864.07 L 1440.88,1851.54 L 1447.46,1840.14 L 1456.28,1830.35 L 1466.93,1822.61 L 1478.96,1817.26 L 1491.84,1814.52 L 1505.01,1814.52 L 1517.89,1817.26 L 1529.92,1822.61 L 1540.58,1830.35 L 1549.39,1840.14 L 1555.97,1851.54 L 1560.04,1864.07 L 1561.42,1877.17 z " style="fill-opacity:1.000000;fill:rgb(118,90,46);stroke:rgb(0,0,0);stroke-width:2"/></g>
<g fill-rule="evenodd"><path d="M 1561.42,2077.17 L 1560.04,2090.26 L 1555.97,2102.79 L 1549.39,2114.19 L 1540.58,2123.98 L 1529.92,2131.72 L 1517.89,2137.07 L 1505.01,2139.81 L 1491.84,2139.81 L 1478.96,2137.07 L 1466.93,2131.72 L 1456.28,2123.98 L 1447.46,2114.19 L 1440.88,2102.79 L 1436.81,2090.26 L 1435.43,2077.17 L 1436.81,2064.07 L 1440.88,2051.54 L 1447.46,2040.14 L 1456.28,2030.35 L 1466.93,2022.61 L 1478.96,2017.26 L 1491.84,2014.52 L 1505.01,2014.52 L 1517.89,2017.26 L 1529.92,2022.61 L 1540.58,2030.35 L 1549.39,2040.14 L 1555.97,2051.54 L 1560.04,2064.07 L 1561.42,2077.17 z " style="fill-opacity:1.000000;fill:rgb(99,51,159);stroke:rgb(0,0,0);stroke-width:2"/></g>
<g fill-rule="evenodd"><path d="M 2761.42,1477.17 L 2760.04,1490.26 L 2755.97,1502.79 L 2749.39,1514.19 L 2740.58,1523.98 L 2729.92,1531.72 L 2717.89,1537.07 L 2705.01,1539.81 L 2691.84,1539.81 L 2678.96,1537.07 L 2666.93,1531.72 L 2656.28,1523.98 L 2647.46,1514.19 L 2640.88,1502.79 L 2636.81,1490.26 L 2635.43,1477.17 L 2636.81,1464.07 L 2640.88,1451.54 L 2647.46,1440.14 L 2656.28,1430.35 L 2666.93,1422.61 L 2678.96,1417.26 L 2691.84,1414.52 L 2705.01,1414.52 L 2717.89,1417.26 L 2729.92,1422.61 L 2740.58,1430.35 L 2749.39,1440.14 L 2755.97,1451.54 L 2760.04,1464.07 L 2761.42,1477.17 z " style="fill-opacity:1.000000;fill:rgb(201,154,102);stroke:rgb(0,0,0);stroke-width:2"/></g>
<g fill-rule="evenodd"><path d="M 1561.42,2277.17 L 1560.04,2290.26 L 1555.97,2302.79 L 1549.39,2314.19 L 1540.58,2323.98 L 1529.92,2331.72 L 1517.89,2337.07 L 1505.01,2339.81 L 1491.84,2339.81 L 1478.96,2337.07 L 1466.93,2331.72 L 1456.28,2323.98 L 1447.46,2314.19 L 1440.88,2302.79 L 1436.81,2290.26 L 1435.43,2277.17 L 1436.81,2264.07 L 1440.88,2251.54 L 1447.46,2240.14 L 1456.28,2230.35 L 1466.93,2222.61 L 1478.96,2217.26 L 1491.84,2214.52 L 1505.01,2214.52 L 1517.89,2217.26 L 1529.92,2222.61 L 1540.58,2230.35 L 1549.39,2240.14 L 1555.97,2251.54 L 1560.04,2264.07 L 1561.42,2277.17 z " style="fill-opacity:1.000000;fill:rgb(50,13,183);stroke:rgb(0,0,0);stroke-width:2"/></g>
<g fill-rule="evenodd"><path d="M 2761.42,1277.17 L 2760.04,1290.26 L 2755.97,1302.79 L 2749.39,1314.19 L 2740.58,1323.98 L 2729.92,1331.72 L 2717.89,1337.07 L 2705.01,1339.81 L 2691.84,1339.81 L 2678.96,1337.07 L 2666.93,1331.72 L 2656.28,1323.98 L 2647.46,1314.19 L 2640.88,1302.79 L 2636.81,1290.26 L 2635.43,1277.17 L 2636.81,1264.07 L 2640.88,1251.54 L 2647.46,1240.14 L 2656.28,1230.35 L 2666.93,1222.61 L 2678.96,1217.26 L 2691.84,1214.52 L 2705.01,1214.52 L 2717.89,1217.26 L 2729.92,1222.61 L 2740.58,1230.35 L 2749.39,1240.14 L 2755.97,1251.54 L 2760.04,1264.07 L 2761.42,1277.17 z " style="fill-opacity:1.000000;fill:rgb(49,88,163);stroke:rgb(0,0,0);stroke-width:2"/></g>
<g fill-rule="evenodd"><path d="M 1561.42,2477.17 L 1560.04,2490.26 L 1555.97,2502.79 L 1549.39,2514.19 L 1540.58,2523.98 L 1529.92,2531.72 L 1517.89,2537.07 L 1505.01,2539.81 L 1491.84,2539.81 L 1478.96,2537.07 L 1466.93,2531.72 L 1456.28,2523.98 L 1447.46,2514.19 L 1440.88,2502.79 L 1436.81,2490.26 L 1435.43,2477.17 L 1436.81,2464.07 L 1440.88,2451.54 L 1447.46,2440.14 L 1456.28,2430.35 L 1466.93,2422.61 L 1478.96,2417.26 L 1491.84,2414.52 L 1505.01,2414.52 L 1517.89,2417.26 L 1529.92,2422.61 L 1540.58,2430.35 L 1549.39,2440.14 L 1555.97,2451.54 L 1560.04,2464.07 L 1561.42,2477.17 z " style="fill-opacity:1.000000;fill:rgb(90,37,93);stroke:rgb(0,0,0);stroke-width:2"/></g>
<g fill-rule="evenodd"><path d="M 1561.42,2677.17 L 1560.04,2690.26 L 1555.97,2702.79 L 1549.39,2714.19 L 1540.58,2723.98 L 1529.92,2731.72 L 1517.89,2737.07 L 1505.01,2739.81 L 1491.84,2739.81 L 1478.96,2737.07 L 1466.93,2731.72 L 1456.28,2723.98 L 1447.46,2714.19 L 1440.88,2702.79 L 1436.81,2690.26 L 1435.43,2677.17 L 1436.81,2664.07 L 1440.88,2651.54 L 1447.46,2640.14 L 1456.28,2630.35 L 1466.93,2622.61 L 1478.96,2617.26 L 1491.84,2614.52 L 1505.01,2614.52 L 1517.89,2617.26 L 1529.92,2622.61 L 1540.58,2630.35 L 1549.39,2640.14 L 1555.97,2651.54 L 1560.04,2664.07 L 1561.42,2677.17 z " style="fill-opacity:1.000000;fill:rgb(5,23,88);stroke:rgb(0,0,0);stroke-width:2"/></g>
<g fill-rule="evenodd"><path d="M 2761.42,877.165 L 2760.04,890.262 L 2755.97,902.787 L 2749.39,914.191 L 2740.58,923.978 L 2729.92,931.718 L 2717.89,937.075 L 2705.01,939.812 L 2691.84,939.812 L 2678.96,937.075 L 2666.93,931.718 L 2656.28,923.978 L 2647.46,914.191 L 2640.88,902.787 L 2636.81,890.262 L 2635.43,877.165 L 2636.81,864.069 L 2640.88,851.544 L 2647.46,840.14 L 2656.28,830.353 L 2666.93,822.613 L 2678.96,817.256 L 2691.84,814.518 L 2705.01,814.518 L 2717.89,817.256 L 2729.92,822.613 L 2740.58,830.353 L 2749.39,840.14 L 2755.97,851.544 L 2760.04,864.069 L 2761.42,877.165 z " style="fill-opacity:1.000000;fill:rgb(233,94,212);stroke:rgb(0,0,0);stroke-width:2"/></g>
<g fill-rule="evenodd"><path d="M 1561.42,2877.17 L 1560.04,2890.26 L 1555.97,2902.79 L 1549.39,2914.19 L 1540.58,2923.98 L 1529.92,2931.72 L 1517.89,2937.07 L 1505.01,2939.81 L 1491.84,2939.81 L 1478.96,2937.07 L 1466.93,2931.72 L 1456.28,2923.98 L 1447.46,2914.19 L 1440.88,2902.79 L 1436.81,2890.26 L 1435.43,2877.17 L 1436.81,2864.07 L 1440.88,2851.54 L 1447.46,2840.14 L 1456.28,2830.35 L 1466.93,2822.61 L 1478.96,2817.26 L 1491.84,2814.52 L 1505.01,2814.52 L 1517.89,2817.26 L 1529.92,2822.61 L 1540.58,2830.35 L 1549.39,2840.14 L 1555.97,2851.54 L 1560.04,2864.07 L 1561.42,2877.17 z " style="fill-opacity:1.000000;fill:rgb(171,178,205);stroke:rgb(0,0,0);stroke-width:2"/></g>
<g fill-rule="evenodd"><path d="M 2761.42,677.165 L 2760.04,690.262 L 2755.97,702.787 L 2749.39,714.191 L 2740.58,723.978 L 2729.92,731.718 L 2717.89,737.075 L 2705.01,739.812 L 2691.84,739.812 L 2678.96,737.075 L 2666.93,731.718 L 2656.28,723.978 L 2647.46,714.191 L 2640.88,702.787 L 2636.81,690.262 L 2635.43,677.165 L 2636.81,664.069 L 2640.88,651.544 L 2647.46,640.14 L 2656.28,630.353 L 2666.93,622.613 L 2678.96,617.256 L 2691.84,614.518 L 2705.01,614.518 L 2717.89,617.256 L 2729.92,622.613 L 2740.58,630.353 L 2749.39,640.14 L 2755.97,651.544 L 2760.04,664.069 L 2761.42,677.165 z " style="fill-opacity:1.000000;fill:rgb(198,155,180);stroke:rgb(0,0,0);stroke-width:2"/></g>
<g fill-rule="evenodd"><path d="M 2761.42,477.165 L 2760.04,490.262 L 2755.97,502.787 L 2749.39,514.191 L 2740.58,523.978 L 2729.92,531.718 L 2717.89,537.075 L 2705.01,539.812 L 2691.84,539.812 L 2678.96,537.075 L 2666.93,531.718 L 2656.28,523.978 L 2647.46,514.191 L 2640.88,502.787 L 2636.81,490.262 L 2635.43,477.165 L 2636.81,464.069 L 2640.88,451.544 L 2647.46,440.14 L 2656.28,430.353 L 2666.93,422.613 L 2678.96,417.256 L 2691.84,414.518 L 2705.01,414.518 L 2717.89,417.256 L 2729.92,422.613 L 2740.58,430.353 L 2749.39,440.14 L 2755.97,451.544 L 2760.04,464.069 L 2761.42,477.165 z " style="fill-opacity:1.000000;fill:rgb(84,17,14);stroke:rgb(0,0,0);stroke-width:2"/></g>
<g fill-rule="evenodd"><path d="M 2761.42,3277.17 L 2760.04,3290.26 L 2755.97,3302.79 L 2749.39,3314.19 L 2740.58,3323.98 L 2729.92,3331.72 L 2717.89,3337.07 L 2705.01,3339.81 L 2691.84,3339.81 L 2678.96,3337.07 L 2666.93,3331.72 L 2656.28,3323.98 L 2647.46,3314.19 L 2640.88,3302.79 L 2636.81,3290.26 L 2635.43,3277.17 L 2636.81,3264.07 L 2640.88,3251.54 L 2647.46,3240.14 L 2656.28,3230.35 L 2666.93,3222.61 L 2678.96,3217.26 L 2691.84,3214.52 L 2705.01,3214.52 L 2717.89,3217.26 L 2729.92,3222.61 L 2740.58,3230.35 L 2749.39,3240.14 L 2755.97,3251.54 L 2760.04,3264.07 L 2761.42,3277.17 z " style="fill-opacity:1.000000;fill:rgb(130,116,65);stroke:rgb(0,0,0);stroke-width:2"/></g>
<g fill-rule="evenodd"><path d="M 905.118,1126.38 L 905.118,984.646 L 1046.85,984.646 L 1046.85,1126.38 L 905.118,1126.38 z " style="fill-opacity:1.000000;fill:rgb(33,61,220);stroke:rgb(0,0,0);stroke-width:2"/></g>
<g fill-rule="evenodd"><path d="M 3109.06,1322.44 L 3109.06,1188.58 L 3242.91,1188.58 L 3242.91,1322.44 L 3109.06,1322.44 z " style="fill-opacity:1.000000;fill:rgb(135,112,233);stroke:rgb(0,0,0);stroke-width:2"/></g>
<g fill-rule="evenodd"><path d="M 1109.06,3722.44 L 1109.06,3588.58 L 1242.91,3588.58 L 1242.91,3722.44 L 1109.06,3722.44 z " style="fill-opacity:1.000000;fill:rgb(62,161,65);stroke:rgb(0,0,0);stroke-width:2"/></g>
<g fill-rule="evenodd"><path d="M 409.055,3722.44 L 409.055,3588.58 L 542.913,3588.58 L 542.913,3722.44 L 409.055,3722.44 z " style="fill-opacity:1.000000;fill:rgb(225,252,103);stroke:rgb(0,0,0);stroke-width:2"/></g>
<g fill-rule="evenodd"><path d="M 542.913,3255.51 L 541.451,3269.43 L 537.127,3282.73 L 530.131,3294.85 L 520.769,3305.25 L 509.449,3313.47 L 496.666,3319.17 L 482.98,3322.07 L 468.988,3322.07 L 455.302,3319.17 L 442.52,3313.47 L 431.2,3305.25 L 421.837,3294.85 L 414.841,3282.73 L 410.518,3269.43 L 409.055,3255.51 L 410.518,3241.6 L 414.841,3228.29 L 421.837,3216.17 L 431.2,3205.77 L 442.52,3197.55 L 455.302,3191.86 L 468.988,3188.95 L 482.98,3188.95 L 496.666,3191.86 L 509.449,3197.55 L 520.769,3205.77 L 530.131,3216.17 L 537.127,3228.29 L 541.451,3241.6 L 542.913,3255.51 z " style="fill-opacity:1.000000;fill:rgb(62,1,126);stroke:rgb(0,0,0);stroke-width:2"/></g>
<g fill-rule="evenodd"><path d="M 409.055,2222.44 L 409.055,2088.58 L 542.913,2088.58 L 542.913,2222.44 L 409.055,2222.44 z " style="fill-opacity:1.000000;fill:rgb(151,234,220);stroke:rgb(0,0,0);stroke-width:2"/></g>
<g fill-rule="evenodd"><path d="M 507.137,3396.52 L 856.299,3047.36 L 856.299,2715.32 L 844.488,2710.06 L 833.834,2702.32 L 825.023,2692.54 L 818.438,2681.13 L 814.369,2668.61 L 812.992,2655.51 L 814.369,2642.42 L 818.438,2629.89 L 825.023,2618.49 L 833.834,2608.7 L 844.488,2600.96 L 856.519,2595.6 L 869.4,2592.86 L 882.569,2592.86 L 895.45,2595.6 L 907.48,2600.96 L 918.134,2608.7 L 926.946,2618.49 L 933.53,2629.89 L 937.6,2642.42 L 938.976,2655.51 L 937.6,2668.61 L 933.53,2681.13 L 926.946,2692.54 L 918.134,2702.32 L 907.48,2710.06 L 895.669,2715.32 L 895.669,3055.51 L 895.291,3059.35 L 894.171,3063.04 L 892.352,3066.45 L 889.904,3069.43 L 534.901,3424.43 L 537.127,3428.29 L 541.451,3441.6 L 542.913,3455.51 L 541.451,3469.43 L 537.127,3482.73 L 530.131,3494.85 L 520.769,3505.25 L 509.449,3513.47 L 496.666,3519.17 L 482.98,3522.07 L 468.988,3522.07 L 455.302,3519.17 L 442.52,3513.47 L 431.2,3505.25 L 421.837,3494.85 L 414.841,3482.73 L 410.518,3469.43 L 409.055,3455.51 L 410.518,3441.6 L 414.841,3428.29 L 421.837,3416.17 L 431.2,3405.77 L 442.52,3397.55 L 455.302,3391.86 L 468.988,3388.95 L 482.98,3388.95 L 496.666,3391.86 L 507.137,3396.52 z " style="fill-opacity:1.000000;fill:rgb(107,150,143);stroke:rgb(0,0,0);stroke-width:2"/></g>
<g fill-rule="evenodd"><path d="M 1239.58,3275.2 L 1237.13,3282.73 L 1230.13,3294.85 L 1220.77,3305.25 L 1209.45,3313.47 L 1196.67,3319.17 L 1182.98,3322.07 L 1168.99,3322.07 L 1155.3,3319.17 L 1142.52,3313.47 L 1131.2,3305.25 L 1121.84,3294.85 L 1114.84,3282.73 L 1110.52,3269.43 L 1109.06,3255.51 L 1110.52,3241.6 L 1114.84,3228.29 L 1121.84,3216.17 L 1131.2,3205.77 L 1142.52,3197.55 L 1155.3,3191.86 L 1168.99,3188.95 L 1182.98,3188.95 L 1196.67,3191.86 L 1209.45,3197.55 L 1220.77,3205.77 L 1230.13,3216.17 L 1237.13,3228.29 L 1239.58,3235.83 L 1451.35,3235.83 L 1456.28,3230.35 L 1466.93,3222.61 L 1478.96,3217.26 L 1491.84,3214.52 L 1505.01,3214.52 L 1517.89,3217.26 L 1529.92,3222.61 L 1540.58,3230.35 L 1549.39,3240.14 L 1555.97,3251.54 L 1560.04,3264.07 L 1561.42,3277.17 L 1560.04,3290.26 L 1555.97,3302.79 L 1549.39,3314.19 L 1540.58,3323.98 L 1529.92,3331.72 L 1517.89,3337.07 L 1505.01,3339.81 L 1491.84,3339.81 L 1478.96,3337.07 L 1466.93,3331.72 L 1456.28,3323.98 L 1447.46,3314.19 L 1440.88,3302.79 L 1436.81,3290.26 L 1435.43,3277.17 L 1435.64,3275.2 L 1239.58,3275.2 z " style="fill-opacity:1.000000;fill:rgb(56,92,42);stroke:rgb(0,0,0);stroke-width:2"/></g>
<g fill-rule="evenodd"><path d="M 1239.58,3075.2 L 1237.13,3082.73 L 1230.13,3094.85 L 1220.77,3105.25 L 1209.45,3113.47 L 1196.67,3119.17 L 1182.98,3122.07 L 1168.99,3122.07 L 1155.3,3119.17 L 1142.52,3113.47 L 1131.2,3105.25 L 1121.84,3094.85 L 1114.84,3082.73 L 1110.52,3069.43 L 1109.06,3055.51 L 1110.52,3041.6 L 1114.84,3028.29 L 1121.84,3016.17 L 1131.2,3005.77 L 1142.52,2997.55 L 1155.3,2991.86 L 1168.99,2988.95 L 1182.98,2988.95 L 1196.67,2991.86 L 1209.45,2997.55 L 1220.77,3005.77 L 1230.13,3016.17 L 1237.13,3028.29 L 1239.58,3035.83 L 1451.35,3035.83 L 1456.28,3030.35 L 1466.93,3022.61 L 1478.96,3017.26 L 1491.84,3014.52 L 1505.01,3014.52 L 1517.89,3017.26 L 1529.92,3022.61 L 1540.58,3030.35 L 1549.39,3040.14 L 1555.97,3051.54 L 1560.04,3064.07 L 1561.42,3077.17 L 1560.04,3090.26 L 1555.97,3102.79 L 1549.39,3114.19 L 1540.58,3123.98 L 1529.92,3131.72 L 1517.89,3137.07 L 1505.01,3139.81 L 1491.84,3139.81 L 1478.96,3137.07 L 1466.93,3131.72 L 1456.28,3123.98 L 1447.46,3114.19 L 1440.88,3102.79 L 1436.81,3090.26 L 1435.43,3077.17 L 1435.64,3075.2 L 1239.58,3075.2 z " style="fill-opacity:1.000000;fill:rgb(236,176,59);stroke:rgb(0,0,0);stroke-width:2"/></g>
<g fill-rule="evenodd"><path d="M 908.275,875.197 L 635.459,875.197 L 633.53,881.133 L 626.946,892.538 L 618.134,902.324 L 607.48,910.065 L 595.45,915.421 L 582.569,918.159 L 569.4,918.159 L 556.519,915.421 L 544.488,910.065 L 533.834,902.324 L 525.023,892.538 L 518.438,881.133 L 514.369,868.609 L 512.992,855.512 L 514.369,842.415 L 518.438,829.891 L 525.023,818.486 L 533.834,808.7 L 544.488,800.959 L 556.519,795.603 L 569.4,792.865 L 582.569,792.865 L 595.45,795.603 L 607.48,800.959 L 618.134,808.7 L 626.946,818.486 L 633.53,829.891 L 635.459,835.827 L 908.275,835.827 L 911.245,826.688 L 918.652,813.858 L 928.566,802.848 L 940.551,794.14 L 954.085,788.114 L 968.577,785.034 L 983.392,785.034 L 997.883,788.114 L 1011.42,794.14 L 1023.4,802.848 L 1033.32,813.858 L 1040.72,826.688 L 1045.3,840.778 L 1046.85,855.512 L 1045.3,870.246 L 1040.72,884.336 L 1033.32,897.166 L 1023.4,908.176 L 1011.42,916.884 L 997.883,922.91 L 983.392,925.99 L 968.577,925.99 L 954.085,922.91 L 940.551,916.884 L 928.566,908.176 L 918.652,897.166 L 911.245,884.336 L 908.275,875.197 z " style="fill-opacity:1.000000;fill:rgb(251,50,175);stroke:rgb(0,0,0);stroke-width:2"/></g>
<g fill-rule="evenodd"><path d="M 1557.9,1696.85 L 1555.97,1702.79 L 1549.39,1714.19 L 1540.58,1723.98 L 1529.92,1731.72 L 1517.89,1737.07 L 1505.01,1739.81 L 1491.84,1739.81 L 1478.96,1737.07 L 1470.24,1733.19 L 982.598,2220.83 L 979.615,2223.28 L 976.212,2225.1 L 972.519,2226.22 L 968.679,2226.6 L 832.738,2226.6 L 534.901,2524.43 L 537.127,2528.29 L 541.451,2541.6 L 542.913,2555.51 L 541.451,2569.43 L 537.127,2582.73 L 530.131,2594.85 L 520.769,2605.25 L 509.449,2613.47 L 496.666,2619.17 L 482.98,2622.07 L 468.988,2622.07 L 455.302,2619.17 L 442.52,2613.47 L 431.2,2605.25 L 421.837,2594.85 L 414.841,2582.73 L 410.518,2569.43 L 409.055,2555.51 L 410.518,2541.6 L 414.841,2528.29 L 421.837,2516.17 L 431.2,2505.77 L 442.52,2497.55 L 455.302,2491.86 L 468.988,2488.95 L 482.98,2488.95 L 496.666,2491.86 L 507.137,2496.52 L 810.665,2192.99 L 813.648,2190.54 L 817.051,2188.73 L 820.744,2187.61 L 824.584,2187.23 L 960.525,2187.23 L 1442.37,1705.38 L 1440.88,1702.79 L 1436.81,1690.26 L 1435.43,1677.17 L 1436.81,1664.07 L 1440.88,1651.54 L 1447.46,1640.14 L 1456.28,1630.35 L 1466.93,1622.61 L 1478.96,1617.26 L 1491.84,1614.52 L 1505.01,1614.52 L 1517.89,1617.26 L 1529.92,1622.61 L 1540.58,1630.35 L 1549.39,1640.14 L 1555.97,1651.54 L 1557.9,1657.48 L 2013.2,1657.48 L 2012.99,1655.51 L 2014.37,1642.42 L 2018.44,1629.89 L 2025.02,1618.49 L 2033.83,1608.7 L 2044.49,1600.96 L 2056.52,1595.6 L 2069.4,1592.86 L 2082.57,1592.86 L 2095.45,1595.6 L 2107.48,1600.96 L 2118.13,1608.7 L 2126.95,1618.49 L 2133.53,1629.89 L 2137.6,1642.42 L 2138.98,1655.51 L 2137.6,1668.61 L 2133.53,1681.13 L 2126.95,1692.54 L 2118.13,1702.32 L 2107.48,1710.06 L 2095.45,1715.42 L 2082.57,1718.16 L 2069.4,1718.16 L 2056.52,1715.42 L 2044.49,1710.06 L 2033.83,1702.32 L 2028.91,1696.85 L 1557.9,1696.85 z " style="fill-opacity:1.000000;fill:rgb(60,84,236);stroke:rgb(0,0,0);stroke-width:2"/></g>
<g fill-rule="evenodd"><path d="M 2642.37,2705.38 L 2640.88,2702.79 L 2636.81,2690.26 L 2635.43,2677.17 L 2636.81,2664.07 L 2640.88,2651.54 L 2647.46,2640.14 L 2656.28,2630.35 L 2666.93,2622.61 L 2678.96,2617.26 L 2691.84,2614.52 L 2705.01,2614.52 L 2717.89,2617.26 L 2726.61,2621.14 L 3106.16,2241.59 L 3109.14,2239.14 L 3112.55,2237.33 L 3116.39,2236.19 L 3118.44,2229.89 L 3125.02,2218.49 L 3133.83,2208.7 L 3144.49,2200.96 L 3156.52,2195.6 L 3169.4,2192.86 L 3182.57,2192.86 L 3195.45,2195.6 L 3207.48,2200.96 L 3218.13,2208.7 L 3226.95,2218.49 L 3233.53,2229.89 L 3237.6,2242.42 L 3238.98,2255.51 L 3237.6,2268.61 L 3233.53,2281.13 L 3226.95,2292.54 L 3218.13,2302.32 L 3207.48,2310.06 L 3195.45,2315.42 L 3182.57,2318.16 L 3169.4,2318.16 L 3156.52,2315.42 L 3144.49,2310.06 L 3133.83,2302.32 L 3125.02,2292.54 L 3119.85,2283.58 L 2754.48,2648.95 L 2755.97,2651.54 L 2760.04,2664.07 L 2761.42,2677.17 L 2760.04,2690.26 L 2755.97,2702.79 L 2749.39,2714.19 L 2740.58,2723.98 L 2729.92,2731.72 L 2717.89,2737.07 L 2705.01,2739.81 L 2691.84,2739.81 L 2678.96,2737.07 L 2670.24,2733.19 L 1608.01,3795.42 L 1605.03,3797.86 L 1601.63,3799.68 L 1597.93,3800.8 L 1594.09,3801.18 L 361.811,3801.18 L 357.971,3800.8 L 354.278,3799.68 L 350.875,3797.86 L 347.892,3795.42 L 336.08,3783.6 L 333.632,3780.62 L 331.813,3777.22 L 330.693,3773.53 L 330.315,3769.69 L 330.315,3181.5 L 330.693,3177.66 L 331.813,3173.96 L 333.632,3170.56 L 336.08,3167.58 L 417.067,3086.59 L 414.841,3082.73 L 410.518,3069.43 L 409.055,3055.51 L 410.518,3041.6 L 414.841,3028.29 L 421.837,3016.17 L 431.2,3005.77 L 442.52,2997.55 L 455.302,2991.86 L 468.988,2988.95 L 482.98,2988.95 L 496.666,2991.86 L 509.449,2997.55 L 520.769,3005.77 L 530.131,3016.17 L 537.127,3028.29 L 541.451,3041.6 L 542.913,3055.51 L 541.451,3069.43 L 537.127,3082.73 L 530.131,3094.85 L 520.769,3105.25 L 509.449,3113.47 L 496.666,3119.17 L 482.98,3122.07 L 468.988,3122.07 L 455.302,3119.17 L 444.832,3114.5 L 369.685,3189.65 L 369.685,3761.53 L 369.965,3761.81 L 1585.94,3761.81 L 2642.37,2705.38 z " style="fill-opacity:1.000000;fill:rgb(24,219,92);stroke:rgb(0,0,0);stroke-width:2"/></g>
<g fill-rule="evenodd"><path d="M 1446.61,1312.72 L 932.035,1827.3 L 933.53,1829.89 L 937.6,1842.42 L 938.976,1855.51 L 937.6,1868.61 L 933.53,1881.13 L 926.946,1892.54 L 918.134,1902.32 L 907.48,1910.06 L 895.45,1915.42 L 882.569,1918.16 L 869.4,1918.16 L 856.519,1915.42 L 844.488,1910.06 L 833.834,1902.32 L 825.023,1892.54 L 818.438,1881.13 L 814.369,1868.61 L 812.992,1855.51 L 814.369,1842.42 L 818.438,1829.89 L 825.023,1818.49 L 833.834,1808.7 L 844.488,1800.96 L 856.519,1795.6 L 869.4,1792.86 L 882.569,1792.86 L 895.45,1795.6 L 904.171,1799.49 L 1436.48,1267.17 L 1436.81,1264.07 L 1440.88,1251.54 L 1447.46,1240.14 L 1456.28,1230.35 L 1466.93,1222.61 L 1478.96,1217.26 L 1491.84,1214.52 L 1505.01,1214.52 L 1517.89,1217.26 L 1529.92,1222.61 L 1540.58,1230.35 L 1549.39,1240.14 L 1555.97,1251.54 L 1560.04,1264.07 L 1561.42,1277.17 L 1560.04,1290.26 L 1555.97,1302.79 L 1549.39,1314.19 L 1540.58,1323.98 L 1529.92,1331.72 L 1517.89,1337.07 L 1505.01,1339.81 L 1491.84,1339.81 L 1478.96,1337.07 L 1466.93,1331.72 L 1456.28,1323.98 L 1447.46,1314.19 L 1446.61,1312.72 z " style="fill-opacity:1.000000;fill:rgb(2,26,254);stroke:rgb(0,0,0);stroke-width:2"/></g>
<g fill-rule="evenodd"><path d="M 1442.37,1505.38 L 1440.88,1502.79 L 1436.81,1490.26 L 1435.43,1477.17 L 1436.81,1464.07 L 1440.88,1451.54 L 1447.46,1440.14 L 1456.28,1430.35 L 1466.93,1422.61 L 1478.96,1417.26 L 1491.84,1414.52 L 1505.01,1414.52 L 1517.89,1417.26 L 1529.92,1422.61 L 1540.58,1430.35 L 1549.39,1440.14 L 1555.97,1451.54 L 1560.04,1464.07 L 1561.42,1477.17 L 1560.04,1490.26 L 1555.97,1502.79 L 1549.39,1514.19 L 1540.58,1523.98 L 1529.92,1531.72 L 1517.89,1537.07 L 1505.01,1539.81 L 1491.84,1539.81 L 1478.96,1537.07 L 1470.24,1533.19 L 941.798,2061.63 L 938.815,2064.08 L 935.412,2065.9 L 931.719,2067.02 L 927.879,2067.4 L 775.784,2067.4 L 771.944,2067.02 L 768.251,2065.9 L 764.848,2064.08 L 761.865,2061.63 L 562.065,1861.83 L 559.617,1858.85 L 557.798,1855.44 L 556.677,1851.75 L 556.299,1847.91 L 556.299,1715.32 L 544.488,1710.06 L 533.834,1702.32 L 525.023,1692.54 L 518.438,1681.13 L 514.369,1668.61 L 512.992,1655.51 L 514.369,1642.42 L 518.438,1629.89 L 525.023,1618.49 L 533.834,1608.7 L 544.488,1600.96 L 556.519,1595.6 L 569.4,1592.86 L 582.569,1592.86 L 595.45,1595.6 L 607.48,1600.96 L 618.134,1608.7 L 626.946,1618.49 L 633.53,1629.89 L 637.6,1642.42 L 638.976,1655.51 L 637.6,1668.61 L 633.53,1681.13 L 626.946,1692.54 L 618.134,1702.32 L 607.48,1710.06 L 595.669,1715.32 L 595.669,1839.76 L 783.938,2028.03 L 919.725,2028.03 L 1442.37,1505.38 z " style="fill-opacity:1.000000;fill:rgb(67,251,250);stroke:rgb(0,0,0);stroke-width:2"/></g>
<g fill-rule="evenodd"><path d="M 2757.9,3096.85 L 2755.97,3102.79 L 2749.39,3114.19 L 2740.58,3123.98 L 2729.92,3131.72 L 2717.89,3137.07 L 2705.01,3139.81 L 2691.84,3139.81 L 2678.96,3137.07 L 2666.93,3131.72 L 2656.28,3123.98 L 2647.46,3114.19 L 2640.88,3102.79 L 2636.81,3090.26 L 2635.43,3077.17 L 2636.81,3064.07 L 2640.88,3051.54 L 2647.46,3040.14 L 2656.28,3030.35 L 2666.93,3022.61 L 2678.96,3017.26 L 2691.84,3014.52 L 2705.01,3014.52 L 2717.89,3017.26 L 2729.92,3022.61 L 2740.58,3030.35 L 2749.39,3040.14 L 2755.97,3051.54 L 2757.9,3057.48 L 3113.2,3057.48 L 3112.99,3055.51 L 3114.37,3042.42 L 3118.44,3029.89 L 3125.02,3018.49 L 3133.83,3008.7 L 3144.49,3000.96 L 3156.52,2995.6 L 3169.4,2992.86 L 3182.57,2992.86 L 3195.45,2995.6 L 3207.48,3000.96 L 3218.13,3008.7 L 3226.95,3018.49 L 3233.53,3029.89 L 3237.6,3042.42 L 3238.98,3055.51 L 3237.6,3068.61 L 3233.53,3081.13 L 3226.95,3092.54 L 3218.13,3102.32 L 3207.48,3110.06 L 3195.45,3115.42 L 3182.57,3118.16 L 3169.4,3118.16 L 3156.52,3115.42 L 3144.49,3110.06 L 3133.83,3102.32 L 3128.91,3096.85 L 2757.9,3096.85 z " style="fill-opacity:1.000000;fill:rgb(170,58,251);stroke:rgb(0,0,0);stroke-width:2"/></g>
<g fill-rule="evenodd"><path d="M 2754.48,1105.38 L 3084.93,1435.83 L 3112.39,1435.83 L 3114.84,1428.29 L 3121.84,1416.17 L 3131.2,1405.77 L 3142.52,1397.55 L 3155.3,1391.86 L 3168.99,1388.95 L 3182.98,1388.95 L 3196.67,1391.86 L 3209.45,1397.55 L 3220.77,1405.77 L 3230.13,1416.17 L 3237.13,1428.29 L 3241.45,1441.6 L 3242.91,1455.51 L 3241.45,1469.43 L 3237.13,1482.73 L 3230.13,1494.85 L 3220.77,1505.25 L 3209.45,1513.47 L 3196.67,1519.17 L 3182.98,1522.07 L 3168.99,1522.07 L 3155.3,1519.17 L 3142.52,1513.47 L 3131.2,1505.25 L 3121.84,1494.85 L 3114.84,1482.73 L 3112.39,1475.2 L 3076.77,1475.2 L 3072.93,1474.82 L 3069.24,1473.7 L 3065.84,1471.88 L 3062.85,1469.43 L 2726.61,1133.19 L 2717.89,1137.07 L 2705.01,1139.81 L 2691.84,1139.81 L 2678.96,1137.07 L 2670.24,1133.19 L 2408.87,1394.56 L 2408.87,2567.04 L 2408.49,2570.88 L 2407.37,2574.57 L 2405.55,2577.97 L 2403.1,2580.96 L 1514.63,3469.43 L 1511.65,3471.88 L 1508.24,3473.7 L 1504.55,3474.82 L 1500.71,3475.2 L 1239.58,3475.2 L 1237.13,3482.73 L 1230.13,3494.85 L 1220.77,3505.25 L 1209.45,3513.47 L 1196.67,3519.17 L 1182.98,3522.07 L 1168.99,3522.07 L 1155.3,3519.17 L 1142.52,3513.47 L 1131.2,3505.25 L 1121.84,3494.85 L 1114.84,3482.73 L 1110.52,3469.43 L 1109.06,3455.51 L 1110.52,3441.6 L 1114.84,3428.29 L 1122.08,3415.9 L 1036.08,3329.9 L 1033.63,3326.92 L 1031.81,3323.52 L 1030.69,3319.82 L 1030.31,3315.98 L 1030.31,3195.04 L 1031.04,3190.05 L 1031.04,3075.88 L 1030.31,3070.9 L 1030.31,2995.04 L 1030.69,2991.2 L 1031.81,2987.51 L 1033.63,2984.1 L 1036.08,2981.12 L 1129.3,2887.9 L 1129.3,2504.38 L 1033.97,2409.06 L 832.878,2409.06 L 546.518,2695.42 L 543.535,2697.86 L 540.132,2699.68 L 536.439,2700.8 L 532.598,2701.18 L 415.512,2701.18 L 411.671,2700.8 L 407.979,2699.68 L 404.575,2697.86 L 401.592,2695.42 L 336.08,2629.9 L 333.632,2626.92 L 331.813,2623.52 L 330.693,2619.82 L 330.315,2615.98 L 330.315,2481.5 L 330.693,2477.66 L 331.813,2473.96 L 333.632,2470.56 L 336.08,2467.58 L 417.067,2386.59 L 414.841,2382.73 L 410.518,2369.43 L 409.055,2355.51 L 410.518,2341.6 L 414.841,2328.29 L 421.837,2316.17 L 431.2,2305.77 L 442.52,2297.55 L 455.302,2291.86 L 468.988,2288.95 L 482.98,2288.95 L 496.666,2291.86 L 509.449,2297.55 L 520.769,2305.77 L 530.131,2316.17 L 537.127,2328.29 L 541.451,2341.6 L 542.913,2355.51 L 541.451,2369.43 L 537.127,2382.73 L 530.131,2394.85 L 520.769,2405.25 L 509.449,2413.47 L 496.666,2419.17 L 482.98,2422.07 L 468.988,2422.07 L 455.302,2419.17 L 444.832,2414.5 L 369.685,2489.65 L 369.685,2607.83 L 423.666,2661.81 L 524.445,2661.81 L 810.805,2375.45 L 813.788,2373 L 817.191,2371.18 L 820.884,2370.06 L 824.724,2369.69 L 1042.13,2369.69 L 1045.97,2370.06 L 1049.66,2371.18 L 1053.06,2373 L 1056.05,2375.45 L 1162.9,2482.31 L 1165.35,2485.29 L 1167.17,2488.7 L 1168.29,2492.39 L 1168.67,2496.23 L 1168.67,2896.05 L 1168.29,2899.9 L 1167.17,2903.59 L 1165.35,2906.99 L 1162.9,2909.97 L 1069.68,3003.19 L 1069.68,3066.64 L 1070.41,3071.62 L 1070.41,3194.31 L 1069.68,3199.3 L 1069.68,3307.83 L 1154.2,3392.35 L 1155.3,3391.86 L 1168.99,3388.95 L 1182.98,3388.95 L 1196.67,3391.86 L 1209.45,3397.55 L 1220.77,3405.77 L 1230.13,3416.17 L 1237.13,3428.29 L 1239.58,3435.83 L 1492.56,3435.83 L 2369.5,2558.88 L 2369.5,1386.41 L 2369.88,1382.57 L 2371,1378.87 L 2372.82,1375.47 L 2375.26,1372.49 L 2642.37,1105.38 L 2640.88,1102.79 L 2636.81,1090.26 L 2635.43,1077.17 L 2636.81,1064.07 L 2640.88,1051.54 L 2642.37,1048.95 L 2468.62,875.197 L 2135.46,875.197 L 2133.53,881.133 L 2126.95,892.538 L 2118.13,902.324 L 2107.48,910.065 L 2095.45,915.421 L 2082.57,918.159 L 2069.4,918.159 L 2056.52,915.421 L 2044.49,910.065 L 2033.83,902.324 L 2025.02,892.538 L 2018.44,881.133 L 2014.37,868.609 L 2012.99,855.512 L 2014.37,842.415 L 2018.44,829.891 L 2025.02,818.486 L 2033.83,808.7 L 2044.49,800.959 L 2056.52,795.603 L 2069.4,792.865 L 2082.57,792.865 L 2095.45,795.603 L 2107.48,800.959 L 2118.13,808.7 L 2126.95,818.486 L 2133.53,829.891 L 2135.46,835.827 L 2476.77,835.827 L 2480.61,836.205 L 2484.3,837.325 L 2487.71,839.144 L 2490.69,841.592 L 2670.24,1021.14 L 2678.96,1017.26 L 2691.84,1014.52 L 2705.01,1014.52 L 2717.89,1017.26 L 2729.92,1022.61 L 2740.58,1030.35 L 2749.39,1040.14 L 2755.97,1051.54 L 2760.04,1064.07 L 2761.42,1077.17 L 2760.04,1090.26 L 2755.97,1102.79 L 2754.48,1105.38 z " style="fill-opacity:1.000000;fill:rgb(41,209,230);stroke:rgb(0,0,0);stroke-width:2"/></g>
<g fill-rule="evenodd"><path d="M 2757.9,1896.85 L 2755.97,1902.79 L 2749.39,1914.19 L 2740.58,1923.98 L 2729.92,1931.72 L 2717.89,1937.07 L 2705.01,1939.81 L 2691.84,1939.81 L 2678.96,1937.07 L 2666.93,1931.72 L 2656.28,1923.98 L 2647.46,1914.19 L 2640.88,1902.79 L 2636.81,1890.26 L 2635.43,1877.17 L 2636.81,1864.07 L 2640.88,1851.54 L 2647.46,1840.14 L 2656.28,1830.35 L 2666.93,1822.61 L 2678.96,1817.26 L 2691.84,1814.52 L 2705.01,1814.52 L 2717.89,1817.26 L 2729.92,1822.61 L 2740.58,1830.35 L 2749.39,1840.14 L 2755.97,1851.54 L 2757.9,1857.48 L 3109.26,1857.48 L 3109.06,1855.51 L 3110.52,1841.6 L 3114.84,1828.29 L 3121.84,1816.17 L 3131.2,1805.77 L 3142.52,1797.55 L 3155.3,1791.86 L 3168.99,1788.95 L 3182.98,1788.95 L 3196.67,1791.86 L 3209.45,1797.55 L 3220.77,1805.77 L 3230.13,1816.17 L 3237.13,1828.29 L 3241.45,1841.6 L 3242.91,1855.51 L 3241.45,1869.43 L 3237.13,1882.73 L 3230.13,1894.85 L 3220.77,1905.25 L 3209.45,1913.47 L 3196.67,1919.17 L 3182.98,1922.07 L 3168.99,1922.07 L 3155.3,1919.17 L 3142.52,1913.47 L 3131.2,1905.25 L 3123.64,1896.85 L 2757.9,1896.85 z " style="fill-opacity:1.000000;fill:rgb(5,60,124);stroke:rgb(0,0,0);stroke-width:2"/></g>
<g fill-rule="evenodd"><path d="M 2761.21,1675.2 L 2761.42,1677.17 L 2760.04,1690.26 L 2755.97,1702.79 L 2749.39,1714.19 L 2740.58,1723.98 L 2729.92,1731.72 L 2717.89,1737.07 L 2705.01,1739.81 L 2691.84,1739.81 L 2678.96,1737.07 L 2666.93,1731.72 L 2656.28,1723.98 L 2647.46,1714.19 L 2640.88,1702.79 L 2636.81,1690.26 L 2635.43,1677.17 L 2636.81,1664.07 L 2640.88,1651.54 L 2647.46,1640.14 L 2656.28,1630.35 L 2666.93,1622.61 L 2678.96,1617.26 L 2691.84,1614.52 L 2705.01,1614.52 L 2717.89,1617.26 L 2729.92,1622.61 L 2740.58,1630.35 L 2745.5,1635.83 L 3112.39,1635.83 L 3114.84,1628.29 L 3121.84,1616.17 L 3131.2,1605.77 L 3142.52,1597.55 L 3155.3,1591.86 L 3168.99,1588.95 L 3182.98,1588.95 L 3196.67,1591.86 L 3209.45,1597.55 L 3220.77,1605.77 L 3230.13,1616.17 L 3237.13,1628.29 L 3241.45,1641.6 L 3242.91,1655.51 L 3241.45,1669.43 L 3237.13,1682.73 L 3230.13,1694.85 L 3220.77,1705.25 L 3209.45,1713.47 L 3196.67,1719.17 L 3182.98,1722.07 L 3168.99,1722.07 L 3155.3,1719.17 L 3142.52,1713.47 L 3131.2,1705.25 L 3121.84,1694.85 L 3114.84,1682.73 L 3112.39,1675.2 L 2761.21,1675.2 z " style="fill-opacity:1.000000;fill:rgb(148,117,216);stroke:rgb(0,0,0);stroke-width:2"/></g>
</svg>
