<?xml version="1.0" standalone="no"?>
<!DOCTYPE svg PUBLIC "-//W3C//DTD SVG 1.1//EN"
"http://www.w3.org/Graphics/SVG/1.1/DTD/svg11.dtd">
<svg width="168.756" height="191.433" viewBox="0 0 3515.75 3988.19" version="1.1"
xmlns="http://www.w3.org/2000/svg"
xmlns:xlink="http://www.w3.org/1999/xlink">
<g fill-rule="evenodd"><path d="M 9.09495e-13,3988.19 L 9.09495e-13,0 L 3515.75,0 L 3515.75,3988.19 L 9.09495e-13,3988.19 z " style="fill-opacity:0.200000;fill:rgb(103,198,105);"/></g>
<polyline points="33.4643,3923.23 33.4643,64.9598 34.0683,58.8158 35.8603,52.9058 38.7723,47.4618 42.6883,42.6878 47.4623,38.7718 52.9063,35.8618 58.8143,34.0678 64.9603,33.4638 3450.79,33.4638 3456.93,34.0678 3462.84,35.8618 3468.28,38.7718 3473.06,42.6878 3476.97,47.4618 3479.88,52.9058 3481.68,58.8158 3482.28,64.9598 3482.28,3923.23 3481.68,3929.37 3479.88,3935.28 3476.97,3940.73 3473.06,3945.5 3468.28,3949.42 3462.84,3952.33 3456.93,3954.12 3450.79,3954.72 64.9603,3954.72 58.8143,3954.12 52.9063,3952.33 47.4623,3949.42 42.6883,3945.5 38.7723,3940.73 35.8603,3935.28 34.0683,3929.37 33.4643,3923.23" style="stroke:rgb(103,198,105);stroke-width:62.992126;fill:none;stroke-opacity:0.5;stroke-linecap:round;stroke-linejoin:round;;fill:none"/>
<polyline points="33.4643,3923.23 33.4643,64.9598 34.0683,58.8158 35.8603,52.9058 38.7723,47.4618 42.6883,42.6878 47.4623,38.7718 52.9063,35.8618 58.8143,34.0678 64.9603,33.4638 3450.79,33.4638 3456.93,34.0678 3462.84,35.8618 3468.28,38.7718 3473.06,42.6878 3476.97,47.4618 3479.88,52.9058 3481.68,58.8158 3482.28,64.9598 3482.28,3923.23 3481.68,3929.37 3479.88,3935.28 3476.97,3940.73 3473.06,3945.5 3468.28,3949.42 3462.84,3952.33 3456.93,3954.12 3450.79,3954.72 64.9603,3954.72 58.8143,3954.12 52.9063,3952.33 47.4623,3949.42 42.6883,3945.5 38.7723,3940.73 35.8603,3935.28 34.0683,3929.37 33.4643,3923.23" style="stroke:rgb(0,0,0);stroke-width:1px;fill:none;stroke-opacity:1;stroke-linecap:round;stroke-linejoin:round;;fill:none"/>
<g fill-rule="evenodd"><path d="M 64.9606,3923.23 L 64.9606,64.9606 L 3450.79,64.9606 L 3450.79,3923.23 L 64.9606,3923.23 z " style="fill-opacity:1.000000;fill:rgb(103,198,105);stroke:rgb(0,0,0);stroke-width:2"/></g>
</svg>
