<?xml version="1.0" standalone="no"?>
<!DOCTYPE svg PUBLIC "-//W3C//DTD SVG 1.1//EN"
"http://www.w3.org/Graphics/SVG/1.1/DTD/svg11.dtd">
<svg width="168.756" height="191.433" viewBox="0 0 3515.75 3988.19" version="1.1"
xmlns="http://www.w3.org/2000/svg"
xmlns:xlink="http://www.w3.org/1999/xlink">
<polyline points="1415.75,540.156 1415.75,414.172 1417.25,406.64 1421.51,400.254 1427.9,395.986 1435.43,394.488 1561.42,394.488 1568.95,395.986 1575.34,400.254 1579.6,406.64 1581.1,414.172 1581.1,540.156 1579.6,547.69 1575.34,554.076 1568.95,558.344 1561.42,559.842 1435.43,559.842 1427.9,558.344 1421.51,554.076 1417.25,547.69 1415.75,540.156" style="stroke:rgb(103,198,105);stroke-width:39.370079;fill:none;stroke-opacity:0.5;stroke-linecap:round;stroke-linejoin:round;;fill:none"/>
<polyline points="1415.75,540.156 1415.75,414.172 1417.25,406.64 1421.51,400.254 1427.9,395.986 1435.43,394.488 1561.42,394.488 1568.95,395.986 1575.34,400.254 1579.6,406.64 1581.1,414.172 1581.1,540.156 1579.6,547.69 1575.34,554.076 1568.95,558.344 1561.42,559.842 1435.43,559.842 1427.9,558.344 1421.51,554.076 1417.25,547.69 1415.75,540.156" style="stroke:rgb(0,0,0);stroke-width:1px;fill:none;stroke-opacity:1;stroke-linecap:round;stroke-linejoin:round;;fill:none"/>
<polyline points="1415.75,677.164 1417.23,692.32 1422.16,708.868 1431.54,725.762 1441.65,737.148 1458.92,749.7 1472.88,755.796 1491.84,759.496 1509.1,759.066 1523.97,755.796 1539.76,748.766 1553.75,738.606 1565.31,725.762 1573.02,712.628 1578.76,696.344 1581.1,677.164 1579.62,662.01 1574.69,645.46 1565.31,628.568 1555.2,617.18 1537.93,604.628 1523.97,598.534 1505.01,594.832 1487.75,595.262 1472.88,598.534 1457.09,605.564 1443.1,615.724 1431.54,628.568 1423.83,641.7 1418.09,657.984 1415.75,677.164" style="stroke:rgb(115,81,255);stroke-width:39.370079;fill:none;stroke-opacity:0.5;stroke-linecap:round;stroke-linejoin:round;;fill:none"/>
<polyline points="1415.75,677.164 1417.23,692.32 1422.16,708.868 1431.54,725.762 1441.65,737.148 1458.92,749.7 1472.88,755.796 1491.84,759.496 1509.1,759.066 1523.97,755.796 1539.76,748.766 1553.75,738.606 1565.31,725.762 1573.02,712.628 1578.76,696.344 1581.1,677.164 1579.62,662.01 1574.69,645.46 1565.31,628.568 1555.2,617.18 1537.93,604.628 1523.97,598.534 1505.01,594.832 1487.75,595.262 1472.88,598.534 1457.09,605.564 1443.1,615.724 1431.54,628.568 1423.83,641.7 1418.09,657.984 1415.75,677.164" style="stroke:rgb(0,0,0);stroke-width:1px;fill:none;stroke-opacity:1;stroke-linecap:round;stroke-linejoin:round;;fill:none"/>
<polyline points="2615.75,2877.16 2617.23,2892.32 2622.16,2908.87 2631.54,2925.76 2641.65,2937.15 2658.92,2949.7 2672.88,2955.8 2691.84,2959.5 2709.1,2959.07 2723.97,2955.8 2739.76,2948.77 2753.75,2938.61 2765.31,2925.76 2773.02,2912.63 2778.76,2896.34 2781.1,2877.16 2779.62,2862.01 2774.69,2845.46 2765.31,2828.57 2755.2,2817.18 2737.93,2804.63 2723.97,2798.53 2705.01,2794.83 2687.75,2795.26 2672.88,2798.53 2657.09,2805.56 2643.1,2815.72 2631.54,2828.57 2623.83,2841.7 2618.09,2857.98 2615.75,2877.16" style="stroke:rgb(74,236,41);stroke-width:39.370079;fill:none;stroke-opacity:0.5;stroke-linecap:round;stroke-linejoin:round;;fill:none"/>
<polyline points="2615.75,2877.16 2617.23,2892.32 2622.16,2908.87 2631.54,2925.76 2641.65,2937.15 2658.92,2949.7 2672.88,2955.8 2691.84,2959.5 2709.1,2959.07 2723.97,2955.8 2739.76,2948.77 2753.75,2938.61 2765.31,2925.76 2773.02,2912.63 2778.76,2896.34 2781.1,2877.16 2779.62,2862.01 2774.69,2845.46 2765.31,2828.57 2755.2,2817.18 2737.93,2804.63 2723.97,2798.53 2705.01,2794.83 2687.75,2795.26 2672.88,2798.53 2657.09,2805.56 2643.1,2815.72 2631.54,2828.57 2623.83,2841.7 2618.09,2857.98 2615.75,2877.16" style="stroke:rgb(0,0,0);stroke-width:1px;fill:none;stroke-opacity:1;stroke-linecap:round;stroke-linejoin:round;;fill:none"/>
<polyline points="1415.75,877.164 1417.23,892.32 1422.16,908.868 1431.54,925.762 1441.65,937.148 1458.92,949.7 1472.88,955.796 1491.84,959.496 1509.1,959.066 1523.97,955.796 1539.76,948.766 1553.75,938.606 1565.31,925.762 1573.02,912.628 1578.76,896.344 1581.1,877.164 1579.62,862.01 1574.69,845.46 1565.31,828.568 1555.2,817.18 1537.93,804.628 1523.97,798.534 1505.01,794.832 1487.75,795.262 1472.88,798.534 1457.09,805.564 1443.1,815.724 1431.54,828.568 1423.83,841.7 1418.09,857.984 1415.75,877.164" style="stroke:rgb(205,186,171);stroke-width:39.370079;fill:none;stroke-opacity:0.5;stroke-linecap:round;stroke-linejoin:round;;fill:none"/>
<polyline points="1415.75,877.164 1417.23,892.32 1422.16,908.868 1431.54,925.762 1441.65,937.148 1458.92,949.7 1472.88,955.796 1491.84,959.496 1509.1,959.066 1523.97,955.796 1539.76,948.766 1553.75,938.606 1565.31,925.762 1573.02,912.628 1578.76,896.344 1581.1,877.164 1579.62,862.01 1574.69,845.46 1565.31,828.568 1555.2,817.18 1537.93,804.628 1523.97,798.534 1505.01,794.832 1487.75,795.262 1472.88,798.534 1457.09,805.564 1443.1,815.724 1431.54,828.568 1423.83,841.7 1418.09,857.984 1415.75,877.164" style="stroke:rgb(0,0,0);stroke-width:1px;fill:none;stroke-opacity:1;stroke-linecap:round;stroke-linejoin:round;;fill:none"/>
<polyline points="1415.75,1077.16 1417.23,1092.32 1422.16,1108.87 1431.54,1125.76 1441.65,1137.15 1458.92,1149.7 1472.88,1155.8 1491.84,1159.5 1509.1,1159.07 1523.97,1155.8 1539.76,1148.77 1553.75,1138.61 1565.31,1125.76 1573.02,1112.63 1578.76,1096.34 1581.1,1077.16 1579.62,1062.01 1574.69,1045.46 1565.31,1028.57 1555.2,1017.18 1537.93,1004.63 1523.97,998.534 1505.01,994.832 1487.75,995.262 1472.88,998.534 1457.09,1005.56 1443.1,1015.72 1431.54,1028.57 1423.83,1041.7 1418.09,1057.98 1415.75,1077.16" style="stroke:rgb(242,251,227);stroke-width:39.370079;fill:none;stroke-opacity:0.5;stroke-linecap:round;stroke-linejoin:round;;fill:none"/>
<polyline points="1415.75,1077.16 1417.23,1092.32 1422.16,1108.87 1431.54,1125.76 1441.65,1137.15 1458.92,1149.7 1472.88,1155.8 1491.84,1159.5 1509.1,1159.07 1523.97,1155.8 1539.76,1148.77 1553.75,1138.61 1565.31,1125.76 1573.02,1112.63 1578.76,1096.34 1581.1,1077.16 1579.62,1062.01 1574.69,1045.46 1565.31,1028.57 1555.2,1017.18 1537.93,1004.63 1523.97,998.534 1505.01,994.832 1487.75,995.262 1472.88,998.534 1457.09,1005.56 1443.1,1015.72 1431.54,1028.57 1423.83,1041.7 1418.09,1057.98 1415.75,1077.16" style="stroke:rgb(0,0,0);stroke-width:1px;fill:none;stroke-opacity:1;stroke-linecap:round;stroke-linejoin:round;;fill:none"/>
<polyline points="2615.75,2477.16 2617.23,2492.32 2622.16,2508.87 2631.54,2525.76 2641.65,2537.15 2658.92,2549.7 2672.88,2555.8 2691.84,2559.5 2709.1,2559.07 2723.97,2555.8 2739.76,2548.77 2753.75,2538.61 2765.31,2525.76 2773.02,2512.63 2778.76,2496.34 2781.1,2477.16 2779.62,2462.01 2774.69,2445.46 2765.31,2428.57 2755.2,2417.18 2737.93,2404.63 2723.97,2398.53 2705.01,2394.83 2687.75,2395.26 2672.88,2398.53 2657.09,2405.56 2643.1,2415.72 2631.54,2428.57 2623.83,2441.7 2618.09,2457.98 2615.75,2477.16" style="stroke:rgb(70,124,194);stroke-width:39.370079;fill:none;stroke-opacity:0.5;stroke-linecap:round;stroke-linejoin:round;;fill:none"/>
<polyline points="2615.75,2477.16 2617.23,2492.32 2622.16,2508.87 2631.54,2525.76 2641.65,2537.15 2658.92,2549.7 2672.88,2555.8 2691.84,2559.5 2709.1,2559.07 2723.97,2555.8 2739.76,2548.77 2753.75,2538.61 2765.31,2525.76 2773.02,2512.63 2778.76,2496.34 2781.1,2477.16 2779.62,2462.01 2774.69,2445.46 2765.31,2428.57 2755.2,2417.18 2737.93,2404.63 2723.97,2398.53 2705.01,2394.83 2687.75,2395.26 2672.88,2398.53 2657.09,2405.56 2643.1,2415.72 2631.54,2428.57 2623.83,2441.7 2618.09,2457.98 2615.75,2477.16" style="stroke:rgb(0,0,0);stroke-width:1px;fill:none;stroke-opacity:1;stroke-linecap:round;stroke-linejoin:round;;fill:none"/>
<polyline points="2615.75,2277.16 2617.23,2292.32 2622.16,2308.87 2631.54,2325.76 2641.65,2337.15 2658.92,2349.7 2672.88,2355.8 2691.84,2359.5 2709.1,2359.07 2723.97,2355.8 2739.76,2348.77 2753.75,2338.61 2765.31,2325.76 2773.02,2312.63 2778.76,2296.34 2781.1,2277.16 2779.62,2262.01 2774.69,2245.46 2765.31,2228.57 2755.2,2217.18 2737.93,2204.63 2723.97,2198.53 2705.01,2194.83 2687.75,2195.26 2672.88,2198.53 2657.09,2205.56 2643.1,2215.72 2631.54,2228.57 2623.83,2241.7 2618.09,2257.98 2615.75,2277.16" style="stroke:rgb(84,248,27);stroke-width:39.370079;fill:none;stroke-opacity:0.5;stroke-linecap:round;stroke-linejoin:round;;fill:none"/>
<polyline points="2615.75,2277.16 2617.23,2292.32 2622.16,2308.87 2631.54,2325.76 2641.65,2337.15 2658.92,2349.7 2672.88,2355.8 2691.84,2359.5 2709.1,2359.07 2723.97,2355.8 2739.76,2348.77 2753.75,2338.61 2765.31,2325.76 2773.02,2312.63 2778.76,2296.34 2781.1,2277.16 2779.62,2262.01 2774.69,2245.46 2765.31,2228.57 2755.2,2217.18 2737.93,2204.63 2723.97,2198.53 2705.01,2194.83 2687.75,2195.26 2672.88,2198.53 2657.09,2205.56 2643.1,2215.72 2631.54,2228.57 2623.83,2241.7 2618.09,2257.98 2615.75,2277.16" style="stroke:rgb(0,0,0);stroke-width:1px;fill:none;stroke-opacity:1;stroke-linecap:round;stroke-linejoin:round;;fill:none"/>
<polyline points="2615.75,2077.16 2617.23,2092.32 2622.16,2108.87 2631.54,2125.76 2641.65,2137.15 2658.92,2149.7 2672.88,2155.8 2691.84,2159.5 2709.1,2159.07 2723.97,2155.8 2739.76,2148.77 2753.75,2138.61 2765.31,2125.76 2773.02,2112.63 2778.76,2096.34 2781.1,2077.16 2779.62,2062.01 2774.69,2045.46 2765.31,2028.57 2755.2,2017.18 2737.93,2004.63 2723.97,1998.53 2705.01,1994.83 2687.75,1995.26 2672.88,1998.53 2657.09,2005.56 2643.1,2015.72 2631.54,2028.57 2623.83,2041.7 2618.09,2057.98 2615.75,2077.16" style="stroke:rgb(232,231,141);stroke-width:39.370079;fill:none;stroke-opacity:0.5;stroke-linecap:round;stroke-linejoin:round;;fill:none"/>
<polyline points="2615.75,2077.16 2617.23,2092.32 2622.16,2108.87 2631.54,2125.76 2641.65,2137.15 2658.92,2149.7 2672.88,2155.8 2691.84,2159.5 2709.1,2159.07 2723.97,2155.8 2739.76,2148.77 2753.75,2138.61 2765.31,2125.76 2773.02,2112.63 2778.76,2096.34 2781.1,2077.16 2779.62,2062.01 2774.69,2045.46 2765.31,2028.57 2755.2,2017.18 2737.93,2004.63 2723.97,1998.53 2705.01,1994.83 2687.75,1995.26 2672.88,1998.53 2657.09,2005.56 2643.1,2015.72 2631.54,2028.57 2623.83,2041.7 2618.09,2057.98 2615.75,2077.16" style="stroke:rgb(0,0,0);stroke-width:1px;fill:none;stroke-opacity:1;stroke-linecap:round;stroke-linejoin:round;;fill:none"/>
<polyline points="1415.75,1877.16 1417.23,1892.32 1422.16,1908.87 1431.54,1925.76 1441.65,1937.15 1458.92,1949.7 1472.88,1955.8 1491.84,1959.5 1509.1,1959.07 1523.97,1955.8 1539.76,1948.77 1553.75,1938.61 1565.31,1925.76 1573.02,1912.63 1578.76,1896.34 1581.1,1877.16 1579.62,1862.01 1574.69,1845.46 1565.31,1828.57 1555.2,1817.18 1537.93,1804.63 1523.97,1798.53 1505.01,1794.83 1487.75,1795.26 1472.88,1798.53 1457.09,1805.56 1443.1,1815.72 1431.54,1828.57 1423.83,1841.7 1418.09,1857.98 1415.75,1877.16" style="stroke:rgb(118,90,46);stroke-width:39.370079;fill:none;stroke-opacity:0.5;stroke-linecap:round;stroke-linejoin:round;;fill:none"/>
<polyline points="1415.75,1877.16 1417.23,1892.32 1422.16,1908.87 1431.54,1925.76 1441.65,1937.15 1458.92,1949.7 1472.88,1955.8 1491.84,1959.5 1509.1,1959.07 1523.97,1955.8 1539.76,1948.77 1553.75,1938.61 1565.31,1925.76 1573.02,1912.63 1578.76,1896.34 1581.1,1877.16 1579.62,1862.01 1574.69,1845.46 1565.31,1828.57 1555.2,1817.18 1537.93,1804.63 1523.97,1798.53 1505.01,1794.83 1487.75,1795.26 1472.88,1798.53 1457.09,1805.56 1443.1,1815.72 1431.54,1828.57 1423.83,1841.7 1418.09,1857.98 1415.75,1877.16" style="stroke:rgb(0,0,0);stroke-width:1px;fill:none;stroke-opacity:1;stroke-linecap:round;stroke-linejoin:round;;fill:none"/>
<polyline points="1415.75,2077.16 1417.23,2092.32 1422.16,2108.87 1431.54,2125.76 1441.65,2137.15 1458.92,2149.7 1472.88,2155.8 1491.84,2159.5 1509.1,2159.07 1523.97,2155.8 1539.76,2148.77 1553.75,2138.61 1565.31,2125.76 1573.02,2112.63 1578.76,2096.34 1581.1,2077.16 1579.62,2062.01 1574.69,2045.46 1565.31,2028.57 1555.2,2017.18 1537.93,2004.63 1523.97,1998.53 1505.01,1994.83 1487.75,1995.26 1472.88,1998.53 1457.09,2005.56 1443.1,2015.72 1431.54,2028.57 1423.83,2041.7 1418.09,2057.98 1415.75,2077.16" style="stroke:rgb(99,51,159);stroke-width:39.370079;fill:none;stroke-opacity:0.5;stroke-linecap:round;stroke-linejoin:round;;fill:none"/>
<polyline points="1415.75,2077.16 1417.23,2092.32 1422.16,2108.87 1431.54,2125.76 1441.65,2137.15 1458.92,2149.7 1472.88,2155.8 1491.84,2159.5 1509.1,2159.07 1523.97,2155.8 1539.76,2148.77 1553.75,2138.61 1565.31,2125.76 1573.02,2112.63 1578.76,2096.34 1581.1,2077.16 1579.62,2062.01 1574.69,2045.46 1565.31,2028.57 1555.2,2017.18 1537.93,2004.63 1523.97,1998.53 1505.01,1994.83 1487.75,1995.26 1472.88,1998.53 1457.09,2005.56 1443.1,2015.72 1431.54,2028.57 1423.83,2041.7 1418.09,2057.98 1415.75,2077.16" style="stroke:rgb(0,0,0);stroke-width:1px;fill:none;stroke-opacity:1;stroke-linecap:round;stroke-linejoin:round;;fill:none"/>
<polyline points="2615.75,1477.16 2617.23,1492.32 2622.16,1508.87 2631.54,1525.76 2641.65,1537.15 2658.92,1549.7 2672.88,1555.8 2691.84,1559.5 2709.1,1559.07 2723.97,1555.8 2739.76,1548.77 2753.75,1538.61 2765.31,1525.76 2773.02,1512.63 2778.76,1496.34 2781.1,1477.16 2779.62,1462.01 2774.69,1445.46 2765.31,1428.57 2755.2,1417.18 2737.93,1404.63 2723.97,1398.53 2705.01,1394.83 2687.75,1395.26 2672.88,1398.53 2657.09,1405.56 2643.1,1415.72 2631.54,1428.57 2623.83,1441.7 2618.09,1457.98 2615.75,1477.16" style="stroke:rgb(201,154,102);stroke-width:39.370079;fill:none;stroke-opacity:0.5;stroke-linecap:round;stroke-linejoin:round;;fill:none"/>
<polyline points="2615.75,1477.16 2617.23,1492.32 2622.16,1508.87 2631.54,1525.76 2641.65,1537.15 2658.92,1549.7 2672.88,1555.8 2691.84,1559.5 2709.1,1559.07 2723.97,1555.8 2739.76,1548.77 2753.75,1538.61 2765.31,1525.76 2773.02,1512.63 2778.76,1496.34 2781.1,1477.16 2779.62,1462.01 2774.69,1445.46 2765.31,1428.57 2755.2,1417.18 2737.93,1404.63 2723.97,1398.53 2705.01,1394.83 2687.75,1395.26 2672.88,1398.53 2657.09,1405.56 2643.1,1415.72 2631.54,1428.57 2623.83,1441.7 2618.09,1457.98 2615.75,1477.16" style="stroke:rgb(0,0,0);stroke-width:1px;fill:none;stroke-opacity:1;stroke-linecap:round;stroke-linejoin:round;;fill:none"/>
<polyline points="1415.75,2277.16 1417.23,2292.32 1422.16,2308.87 1431.54,2325.76 1441.65,2337.15 1458.92,2349.7 1472.88,2355.8 1491.84,2359.5 1509.1,2359.07 1523.97,2355.8 1539.76,2348.77 1553.75,2338.61 1565.31,2325.76 1573.02,2312.63 1578.76,2296.34 1581.1,2277.16 1579.62,2262.01 1574.69,2245.46 1565.31,2228.57 1555.2,2217.18 1537.93,2204.63 1523.97,2198.53 1505.01,2194.83 1487.75,2195.26 1472.88,2198.53 1457.09,2205.56 1443.1,2215.72 1431.54,2228.57 1423.83,2241.7 1418.09,2257.98 1415.75,2277.16" style="stroke:rgb(50,13,183);stroke-width:39.370079;fill:none;stroke-opacity:0.5;stroke-linecap:round;stroke-linejoin:round;;fill:none"/>
<polyline points="1415.75,2277.16 1417.23,2292.32 1422.16,2308.87 1431.54,2325.76 1441.65,2337.15 1458.92,2349.7 1472.88,2355.8 1491.84,2359.5 1509.1,2359.07 1523.97,2355.8 1539.76,2348.77 1553.75,2338.61 1565.31,2325.76 1573.02,2312.63 1578.76,2296.34 1581.1,2277.16 1579.62,2262.01 1574.69,2245.46 1565.31,2228.57 1555.2,2217.18 1537.93,2204.63 1523.97,2198.53 1505.01,2194.83 1487.75,2195.26 1472.88,2198.53 1457.09,2205.56 1443.1,2215.72 1431.54,2228.57 1423.83,2241.7 1418.09,2257.98 1415.75,2277.16" style="stroke:rgb(0,0,0);stroke-width:1px;fill:none;stroke-opacity:1;stroke-linecap:round;stroke-linejoin:round;;fill:none"/>
<polyline points="2615.75,1277.16 2617.23,1292.32 2622.16,1308.87 2631.54,1325.76 2641.65,1337.15 2658.92,1349.7 2672.88,1355.8 2691.84,1359.5 2709.1,1359.07 2723.97,1355.8 2739.76,1348.77 2753.75,1338.61 2765.31,1325.76 2773.02,1312.63 2778.76,1296.34 2781.1,1277.16 2779.62,1262.01 2774.69,1245.46 2765.31,1228.57 2755.2,1217.18 2737.93,1204.63 2723.97,1198.53 2705.01,1194.83 2687.75,1195.26 2672.88,1198.53 2657.09,1205.56 2643.1,1215.72 2631.54,1228.57 2623.83,1241.7 2618.09,1257.98 2615.75,1277.16" style="stroke:rgb(49,88,163);stroke-width:39.370079;fill:none;stroke-opacity:0.5;stroke-linecap:round;stroke-linejoin:round;;fill:none"/>
<polyline points="2615.75,1277.16 2617.23,1292.32 2622.16,1308.87 2631.54,1325.76 2641.65,1337.15 2658.92,1349.7 2672.88,1355.8 2691.84,1359.5 2709.1,1359.07 2723.97,1355.8 2739.76,1348.77 2753.75,1338.61 2765.31,1325.76 2773.02,1312.63 2778.76,1296.34 2781.1,1277.16 2779.62,1262.01 2774.69,1245.46 2765.31,1228.57 2755.2,1217.18 2737.93,1204.63 2723.97,1198.53 2705.01,1194.83 2687.75,1195.26 2672.88,1198.53 2657.09,1205.56 2643.1,1215.72 2631.54,1228.57 2623.83,1241.7 2618.09,1257.98 2615.75,1277.16" style="stroke:rgb(0,0,0);stroke-width:1px;fill:none;stroke-opacity:1;stroke-linecap:round;stroke-linejoin:round;;fill:none"/>
<polyline points="1415.75,2477.16 1417.23,2492.32 1422.16,2508.87 1431.54,2525.76 1441.65,2537.15 1458.92,2549.7 1472.88,2555.8 1491.84,2559.5 1509.1,2559.07 1523.97,2555.8 1539.76,2548.77 1553.75,2538.61 1565.31,2525.76 1573.02,2512.63 1578.76,2496.34 1581.1,2477.16 1579.62,2462.01 1574.69,2445.46 1565.31,2428.57 1555.2,2417.18 1537.93,2404.63 1523.97,2398.53 1505.01,2394.83 1487.75,2395.26 1472.88,2398.53 1457.09,2405.56 1443.1,2415.72 1431.54,2428.57 1423.83,2441.7 1418.09,2457.98 1415.75,2477.16" style="stroke:rgb(90,37,93);stroke-width:39.370079;fill:none;stroke-opacity:0.5;stroke-linecap:round;stroke-linejoin:round;;fill:none"/>
<polyline points="1415.75,2477.16 1417.23,2492.32 1422.16,2508.87 1431.54,2525.76 1441.65,2537.15 1458.92,2549.7 1472.88,2555.8 1491.84,2559.5 1509.1,2559.07 1523.97,2555.8 1539.76,2548.77 1553.75,2538.61 1565.31,2525.76 1573.02,2512.63 1578.76,2496.34 1581.1,2477.16 1579.62,2462.01 1574.69,2445.46 1565.31,2428.57 1555.2,2417.18 1537.93,2404.63 1523.97,2398.53 1505.01,2394.83 1487.75,2395.26 1472.88,2398.53 1457.09,2405.56 1443.1,2415.72 1431.54,2428.57 1423.83,2441.7 1418.09,2457.98 1415.75,2477.16" style="stroke:rgb(0,0,0);stroke-width:1px;fill:none;stroke-opacity:1;stroke-linecap:round;stroke-linejoin:round;;fill:none"/>
<polyline points="1415.75,2677.16 1417.23,2692.32 1422.16,2708.87 1431.54,2725.76 1441.65,2737.15 1458.92,2749.7 1472.88,2755.8 1491.84,2759.5 1509.1,2759.07 1523.97,2755.8 1539.76,2748.77 1553.75,2738.61 1565.31,2725.76 1573.02,2712.63 1578.76,2696.34 1581.1,2677.16 1579.62,2662.01 1574.69,2645.46 1565.31,2628.57 1555.2,2617.18 1537.93,2604.63 1523.97,2598.53 1505.01,2594.83 1487.75,2595.26 1472.88,2598.53 1457.09,2605.56 1443.1,2615.72 1431.54,2628.57 1423.83,2641.7 1418.09,2657.98 1415.75,2677.16" style="stroke:rgb(5,23,88);stroke-width:39.370079;fill:none;stroke-opacity:0.5;stroke-linecap:round;stroke-linejoin:round;;fill:none"/>
<polyline points="1415.75,2677.16 1417.23,2692.32 1422.16,2708.87 1431.54,2725.76 1441.65,2737.15 1458.92,2749.7 1472.88,2755.8 1491.84,2759.5 1509.1,2759.07 1523.97,2755.8 1539.76,2748.77 1553.75,2738.61 1565.31,2725.76 1573.02,2712.63 1578.76,2696.34 1581.1,2677.16 1579.62,2662.01 1574.69,2645.46 1565.31,2628.57 1555.2,2617.18 1537.93,2604.63 1523.97,2598.53 1505.01,2594.83 1487.75,2595.26 1472.88,2598.53 1457.09,2605.56 1443.1,2615.72 1431.54,2628.57 1423.83,2641.7 1418.09,2657.98 1415.75,2677.16" style="stroke:rgb(0,0,0);stroke-width:1px;fill:none;stroke-opacity:1;stroke-linecap:round;stroke-linejoin:round;;fill:none"/>
<polyline points="2615.75,877.164 2617.23,892.32 2622.16,908.868 2631.54,925.762 2641.65,937.148 2658.92,949.7 2672.88,955.796 2691.84,959.496 2709.1,959.066 2723.97,955.796 2739.76,948.766 2753.75,938.606 2765.31,925.762 2773.02,912.628 2778.76,896.344 2781.1,877.164 2779.62,862.01 2774.69,845.46 2765.31,828.568 2755.2,817.18 2737.93,804.628 2723.97,798.534 2705.01,794.832 2687.75,795.262 2672.88,798.534 2657.09,805.564 2643.1,815.724 2631.54,828.568 2623.83,841.7 2618.09,857.984 2615.75,877.164" style="stroke:rgb(233,94,212);stroke-width:39.370079;fill:none;stroke-opacity:0.5;stroke-linecap:round;stroke-linejoin:round;;fill:none"/>
<polyline points="2615.75,877.164 2617.23,892.32 2622.16,908.868 2631.54,925.762 2641.65,937.148 2658.92,949.7 2672.88,955.796 2691.84,959.496 2709.1,959.066 2723.97,955.796 2739.76,948.766 2753.75,938.606 2765.31,925.762 2773.02,912.628 2778.76,896.344 2781.1,877.164 2779.62,862.01 2774.69,845.46 2765.31,828.568 2755.2,817.18 2737.93,804.628 2723.97,798.534 2705.01,794.832 2687.75,795.262 2672.88,798.534 2657.09,805.564 2643.1,815.724 2631.54,828.568 2623.83,841.7 2618.09,857.984 2615.75,877.164" style="stroke:rgb(0,0,0);stroke-width:1px;fill:none;stroke-opacity:1;stroke-linecap:round;stroke-linejoin:round;;fill:none"/>
<polyline points="1415.75,2877.16 1417.23,2892.32 1422.16,2908.87 1431.54,2925.76 1441.65,2937.15 1458.92,2949.7 1472.88,2955.8 1491.84,2959.5 1509.1,2959.07 1523.97,2955.8 1539.76,2948.77 1553.75,2938.61 1565.31,2925.76 1573.02,2912.63 1578.76,2896.34 1581.1,2877.16 1579.62,2862.01 1574.69,2845.46 1565.31,2828.57 1555.2,2817.18 1537.93,2804.63 1523.97,2798.53 1505.01,2794.83 1487.75,2795.26 1472.88,2798.53 1457.09,2805.56 1443.1,2815.72 1431.54,2828.57 1423.83,2841.7 1418.09,2857.98 1415.75,2877.16" style="stroke:rgb(171,178,205);stroke-width:39.370079;fill:none;stroke-opacity:0.5;stroke-linecap:round;stroke-linejoin:round;;fill:none"/>
<polyline points="1415.75,2877.16 1417.23,2892.32 1422.16,2908.87 1431.54,2925.76 1441.65,2937.15 1458.92,2949.7 1472.88,2955.8 1491.84,2959.5 1509.1,2959.07 1523.97,2955.8 1539.76,2948.77 1553.75,2938.61 1565.31,2925.76 1573.02,2912.63 1578.76,2896.34 1581.1,2877.16 1579.62,2862.01 1574.69,2845.46 1565.31,2828.57 1555.2,2817.18 1537.93,2804.63 1523.97,2798.53 1505.01,2794.83 1487.75,2795.26 1472.88,2798.53 1457.09,2805.56 1443.1,2815.72 1431.54,2828.57 1423.83,2841.7 1418.09,2857.98 1415.75,2877.16" style="stroke:rgb(0,0,0);stroke-width:1px;fill:none;stroke-opacity:1;stroke-linecap:round;stroke-linejoin:round;;fill:none"/>
<polyline points="2615.75,677.164 2617.23,692.32 2622.16,708.868 2631.54,725.762 2641.65,737.148 2658.92,749.7 2672.88,755.796 2691.84,759.496 2709.1,759.066 2723.97,755.796 2739.76,748.766 2753.75,738.606 2765.31,725.762 2773.02,712.628 2778.76,696.344 2781.1,677.164 2779.62,662.01 2774.69,645.46 2765.31,628.568 2755.2,617.18 2737.93,604.628 2723.97,598.534 2705.01,594.832 2687.75,595.262 2672.88,598.534 2657.09,605.564 2643.1,615.724 2631.54,628.568 2623.83,641.7 2618.09,657.984 2615.75,677.164" style="stroke:rgb(198,155,180);stroke-width:39.370079;fill:none;stroke-opacity:0.5;stroke-linecap:round;stroke-linejoin:round;;fill:none"/>
<polyline points="2615.75,677.164 2617.23,692.32 2622.16,708.868 2631.54,725.762 2641.65,737.148 2658.92,749.7 2672.88,755.796 2691.84,759.496 2709.1,759.066 2723.97,755.796 2739.76,748.766 2753.75,738.606 2765.31,725.762 2773.02,712.628 2778.76,696.344 2781.1,677.164 2779.62,662.01 2774.69,645.46 2765.31,628.568 2755.2,617.18 2737.93,604.628 2723.97,598.534 2705.01,594.832 2687.75,595.262 2672.88,598.534 2657.09,605.564 2643.1,615.724 2631.54,628.568 2623.83,641.7 2618.09,657.984 2615.75,677.164" style="stroke:rgb(0,0,0);stroke-width:1px;fill:none;stroke-opacity:1;stroke-linecap:round;stroke-linejoin:round;;fill:none"/>
<polyline points="2615.75,477.164 2617.23,492.32 2622.16,508.868 2631.54,525.762 2641.65,537.148 2658.92,549.7 2672.88,555.796 2691.84,559.496 2709.1,559.066 2723.97,555.796 2739.76,548.766 2753.75,538.606 2765.31,525.762 2773.02,512.628 2778.76,496.344 2781.1,477.164 2779.62,462.01 2774.69,445.46 2765.31,428.568 2755.2,417.18 2737.93,404.628 2723.97,398.534 2705.01,394.832 2687.75,395.262 2672.88,398.534 2657.09,405.564 2643.1,415.724 2631.54,428.568 2623.83,441.7 2618.09,457.984 2615.75,477.164" style="stroke:rgb(84,17,14);stroke-width:39.370079;fill:none;stroke-opacity:0.5;stroke-linecap:round;stroke-linejoin:round;;fill:none"/>
<polyline points="2615.75,477.164 2617.23,492.32 2622.16,508.868 2631.54,525.762 2641.65,537.148 2658.92,549.7 2672.88,555.796 2691.84,559.496 2709.1,559.066 2723.97,555.796 2739.76,548.766 2753.75,538.606 2765.31,525.762 2773.02,512.628 2778.76,496.344 2781.1,477.164 2779.62,462.01 2774.69,445.46 2765.31,428.568 2755.2,417.18 2737.93,404.628 2723.97,398.534 2705.01,394.832 2687.75,395.262 2672.88,398.534 2657.09,405.564 2643.1,415.724 2631.54,428.568 2623.83,441.7 2618.09,457.984 2615.75,477.164" style="stroke:rgb(0,0,0);stroke-width:1px;fill:none;stroke-opacity:1;stroke-linecap:round;stroke-linejoin:round;;fill:none"/>
<polyline points="2615.75,3277.16 2617.23,3292.32 2622.16,3308.87 2631.54,3325.76 2641.65,3337.15 2658.92,3349.7 2672.88,3355.8 2691.84,3359.5 2709.1,3359.07 2723.97,3355.8 2739.76,3348.77 2753.75,3338.61 2765.31,3325.76 2773.02,3312.63 2778.76,3296.34 2781.1,3277.16 2779.62,3262.01 2774.69,3245.46 2765.31,3228.57 2755.2,3217.18 2737.93,3204.63 2723.97,3198.53 2705.01,3194.83 2687.75,3195.26 2672.88,3198.53 2657.09,3205.56 2643.1,3215.72 2631.54,3228.57 2623.83,3241.7 2618.09,3257.98 2615.75,3277.16" style="stroke:rgb(130,116,65);stroke-width:39.370079;fill:none;stroke-opacity:0.5;stroke-linecap:round;stroke-linejoin:round;;fill:none"/>
<polyline points="2615.75,3277.16 2617.23,3292.32 2622.16,3308.87 2631.54,3325.76 2641.65,3337.15 2658.92,3349.7 2672.88,3355.8 2691.84,3359.5 2709.1,3359.07 2723.97,3355.8 2739.76,3348.77 2753.75,3338.61 2765.31,3325.76 2773.02,3312.63 2778.76,3296.34 2781.1,3277.16 2779.62,3262.01 2774.69,3245.46 2765.31,3228.57 2755.2,3217.18 2737.93,3204.63 2723.97,3198.53 2705.01,3194.83 2687.75,3195.26 2672.88,3198.53 2657.09,3205.56 2643.1,3215.72 2631.54,3228.57 2623.83,3241.7 2618.09,3257.98 2615.75,3277.16" style="stroke:rgb(0,0,0);stroke-width:1px;fill:none;stroke-opacity:1;stroke-linecap:round;stroke-linejoin:round;;fill:none"/>
<polyline points="885.432,1126.38 885.432,984.644 886.93,977.112 891.198,970.726 897.584,966.458 905.116,964.96 1046.85,964.96 1054.38,966.458 1060.77,970.726 1065.04,977.112 1066.53,984.644 1066.53,1126.38 1065.04,1133.91 1060.77,1140.3 1054.38,1144.56 1046.85,1146.06 905.116,1146.06 897.584,1144.56 891.198,1140.3 886.93,1133.91 885.432,1126.38" style="stroke:rgb(33,61,220);stroke-width:39.370079;fill:none;stroke-opacity:0.5;stroke-linecap:round;stroke-linejoin:round;;fill:none"/>
<polyline points="885.432,1126.38 885.432,984.644 886.93,977.112 891.198,970.726 897.584,966.458 905.116,964.96 1046.85,964.96 1054.38,966.458 1060.77,970.726 1065.04,977.112 1066.53,984.644 1066.53,1126.38 1065.04,1133.91 1060.77,1140.3 1054.38,1144.56 1046.85,1146.06 905.116,1146.06 897.584,1144.56 891.198,1140.3 886.93,1133.91 885.432,1126.38" style="stroke:rgb(0,0,0);stroke-width:1px;fill:none;stroke-opacity:1;stroke-linecap:round;stroke-linejoin:round;;fill:none"/>
<polyline points="3089.37,1322.44 3089.37,1188.58 3090.87,1181.05 3095.13,1174.66 3101.52,1170.4 3109.05,1168.9 3242.91,1168.9 3250.45,1170.4 3256.83,1174.66 3261.1,1181.05 3262.6,1188.58 3262.6,1322.44 3261.1,1329.97 3256.83,1336.36 3250.45,1340.63 3242.91,1342.13 3109.05,1342.13 3101.52,1340.63 3095.13,1336.36 3090.87,1329.97 3089.37,1322.44" style="stroke:rgb(135,112,233);stroke-width:39.370079;fill:none;stroke-opacity:0.5;stroke-linecap:round;stroke-linejoin:round;;fill:none"/>
<polyline points="3089.37,1322.44 3089.37,1188.58 3090.87,1181.05 3095.13,1174.66 3101.52,1170.4 3109.05,1168.9 3242.91,1168.9 3250.45,1170.4 3256.83,1174.66 3261.1,1181.05 3262.6,1188.58 3262.6,1322.44 3261.1,1329.97 3256.83,1336.36 3250.45,1340.63 3242.91,1342.13 3109.05,1342.13 3101.52,1340.63 3095.13,1336.36 3090.87,1329.97 3089.37,1322.44" style="stroke:rgb(0,0,0);stroke-width:1px;fill:none;stroke-opacity:1;stroke-linecap:round;stroke-linejoin:round;;fill:none"/>
<polyline points="1089.37,3722.44 1089.37,3588.58 1090.87,3581.05 1095.13,3574.66 1101.52,3570.4 1109.05,3568.9 1242.91,3568.9 1250.45,3570.4 1256.83,3574.66 1261.1,3581.05 1262.6,3588.58 1262.6,3722.44 1261.1,3729.97 1256.83,3736.36 1250.45,3740.63 1242.91,3742.12 1109.05,3742.12 1101.52,3740.63 1095.13,3736.36 1090.87,3729.97 1089.37,3722.44" style="stroke:rgb(62,161,65);stroke-width:39.370079;fill:none;stroke-opacity:0.5;stroke-linecap:round;stroke-linejoin:round;;fill:none"/>
<polyline points="1089.37,3722.44 1089.37,3588.58 1090.87,3581.05 1095.13,3574.66 1101.52,3570.4 1109.05,3568.9 1242.91,3568.9 1250.45,3570.4 1256.83,3574.66 1261.1,3581.05 1262.6,3588.58 1262.6,3722.44 1261.1,3729.97 1256.83,3736.36 1250.45,3740.63 1242.91,3742.12 1109.05,3742.12 1101.52,3740.63 1095.13,3736.36 1090.87,3729.97 1089.37,3722.44" style="stroke:rgb(0,0,0);stroke-width:1px;fill:none;stroke-opacity:1;stroke-linecap:round;stroke-linejoin:round;;fill:none"/>
<polyline points="389.368,3722.44 389.368,3588.58 390.868,3581.05 395.134,3574.66 401.52,3570.4 409.054,3568.9 542.912,3568.9 550.446,3570.4 556.832,3574.66 561.098,3581.05 562.598,3588.58 562.598,3722.44 561.098,3729.97 556.832,3736.36 550.446,3740.63 542.912,3742.12 409.054,3742.12 401.52,3740.63 395.134,3736.36 390.868,3729.97 389.368,3722.44" style="stroke:rgb(225,252,103);stroke-width:39.370079;fill:none;stroke-opacity:0.5;stroke-linecap:round;stroke-linejoin:round;;fill:none"/>
<polyline points="389.368,3722.44 389.368,3588.58 390.868,3581.05 395.134,3574.66 401.52,3570.4 409.054,3568.9 542.912,3568.9 550.446,3570.4 556.832,3574.66 561.098,3581.05 562.598,3588.58 562.598,3722.44 561.098,3729.97 556.832,3736.36 550.446,3740.63 542.912,3742.12 409.054,3742.12 401.52,3740.63 395.134,3736.36 390.868,3729.97 389.368,3722.44" style="stroke:rgb(0,0,0);stroke-width:1px;fill:none;stroke-opacity:1;stroke-linecap:round;stroke-linejoin:round;;fill:none"/>
<polyline points="389.422,3256.53 390.94,3239.54 396.118,3222.21 405.91,3204.6 416.57,3192.6 430.948,3181.62 447.294,3173.87 468.988,3169.26 487.072,3169.69 502.748,3173.14 517.454,3179.57 533.94,3191.14 546.056,3204.6 554.174,3218.45 560.172,3235.51 562.598,3255.51 561.026,3271.48 555.848,3288.82 546.056,3306.42 535.396,3318.42 521.018,3329.4 504.672,3337.15 482.978,3341.76 464.894,3341.33 449.218,3337.89 434.512,3331.46 418.026,3319.88 405.91,3306.42 397.792,3292.58 391.794,3275.51 389.422,3256.53" style="stroke:rgb(62,1,126);stroke-width:39.370079;fill:none;stroke-opacity:0.5;stroke-linecap:round;stroke-linejoin:round;;fill:none"/>
<polyline points="389.422,3256.53 390.94,3239.54 396.118,3222.21 405.91,3204.6 416.57,3192.6 430.948,3181.62 447.294,3173.87 468.988,3169.26 487.072,3169.69 502.748,3173.14 517.454,3179.57 533.94,3191.14 546.056,3204.6 554.174,3218.45 560.172,3235.51 562.598,3255.51 561.026,3271.48 555.848,3288.82 546.056,3306.42 535.396,3318.42 521.018,3329.4 504.672,3337.15 482.978,3341.76 464.894,3341.33 449.218,3337.89 434.512,3331.46 418.026,3319.88 405.91,3306.42 397.792,3292.58 391.794,3275.51 389.422,3256.53" style="stroke:rgb(0,0,0);stroke-width:1px;fill:none;stroke-opacity:1;stroke-linecap:round;stroke-linejoin:round;;fill:none"/>
<polyline points="389.368,2222.44 389.368,2088.58 390.868,2081.05 395.134,2074.66 401.52,2070.4 409.054,2068.9 542.912,2068.9 550.446,2070.4 556.832,2074.66 561.098,2081.05 562.598,2088.58 562.598,2222.44 561.098,2229.97 556.832,2236.36 550.446,2240.63 542.912,2242.13 409.054,2242.13 401.52,2240.63 395.134,2236.36 390.868,2229.97 389.368,2222.44" style="stroke:rgb(151,234,220);stroke-width:39.370079;fill:none;stroke-opacity:0.5;stroke-linecap:round;stroke-linejoin:round;;fill:none"/>
<polyline points="389.368,2222.44 389.368,2088.58 390.868,2081.05 395.134,2074.66 401.52,2070.4 409.054,2068.9 542.912,2068.9 550.446,2070.4 556.832,2074.66 561.098,2081.05 562.598,2088.58 562.598,2222.44 561.098,2229.97 556.832,2236.36 550.446,2240.63 542.912,2242.13 409.054,2242.13 401.52,2240.63 395.134,2236.36 390.868,2229.97 389.368,2222.44" style="stroke:rgb(0,0,0);stroke-width:1px;fill:none;stroke-opacity:1;stroke-linecap:round;stroke-linejoin:round;;fill:none"/>
<polyline points="389.422,3456.53 390.94,3439.54 396.118,3422.21 405.91,3404.6 418.026,3391.14 434.512,3379.57 451.208,3372.6 464.894,3369.69 482.978,3369.26 502.694,3373.12 836.612,3039.2 836.612,2728.11 819.204,2715.5 809.096,2704.11 801.39,2690.97 794.79,2670.67 793.306,2655.51 794.79,2640.36 799.716,2623.81 809.096,2606.91 820.662,2594.07 836.48,2582.98 852.424,2576.35 869.398,2573.18 882.568,2573.18 901.532,2576.88 917.322,2583.91 931.304,2594.07 943.992,2608.64 952.25,2623.81 956.32,2636.33 958.66,2655.51 956.32,2674.69 952.25,2687.22 943.992,2702.38 931.304,2716.95 915.352,2728.11 915.354,3055.51 914.128,3065.07 909.712,3075.73 903.822,3083.35 558.084,3429.09 561.026,3439.54 562.598,3455.51 560.172,3475.51 554.174,3492.58 547.178,3504.69 532.338,3521.17 517.454,3531.46 504.672,3537.15 487.072,3541.33 464.894,3541.33 449.218,3537.89 434.512,3531.46 418.026,3519.88 404.788,3504.69 397.792,3492.58 391.794,3475.51 389.422,3456.53" style="stroke:rgb(107,150,143);stroke-width:39.370079;fill:none;stroke-opacity:0.5;stroke-linecap:round;stroke-linejoin:round;;fill:none"/>
<polyline points="389.422,3456.53 390.94,3439.54 396.118,3422.21 405.91,3404.6 418.026,3391.14 434.512,3379.57 451.208,3372.6 464.894,3369.69 482.978,3369.26 502.694,3373.12 836.612,3039.2 836.612,2728.11 819.204,2715.5 809.096,2704.11 801.39,2690.97 794.79,2670.67 793.306,2655.51 794.79,2640.36 799.716,2623.81 809.096,2606.91 820.662,2594.07 836.48,2582.98 852.424,2576.35 869.398,2573.18 882.568,2573.18 901.532,2576.88 917.322,2583.91 931.304,2594.07 943.992,2608.64 952.25,2623.81 956.32,2636.33 958.66,2655.51 956.32,2674.69 952.25,2687.22 943.992,2702.38 931.304,2716.95 915.352,2728.11 915.354,3055.51 914.128,3065.07 909.712,3075.73 903.822,3083.35 558.084,3429.09 561.026,3439.54 562.598,3455.51 560.172,3475.51 554.174,3492.58 547.178,3504.69 532.338,3521.17 517.454,3531.46 504.672,3537.15 487.072,3541.33 464.894,3541.33 449.218,3537.89 434.512,3531.46 418.026,3519.88 404.788,3504.69 397.792,3492.58 391.794,3475.51 389.422,3456.53" style="stroke:rgb(0,0,0);stroke-width:1px;fill:none;stroke-opacity:1;stroke-linecap:round;stroke-linejoin:round;;fill:none"/>
<polyline points="1089.42,3256.53 1090.94,3239.54 1096.12,3222.21 1105.91,3204.6 1118.03,3191.14 1134.51,3179.57 1149.22,3173.14 1164.89,3169.69 1182.98,3169.26 1202.75,3173.14 1221.02,3181.62 1235.4,3192.6 1246.06,3204.6 1252.84,3216.14 1442.68,3216.14 1457.09,3205.56 1474.87,3198 1487.75,3195.26 1505.01,3194.83 1523.97,3198.53 1539.76,3205.56 1552.14,3214.43 1565.31,3228.57 1573.02,3241.7 1578.76,3257.98 1581.1,3277.16 1578.76,3296.34 1573.02,3312.63 1565.31,3325.76 1553.75,3338.61 1539.76,3348.77 1523.97,3355.8 1509.1,3359.07 1491.84,3359.5 1470.95,3355.06 1457.09,3348.77 1443.1,3338.61 1430.41,3324.03 1422.16,3308.87 1417.78,3294.88 1252.84,3294.88 1246.06,3306.42 1233.94,3319.88 1221.02,3329.4 1204.67,3337.15 1182.98,3341.76 1164.89,3341.33 1151.21,3338.42 1130.95,3329.4 1118.03,3319.88 1105.91,3306.42 1096.12,3288.82 1090.94,3271.48 1089.42,3256.53" style="stroke:rgb(56,92,42);stroke-width:39.370079;fill:none;stroke-opacity:0.5;stroke-linecap:round;stroke-linejoin:round;;fill:none"/>
<polyline points="1089.42,3256.53 1090.94,3239.54 1096.12,3222.21 1105.91,3204.6 1118.03,3191.14 1134.51,3179.57 1149.22,3173.14 1164.89,3169.69 1182.98,3169.26 1202.75,3173.14 1221.02,3181.62 1235.4,3192.6 1246.06,3204.6 1252.84,3216.14 1442.68,3216.14 1457.09,3205.56 1474.87,3198 1487.75,3195.26 1505.01,3194.83 1523.97,3198.53 1539.76,3205.56 1552.14,3214.43 1565.31,3228.57 1573.02,3241.7 1578.76,3257.98 1581.1,3277.16 1578.76,3296.34 1573.02,3312.63 1565.31,3325.76 1553.75,3338.61 1539.76,3348.77 1523.97,3355.8 1509.1,3359.07 1491.84,3359.5 1470.95,3355.06 1457.09,3348.77 1443.1,3338.61 1430.41,3324.03 1422.16,3308.87 1417.78,3294.88 1252.84,3294.88 1246.06,3306.42 1233.94,3319.88 1221.02,3329.4 1204.67,3337.15 1182.98,3341.76 1164.89,3341.33 1151.21,3338.42 1130.95,3329.4 1118.03,3319.88 1105.91,3306.42 1096.12,3288.82 1090.94,3271.48 1089.42,3256.53" style="stroke:rgb(0,0,0);stroke-width:1px;fill:none;stroke-opacity:1;stroke-linecap:round;stroke-linejoin:round;;fill:none"/>
<polyline points="1089.42,3056.53 1090.94,3039.54 1096.12,3022.21 1105.91,3004.6 1118.03,2991.14 1134.51,2979.57 1149.22,2973.14 1164.89,2969.69 1182.98,2969.26 1202.75,2973.14 1221.02,2981.62 1235.4,2992.6 1246.06,3004.6 1252.84,3016.14 1442.68,3016.14 1457.09,3005.56 1474.87,2998 1487.75,2995.26 1505.01,2994.83 1523.97,2998.53 1539.76,3005.56 1552.14,3014.43 1565.31,3028.57 1573.02,3041.7 1578.76,3057.98 1581.1,3077.16 1578.76,3096.34 1573.02,3112.63 1565.31,3125.76 1553.75,3138.61 1539.76,3148.77 1523.97,3155.8 1509.1,3159.07 1491.84,3159.5 1470.95,3155.06 1457.09,3148.77 1443.1,3138.61 1430.41,3124.03 1422.16,3108.87 1417.78,3094.88 1252.84,3094.88 1246.06,3106.42 1233.94,3119.88 1221.02,3129.4 1204.67,3137.15 1182.98,3141.76 1164.89,3141.33 1151.21,3138.42 1130.95,3129.4 1118.03,3119.88 1105.91,3106.42 1096.12,3088.82 1090.94,3071.48 1089.42,3056.53" style="stroke:rgb(236,176,59);stroke-width:39.370079;fill:none;stroke-opacity:0.5;stroke-linecap:round;stroke-linejoin:round;;fill:none"/>
<polyline points="1089.42,3056.53 1090.94,3039.54 1096.12,3022.21 1105.91,3004.6 1118.03,2991.14 1134.51,2979.57 1149.22,2973.14 1164.89,2969.69 1182.98,2969.26 1202.75,2973.14 1221.02,2981.62 1235.4,2992.6 1246.06,3004.6 1252.84,3016.14 1442.68,3016.14 1457.09,3005.56 1474.87,2998 1487.75,2995.26 1505.01,2994.83 1523.97,2998.53 1539.76,3005.56 1552.14,3014.43 1565.31,3028.57 1573.02,3041.7 1578.76,3057.98 1581.1,3077.16 1578.76,3096.34 1573.02,3112.63 1565.31,3125.76 1553.75,3138.61 1539.76,3148.77 1523.97,3155.8 1509.1,3159.07 1491.84,3159.5 1470.95,3155.06 1457.09,3148.77 1443.1,3138.61 1430.41,3124.03 1422.16,3108.87 1417.78,3094.88 1252.84,3094.88 1246.06,3106.42 1233.94,3119.88 1221.02,3129.4 1204.67,3137.15 1182.98,3141.76 1164.89,3141.33 1151.21,3138.42 1130.95,3129.4 1118.03,3119.88 1105.91,3106.42 1096.12,3088.82 1090.94,3071.48 1089.42,3056.53" style="stroke:rgb(0,0,0);stroke-width:1px;fill:none;stroke-opacity:1;stroke-linecap:round;stroke-linejoin:round;;fill:none"/>
<polyline points="493.306,855.512 494.79,870.666 499.716,887.216 510.392,905.708 520.662,916.952 534.644,927.112 550.434,934.142 565.306,937.412 586.66,937.412 601.532,934.142 617.322,927.112 632.762,915.496 642.87,904.108 648.322,894.882 894.602,894.882 902.726,908.736 913.936,921.346 928.98,932.808 948.002,941.63 968.576,945.674 987.484,945.244 1003.96,941.63 1021.26,933.93 1038.03,921.346 1049.24,908.736 1059.44,890.418 1064.88,872.302 1066.53,855.512 1064.88,838.72 1059.44,820.604 1049.24,802.286 1038.03,789.676 1021.26,777.092 1005.89,770.13 983.39,765.348 964.482,765.778 949.992,768.858 930.708,777.092 913.936,789.676 902.726,802.286 894.602,816.142 648.322,816.142 642.87,806.914 632.762,795.526 617.322,783.91 601.532,776.88 586.66,773.61 565.306,773.61 550.434,776.88 534.644,783.91 520.662,794.07 510.392,805.314 499.716,823.806 494.79,840.356 493.306,855.512" style="stroke:rgb(251,50,175);stroke-width:39.370079;fill:none;stroke-opacity:0.5;stroke-linecap:round;stroke-linejoin:round;;fill:none"/>
<polyline points="493.306,855.512 494.79,870.666 499.716,887.216 510.392,905.708 520.662,916.952 534.644,927.112 550.434,934.142 565.306,937.412 586.66,937.412 601.532,934.142 617.322,927.112 632.762,915.496 642.87,904.108 648.322,894.882 894.602,894.882 902.726,908.736 913.936,921.346 928.98,932.808 948.002,941.63 968.576,945.674 987.484,945.244 1003.96,941.63 1021.26,933.93 1038.03,921.346 1049.24,908.736 1059.44,890.418 1064.88,872.302 1066.53,855.512 1064.88,838.72 1059.44,820.604 1049.24,802.286 1038.03,789.676 1021.26,777.092 1005.89,770.13 983.39,765.348 964.482,765.778 949.992,768.858 930.708,777.092 913.936,789.676 902.726,802.286 894.602,816.142 648.322,816.142 642.87,806.914 632.762,795.526 617.322,783.91 601.532,776.88 586.66,773.61 565.306,773.61 550.434,776.88 534.644,783.91 520.662,794.07 510.392,805.314 499.716,823.806 494.79,840.356 493.306,855.512" style="stroke:rgb(0,0,0);stroke-width:1px;fill:none;stroke-opacity:1;stroke-linecap:round;stroke-linejoin:round;;fill:none"/>
<polyline points="389.422,2556.53 390.94,2539.54 396.118,2522.21 405.91,2504.6 418.026,2491.14 434.512,2479.57 451.208,2472.6 464.894,2469.69 482.978,2469.26 502.694,2473.12 801.158,2175.33 811.336,2169.89 822.654,2167.64 952.37,2167.54 1419.43,1700.48 1417.23,1692.32 1415.75,1677.16 1417.23,1662.01 1422.16,1645.46 1432.83,1626.97 1443.1,1615.72 1457.09,1605.56 1472.88,1598.53 1487.75,1595.26 1505.01,1594.83 1523.97,1598.53 1539.76,1605.56 1553.75,1615.72 1565.31,1628.57 1570.76,1637.79 1995.33,1637.79 1999.72,1623.81 2007.97,1608.64 2022.26,1592.77 2034.64,1583.91 2050.43,1576.88 2065.31,1573.61 2082.57,1573.18 2101.53,1576.88 2119.05,1585.03 2132.76,1595.53 2142.87,1606.91 2150.58,1620.05 2156.32,1636.33 2158.66,1655.51 2156.32,1674.69 2150.58,1690.97 2142.87,1704.11 2132.76,1715.5 2119.05,1725.99 2101.53,1734.14 2086.66,1737.41 2069.4,1737.84 2050.43,1734.14 2034.64,1727.11 2020.36,1716.53 1570.76,1716.53 1565.31,1725.76 1553.75,1738.61 1539.76,1748.77 1525.9,1755.06 1505.01,1759.5 1491.84,1759.5 1474.93,1756.34 992.102,2238.5 981.926,2243.94 970.608,2246.19 840.89,2246.28 558.084,2529.09 561.026,2539.54 562.598,2555.51 560.172,2575.51 554.174,2592.58 547.178,2604.69 532.338,2621.17 517.454,2631.46 504.672,2637.15 487.072,2641.33 464.894,2641.33 449.218,2637.89 434.512,2631.46 418.026,2619.88 404.788,2604.69 397.792,2592.58 391.794,2575.51 389.422,2556.53" style="stroke:rgb(60,84,236);stroke-width:39.370079;fill:none;stroke-opacity:0.5;stroke-linecap:round;stroke-linejoin:round;;fill:none"/>
<polyline points="389.422,2556.53 390.94,2539.54 396.118,2522.21 405.91,2504.6 418.026,2491.14 434.512,2479.57 451.208,2472.6 464.894,2469.69 482.978,2469.26 502.694,2473.12 801.158,2175.33 811.336,2169.89 822.654,2167.64 952.37,2167.54 1419.43,1700.48 1417.23,1692.32 1415.75,1677.16 1417.23,1662.01 1422.16,1645.46 1432.83,1626.97 1443.1,1615.72 1457.09,1605.56 1472.88,1598.53 1487.75,1595.26 1505.01,1594.83 1523.97,1598.53 1539.76,1605.56 1553.75,1615.72 1565.31,1628.57 1570.76,1637.79 1995.33,1637.79 1999.72,1623.81 2007.97,1608.64 2022.26,1592.77 2034.64,1583.91 2050.43,1576.88 2065.31,1573.61 2082.57,1573.18 2101.53,1576.88 2119.05,1585.03 2132.76,1595.53 2142.87,1606.91 2150.58,1620.05 2156.32,1636.33 2158.66,1655.51 2156.32,1674.69 2150.58,1690.97 2142.87,1704.11 2132.76,1715.5 2119.05,1725.99 2101.53,1734.14 2086.66,1737.41 2069.4,1737.84 2050.43,1734.14 2034.64,1727.11 2020.36,1716.53 1570.76,1716.53 1565.31,1725.76 1553.75,1738.61 1539.76,1748.77 1525.9,1755.06 1505.01,1759.5 1491.84,1759.5 1474.93,1756.34 992.102,2238.5 981.926,2243.94 970.608,2246.19 840.89,2246.28 558.084,2529.09 561.026,2539.54 562.598,2555.51 560.172,2575.51 554.174,2592.58 547.178,2604.69 532.338,2621.17 517.454,2631.46 504.672,2637.15 487.072,2641.33 464.894,2641.33 449.218,2637.89 434.512,2631.46 418.026,2619.88 404.788,2604.69 397.792,2592.58 391.794,2575.51 389.422,2556.53" style="stroke:rgb(0,0,0);stroke-width:1px;fill:none;stroke-opacity:1;stroke-linecap:round;stroke-linejoin:round;;fill:none"/>
<polyline points="310.628,3769.68 311.102,3175.73 314.452,3164.68 320.862,3155.09 393.882,3081.93 390.94,3071.48 389.368,3055.51 390.94,3039.54 396.118,3022.21 405.91,3004.6 416.57,2992.6 434.512,2979.57 451.208,2972.6 464.894,2969.69 482.978,2969.26 502.748,2973.14 521.018,2981.62 535.396,2992.6 546.056,3004.6 554.174,3018.45 560.172,3035.51 562.49,3057.57 560.172,3075.51 554.174,3092.58 546.056,3106.42 533.94,3119.88 517.454,3131.46 500.758,3138.42 487.072,3141.33 468.988,3141.76 449.272,3137.9 389.368,3197.8 389.368,3742.13 1577.79,3742.13 2619.43,2700.48 2617.23,2692.32 2615.75,2677.16 2618.09,2657.98 2623.83,2641.7 2630.41,2630.3 2643.1,2615.72 2657.09,2605.56 2674.87,2598 2691.84,2594.83 2705.01,2594.83 2721.92,2597.99 3092.24,2227.67 3100.75,2221.31 3110.39,2205.31 3120.66,2194.07 3132.92,2185.03 3150.43,2176.88 3165.31,2173.61 3182.57,2173.18 3201.53,2176.88 3217.32,2183.91 3231.3,2194.07 3242.87,2206.91 3250.58,2220.05 3257.18,2240.36 3258.66,2255.51 3257.18,2270.67 3250.58,2290.97 3242.87,2304.11 3231.3,2316.95 3217.32,2327.11 3201.53,2334.14 3186.66,2337.41 3169.4,2337.84 3150.43,2334.14 3136.48,2328.05 3122.26,2318.25 3117.58,2313.69 2777.42,2653.85 2779.62,2662.01 2781.1,2677.16 2778.76,2696.34 2773.02,2712.63 2766.43,2724.03 2753.75,2738.61 2739.76,2748.77 2721.98,2756.33 2705.01,2759.5 2691.84,2759.5 2674.93,2756.34 1621.93,3809.33 1610.91,3817.04 1603.65,3819.64 1594.09,3820.87 361.81,3820.87 348.562,3818.52 341.594,3815.22 333.97,3809.33 316.27,3789.9 311.854,3779.24 310.628,3769.68" style="stroke:rgb(24,219,92);stroke-width:39.370079;fill:none;stroke-opacity:0.5;stroke-linecap:round;stroke-linejoin:round;;fill:none"/>
<polyline points="310.628,3769.68 311.102,3175.73 314.452,3164.68 320.862,3155.09 393.882,3081.93 390.94,3071.48 389.368,3055.51 390.94,3039.54 396.118,3022.21 405.91,3004.6 416.57,2992.6 434.512,2979.57 451.208,2972.6 464.894,2969.69 482.978,2969.26 502.748,2973.14 521.018,2981.62 535.396,2992.6 546.056,3004.6 554.174,3018.45 560.172,3035.51 562.49,3057.57 560.172,3075.51 554.174,3092.58 546.056,3106.42 533.94,3119.88 517.454,3131.46 500.758,3138.42 487.072,3141.33 468.988,3141.76 449.272,3137.9 389.368,3197.8 389.368,3742.13 1577.79,3742.13 2619.43,2700.48 2617.23,2692.32 2615.75,2677.16 2618.09,2657.98 2623.83,2641.7 2630.41,2630.3 2643.1,2615.72 2657.09,2605.56 2674.87,2598 2691.84,2594.83 2705.01,2594.83 2721.92,2597.99 3092.24,2227.67 3100.75,2221.31 3110.39,2205.31 3120.66,2194.07 3132.92,2185.03 3150.43,2176.88 3165.31,2173.61 3182.57,2173.18 3201.53,2176.88 3217.32,2183.91 3231.3,2194.07 3242.87,2206.91 3250.58,2220.05 3257.18,2240.36 3258.66,2255.51 3257.18,2270.67 3250.58,2290.97 3242.87,2304.11 3231.3,2316.95 3217.32,2327.11 3201.53,2334.14 3186.66,2337.41 3169.4,2337.84 3150.43,2334.14 3136.48,2328.05 3122.26,2318.25 3117.58,2313.69 2777.42,2653.85 2779.62,2662.01 2781.1,2677.16 2778.76,2696.34 2773.02,2712.63 2766.43,2724.03 2753.75,2738.61 2739.76,2748.77 2721.98,2756.33 2705.01,2759.5 2691.84,2759.5 2674.93,2756.34 1621.93,3809.33 1610.91,3817.04 1603.65,3819.64 1594.09,3820.87 361.81,3820.87 348.562,3818.52 341.594,3815.22 333.97,3809.33 316.27,3789.9 311.854,3779.24 310.628,3769.68" style="stroke:rgb(0,0,0);stroke-width:1px;fill:none;stroke-opacity:1;stroke-linecap:round;stroke-linejoin:round;;fill:none"/>
<polyline points="793.306,1855.51 795.646,1874.69 801.39,1890.97 809.096,1904.11 822.262,1918.25 834.644,1927.11 848.51,1933.4 869.398,1937.84 886.66,1937.41 901.532,1934.14 915.486,1928.05 931.304,1916.95 943.992,1902.38 952.25,1887.22 956.32,1874.69 958.66,1855.51 957.176,1840.36 954.976,1832.2 1446.19,1340.98 1457.09,1348.77 1472.88,1355.8 1487.75,1359.07 1505.01,1359.5 1523.97,1355.8 1537.93,1349.7 1555.2,1337.15 1565.31,1325.76 1573.02,1312.63 1578.76,1296.34 1580.99,1279.22 1578.76,1257.98 1573.02,1241.7 1564.01,1226.97 1553.75,1215.72 1539.76,1205.56 1523.97,1198.53 1505.01,1194.83 1487.75,1195.26 1472.88,1198.53 1457.09,1205.56 1443.1,1215.72 1430.41,1230.3 1423.83,1241.7 1418.21,1257.61 899.482,1776.33 882.568,1773.18 869.398,1773.18 852.424,1776.35 834.644,1783.91 820.662,1794.07 809.096,1806.91 799.716,1823.81 794.79,1840.36 793.306,1855.51" style="stroke:rgb(2,26,254);stroke-width:39.370079;fill:none;stroke-opacity:0.5;stroke-linecap:round;stroke-linejoin:round;;fill:none"/>
<polyline points="793.306,1855.51 795.646,1874.69 801.39,1890.97 809.096,1904.11 822.262,1918.25 834.644,1927.11 848.51,1933.4 869.398,1937.84 886.66,1937.41 901.532,1934.14 915.486,1928.05 931.304,1916.95 943.992,1902.38 952.25,1887.22 956.32,1874.69 958.66,1855.51 957.176,1840.36 954.976,1832.2 1446.19,1340.98 1457.09,1348.77 1472.88,1355.8 1487.75,1359.07 1505.01,1359.5 1523.97,1355.8 1537.93,1349.7 1555.2,1337.15 1565.31,1325.76 1573.02,1312.63 1578.76,1296.34 1580.99,1279.22 1578.76,1257.98 1573.02,1241.7 1564.01,1226.97 1553.75,1215.72 1539.76,1205.56 1523.97,1198.53 1505.01,1194.83 1487.75,1195.26 1472.88,1198.53 1457.09,1205.56 1443.1,1215.72 1430.41,1230.3 1423.83,1241.7 1418.21,1257.61 899.482,1776.33 882.568,1773.18 869.398,1773.18 852.424,1776.35 834.644,1783.91 820.662,1794.07 809.096,1806.91 799.716,1823.81 794.79,1840.36 793.306,1855.51" style="stroke:rgb(0,0,0);stroke-width:1px;fill:none;stroke-opacity:1;stroke-linecap:round;stroke-linejoin:round;;fill:none"/>
<polyline points="493.306,1655.51 495.646,1674.69 499.716,1687.22 507.974,1702.38 520.662,1716.95 536.614,1728.11 536.612,1847.91 537.838,1857.47 542.254,1868.13 548.144,1875.75 747.944,2075.55 758.97,2083.26 773.854,2086.99 933.648,2086.61 944.69,2083.26 955.716,2075.55 1474.92,1556.34 1491.84,1559.5 1505.01,1559.5 1521.98,1556.33 1539.76,1548.77 1553.75,1538.61 1565.31,1525.76 1574.69,1508.87 1578.76,1496.34 1580.99,1479.22 1579.62,1462.01 1574.69,1445.46 1564.01,1426.97 1553.75,1415.72 1541.49,1406.69 1523.97,1398.53 1505.01,1394.83 1487.75,1395.26 1472.88,1398.53 1458.92,1404.63 1443.1,1415.72 1430.41,1430.3 1423.83,1441.7 1418.09,1457.98 1415.75,1477.16 1417.23,1492.32 1419.43,1500.48 911.57,2008.34 792.09,2008.34 615.354,1831.6 615.354,1728.11 631.304,1716.95 643.992,1702.38 652.25,1687.22 656.32,1674.69 658.552,1657.57 657.176,1640.36 652.25,1623.81 642.87,1606.91 631.304,1594.07 615.486,1582.98 601.532,1576.88 586.66,1573.61 569.398,1573.18 548.51,1577.62 534.644,1583.91 522.262,1592.77 509.096,1606.91 501.39,1620.05 495.646,1636.33 493.306,1655.51" style="stroke:rgb(67,251,250);stroke-width:39.370079;fill:none;stroke-opacity:0.5;stroke-linecap:round;stroke-linejoin:round;;fill:none"/>
<polyline points="493.306,1655.51 495.646,1674.69 499.716,1687.22 507.974,1702.38 520.662,1716.95 536.614,1728.11 536.612,1847.91 537.838,1857.47 542.254,1868.13 548.144,1875.75 747.944,2075.55 758.97,2083.26 773.854,2086.99 933.648,2086.61 944.69,2083.26 955.716,2075.55 1474.92,1556.34 1491.84,1559.5 1505.01,1559.5 1521.98,1556.33 1539.76,1548.77 1553.75,1538.61 1565.31,1525.76 1574.69,1508.87 1578.76,1496.34 1580.99,1479.22 1579.62,1462.01 1574.69,1445.46 1564.01,1426.97 1553.75,1415.72 1541.49,1406.69 1523.97,1398.53 1505.01,1394.83 1487.75,1395.26 1472.88,1398.53 1458.92,1404.63 1443.1,1415.72 1430.41,1430.3 1423.83,1441.7 1418.09,1457.98 1415.75,1477.16 1417.23,1492.32 1419.43,1500.48 911.57,2008.34 792.09,2008.34 615.354,1831.6 615.354,1728.11 631.304,1716.95 643.992,1702.38 652.25,1687.22 656.32,1674.69 658.552,1657.57 657.176,1640.36 652.25,1623.81 642.87,1606.91 631.304,1594.07 615.486,1582.98 601.532,1576.88 586.66,1573.61 569.398,1573.18 548.51,1577.62 534.644,1583.91 522.262,1592.77 509.096,1606.91 501.39,1620.05 495.646,1636.33 493.306,1655.51" style="stroke:rgb(0,0,0);stroke-width:1px;fill:none;stroke-opacity:1;stroke-linecap:round;stroke-linejoin:round;;fill:none"/>
<polyline points="2615.75,3077.16 2618.09,3096.34 2623.83,3112.63 2631.54,3125.76 2643.1,3138.61 2657.09,3148.77 2672.88,3155.8 2687.75,3159.07 2705.01,3159.5 2723.97,3155.8 2741.49,3147.64 2755.2,3137.15 2765.31,3125.76 2770.76,3116.53 3120.36,3116.53 3134.64,3127.11 3150.43,3134.14 3169.4,3137.84 3186.66,3137.41 3201.53,3134.14 3217.32,3127.11 3231.3,3116.95 3241.57,3105.71 3252.25,3087.22 3257.18,3070.67 3258.66,3055.51 3257.18,3040.36 3252.25,3023.81 3242.87,3006.91 3231.3,2994.07 3217.32,2983.91 3201.53,2976.88 3186.66,2973.61 3169.4,2973.18 3148.51,2977.62 3134.64,2983.91 3120.66,2994.07 3107.97,3008.64 3099.72,3023.81 3095.33,3037.79 2770.76,3037.79 2765.31,3028.57 2755.2,3017.18 2739.76,3005.56 2723.97,2998.53 2709.1,2995.26 2687.75,2995.26 2672.88,2998.53 2657.09,3005.56 2643.1,3015.72 2632.83,3026.97 2622.16,3045.46 2617.23,3062.01 2615.75,3077.16" style="stroke:rgb(170,58,251);stroke-width:39.370079;fill:none;stroke-opacity:0.5;stroke-linecap:round;stroke-linejoin:round;;fill:none"/>
<polyline points="2615.75,3077.16 2618.09,3096.34 2623.83,3112.63 2631.54,3125.76 2643.1,3138.61 2657.09,3148.77 2672.88,3155.8 2687.75,3159.07 2705.01,3159.5 2723.97,3155.8 2741.49,3147.64 2755.2,3137.15 2765.31,3125.76 2770.76,3116.53 3120.36,3116.53 3134.64,3127.11 3150.43,3134.14 3169.4,3137.84 3186.66,3137.41 3201.53,3134.14 3217.32,3127.11 3231.3,3116.95 3241.57,3105.71 3252.25,3087.22 3257.18,3070.67 3258.66,3055.51 3257.18,3040.36 3252.25,3023.81 3242.87,3006.91 3231.3,2994.07 3217.32,2983.91 3201.53,2976.88 3186.66,2973.61 3169.4,2973.18 3148.51,2977.62 3134.64,2983.91 3120.66,2994.07 3107.97,3008.64 3099.72,3023.81 3095.33,3037.79 2770.76,3037.79 2765.31,3028.57 2755.2,3017.18 2739.76,3005.56 2723.97,2998.53 2709.1,2995.26 2687.75,2995.26 2672.88,2998.53 2657.09,3005.56 2643.1,3015.72 2632.83,3026.97 2622.16,3045.46 2617.23,3062.01 2615.75,3077.16" style="stroke:rgb(0,0,0);stroke-width:1px;fill:none;stroke-opacity:1;stroke-linecap:round;stroke-linejoin:round;;fill:none"/>
<polyline points="310.628,2615.98 310.628,2481.5 312.974,2468.25 316.27,2461.28 322.16,2453.66 393.882,2381.93 390.94,2371.48 389.476,2357.57 390.94,2339.54 396.118,2322.21 405.91,2304.6 419.628,2289.85 434.512,2279.57 449.218,2273.14 468.988,2269.26 487.072,2269.69 504.672,2273.87 517.454,2279.57 532.338,2289.85 546.056,2304.6 554.174,2318.45 560.172,2335.51 562.598,2355.51 560.172,2375.51 554.174,2392.58 546.056,2406.42 533.94,2419.88 517.454,2431.46 500.758,2438.42 487.072,2441.33 468.988,2441.76 449.272,2437.9 389.368,2497.8 389.368,2599.68 431.818,2642.13 516.29,2642.13 796.884,2361.53 807.91,2353.82 815.168,2351.23 824.724,2350 1042.12,2350 1055.37,2352.35 1065.55,2357.79 1178.12,2469.82 1186.01,2482.98 1188.35,2496.23 1187.88,2901.82 1184.53,2912.87 1178.12,2922.46 1089.37,3011.35 1089.37,3299.68 1160.35,3370.66 1168.99,3369.26 1187.07,3369.69 1202.75,3373.14 1217.45,3379.57 1235.4,3392.6 1246.06,3404.6 1252.84,3416.14 1484.4,3416.14 2349.81,2550.73 2350.29,1380.64 2353.64,1369.59 2361.34,1358.57 2619.43,1100.48 2617.23,1092.32 2615.75,1077.16 2617.23,1062.01 2619.43,1053.85 2460.46,894.88 2148.32,894.882 2142.87,904.108 2131.3,916.952 2117.32,927.112 2103.46,933.404 2082.57,937.844 2065.31,937.412 2048.51,933.404 2034.64,927.112 2019.2,915.496 2007.97,902.38 1999.72,887.216 1995.65,874.69 1993.31,855.512 1994.79,840.356 1999.72,823.806 2010.39,805.314 2020.66,794.07 2032.92,785.032 2048.51,777.618 2065.31,773.61 2082.57,773.178 2101.53,776.88 2119.05,785.032 2132.76,795.526 2142.87,806.914 2148.32,816.14 2476.77,816.14 2486.33,817.366 2493.58,819.964 2504.61,827.672 2674.93,997.988 2691.84,994.832 2705.01,994.832 2721.98,998 2739.76,1005.56 2753.75,1015.72 2766.43,1030.3 2773.02,1041.7 2778.76,1057.98 2781.1,1077.16 2779.62,1092.32 2777.42,1100.48 3093.08,1416.14 3099.12,1416.14 3105.91,1404.6 3116.57,1392.6 3134.51,1379.57 3151.21,1372.6 3164.89,1369.69 3182.98,1369.26 3204.67,1373.87 3217.45,1379.57 3232.34,1389.85 3246.06,1404.6 3255.85,1422.21 3260.17,1435.51 3262.49,1453.45 3260.17,1475.51 3254.17,1492.58 3247.18,1504.69 3233.94,1519.88 3217.45,1531.46 3202.75,1537.89 3187.07,1541.33 3164.89,1541.33 3149.22,1537.89 3134.51,1531.46 3116.57,1518.42 3105.91,1506.42 3099.12,1494.88 3076.77,1494.88 3067.22,1493.66 3056.55,1489.24 3048.93,1483.35 2721.92,1156.34 2705.01,1159.5 2691.84,1159.5 2674.93,1156.34 2428.55,1402.71 2428.55,2567.04 2427.33,2576.59 2424.73,2583.85 2417.02,2594.87 1528.55,3483.35 1520.92,3489.24 1513.96,3492.54 1500.71,3494.88 1252.84,3494.88 1246.06,3506.42 1233.94,3519.88 1221.02,3529.4 1204.67,3537.15 1182.98,3541.76 1164.89,3541.33 1149.22,3537.89 1134.51,3531.46 1118.03,3519.88 1105.91,3506.42 1096.12,3488.82 1090.94,3471.48 1089.37,3455.51 1091.79,3435.51 1097.45,3419.12 1022.16,3343.82 1014.45,3332.8 1011.85,3325.54 1010.63,3315.98 1010.63,2995.04 1011.85,2985.48 1016.27,2974.82 1022.16,2967.2 1109.61,2879.75 1109.61,2512.54 1025.82,2428.74 841.03,2428.74 560.436,2709.33 552.814,2715.22 542.152,2719.64 532.598,2720.87 415.51,2720.87 405.956,2719.64 398.698,2717.04 387.672,2709.33 320.862,2642.39 312.974,2629.23 310.628,2615.98" style="stroke:rgb(41,209,230);stroke-width:39.370079;fill:none;stroke-opacity:0.5;stroke-linecap:round;stroke-linejoin:round;;fill:none"/>
<polyline points="310.628,2615.98 310.628,2481.5 312.974,2468.25 316.27,2461.28 322.16,2453.66 393.882,2381.93 390.94,2371.48 389.476,2357.57 390.94,2339.54 396.118,2322.21 405.91,2304.6 419.628,2289.85 434.512,2279.57 449.218,2273.14 468.988,2269.26 487.072,2269.69 504.672,2273.87 517.454,2279.57 532.338,2289.85 546.056,2304.6 554.174,2318.45 560.172,2335.51 562.598,2355.51 560.172,2375.51 554.174,2392.58 546.056,2406.42 533.94,2419.88 517.454,2431.46 500.758,2438.42 487.072,2441.33 468.988,2441.76 449.272,2437.9 389.368,2497.8 389.368,2599.68 431.818,2642.13 516.29,2642.13 796.884,2361.53 807.91,2353.82 815.168,2351.23 824.724,2350 1042.12,2350 1055.37,2352.35 1065.55,2357.79 1178.12,2469.82 1186.01,2482.98 1188.35,2496.23 1187.88,2901.82 1184.53,2912.87 1178.12,2922.46 1089.37,3011.35 1089.37,3299.68 1160.35,3370.66 1168.99,3369.26 1187.07,3369.69 1202.75,3373.14 1217.45,3379.57 1235.4,3392.6 1246.06,3404.6 1252.84,3416.14 1484.4,3416.14 2349.81,2550.73 2350.29,1380.64 2353.64,1369.59 2361.34,1358.57 2619.43,1100.48 2617.23,1092.32 2615.75,1077.16 2617.23,1062.01 2619.43,1053.85 2460.46,894.88 2148.32,894.882 2142.87,904.108 2131.3,916.952 2117.32,927.112 2103.46,933.404 2082.57,937.844 2065.31,937.412 2048.51,933.404 2034.64,927.112 2019.2,915.496 2007.97,902.38 1999.72,887.216 1995.65,874.69 1993.31,855.512 1994.79,840.356 1999.72,823.806 2010.39,805.314 2020.66,794.07 2032.92,785.032 2048.51,777.618 2065.31,773.61 2082.57,773.178 2101.53,776.88 2119.05,785.032 2132.76,795.526 2142.87,806.914 2148.32,816.14 2476.77,816.14 2486.33,817.366 2493.58,819.964 2504.61,827.672 2674.93,997.988 2691.84,994.832 2705.01,994.832 2721.98,998 2739.76,1005.56 2753.75,1015.72 2766.43,1030.3 2773.02,1041.7 2778.76,1057.98 2781.1,1077.16 2779.62,1092.32 2777.42,1100.48 3093.08,1416.14 3099.12,1416.14 3105.91,1404.6 3116.57,1392.6 3134.51,1379.57 3151.21,1372.6 3164.89,1369.69 3182.98,1369.26 3204.67,1373.87 3217.45,1379.57 3232.34,1389.85 3246.06,1404.6 3255.85,1422.21 3260.17,1435.51 3262.49,1453.45 3260.17,1475.51 3254.17,1492.58 3247.18,1504.69 3233.94,1519.88 3217.45,1531.46 3202.75,1537.89 3187.07,1541.33 3164.89,1541.33 3149.22,1537.89 3134.51,1531.46 3116.57,1518.42 3105.91,1506.42 3099.12,1494.88 3076.77,1494.88 3067.22,1493.66 3056.55,1489.24 3048.93,1483.35 2721.92,1156.34 2705.01,1159.5 2691.84,1159.5 2674.93,1156.34 2428.55,1402.71 2428.55,2567.04 2427.33,2576.59 2424.73,2583.85 2417.02,2594.87 1528.55,3483.35 1520.92,3489.24 1513.96,3492.54 1500.71,3494.88 1252.84,3494.88 1246.06,3506.42 1233.94,3519.88 1221.02,3529.4 1204.67,3537.15 1182.98,3541.76 1164.89,3541.33 1149.22,3537.89 1134.51,3531.46 1118.03,3519.88 1105.91,3506.42 1096.12,3488.82 1090.94,3471.48 1089.37,3455.51 1091.79,3435.51 1097.45,3419.12 1022.16,3343.82 1014.45,3332.8 1011.85,3325.54 1010.63,3315.98 1010.63,2995.04 1011.85,2985.48 1016.27,2974.82 1022.16,2967.2 1109.61,2879.75 1109.61,2512.54 1025.82,2428.74 841.03,2428.74 560.436,2709.33 552.814,2715.22 542.152,2719.64 532.598,2720.87 415.51,2720.87 405.956,2719.64 398.698,2717.04 387.672,2709.33 320.862,2642.39 312.974,2629.23 310.628,2615.98" style="stroke:rgb(0,0,0);stroke-width:1px;fill:none;stroke-opacity:1;stroke-linecap:round;stroke-linejoin:round;;fill:none"/>
<polyline points="2615.75,1877.16 2618.09,1896.34 2623.83,1912.63 2631.54,1925.76 2643.1,1938.61 2657.09,1948.77 2672.88,1955.8 2687.75,1959.07 2705.01,1959.5 2723.97,1955.8 2741.49,1947.64 2755.2,1937.15 2765.31,1925.76 2770.76,1916.53 3114.87,1916.53 3130.95,1929.4 3149.22,1937.89 3168.99,1941.76 3187.07,1941.33 3202.75,1937.89 3217.45,1931.46 3233.94,1919.88 3244.76,1908.02 3255.85,1888.82 3261.03,1871.48 3262.6,1855.51 3260.17,1835.51 3254.17,1818.45 3246.06,1804.6 3233.94,1791.14 3217.45,1779.57 3202.75,1773.14 3187.07,1769.69 3168.99,1769.26 3147.29,1773.87 3130.95,1781.62 3118.03,1791.14 3105.91,1804.6 3097.79,1818.45 3091.31,1837.79 2770.76,1837.79 2765.31,1828.57 2755.2,1817.18 2739.76,1805.56 2723.97,1798.53 2709.1,1795.26 2687.75,1795.26 2672.88,1798.53 2657.09,1805.56 2643.1,1815.72 2632.83,1826.97 2622.16,1845.46 2617.23,1862.01 2615.75,1877.16" style="stroke:rgb(5,60,124);stroke-width:39.370079;fill:none;stroke-opacity:0.5;stroke-linecap:round;stroke-linejoin:round;;fill:none"/>
<polyline points="2615.75,1877.16 2618.09,1896.34 2623.83,1912.63 2631.54,1925.76 2643.1,1938.61 2657.09,1948.77 2672.88,1955.8 2687.75,1959.07 2705.01,1959.5 2723.97,1955.8 2741.49,1947.64 2755.2,1937.15 2765.31,1925.76 2770.76,1916.53 3114.87,1916.53 3130.95,1929.4 3149.22,1937.89 3168.99,1941.76 3187.07,1941.33 3202.75,1937.89 3217.45,1931.46 3233.94,1919.88 3244.76,1908.02 3255.85,1888.82 3261.03,1871.48 3262.6,1855.51 3260.17,1835.51 3254.17,1818.45 3246.06,1804.6 3233.94,1791.14 3217.45,1779.57 3202.75,1773.14 3187.07,1769.69 3168.99,1769.26 3147.29,1773.87 3130.95,1781.62 3118.03,1791.14 3105.91,1804.6 3097.79,1818.45 3091.31,1837.79 2770.76,1837.79 2765.31,1828.57 2755.2,1817.18 2739.76,1805.56 2723.97,1798.53 2709.1,1795.26 2687.75,1795.26 2672.88,1798.53 2657.09,1805.56 2643.1,1815.72 2632.83,1826.97 2622.16,1845.46 2617.23,1862.01 2615.75,1877.16" style="stroke:rgb(0,0,0);stroke-width:1px;fill:none;stroke-opacity:1;stroke-linecap:round;stroke-linejoin:round;;fill:none"/>
<polyline points="2615.75,1677.16 2618.09,1696.34 2623.83,1712.63 2631.54,1725.76 2643.1,1738.61 2657.09,1748.77 2672.88,1755.8 2687.75,1759.07 2705.01,1759.5 2725.9,1755.06 2739.76,1748.77 2753.75,1738.61 2766.43,1724.03 2774.69,1708.87 2779.07,1694.88 3099.12,1694.88 3105.91,1706.42 3116.57,1718.42 3134.51,1731.46 3149.22,1737.89 3164.89,1741.33 3187.07,1741.33 3202.75,1737.89 3217.45,1731.46 3233.94,1719.88 3244.76,1708.02 3255.85,1688.82 3261.03,1671.48 3262.6,1655.51 3260.17,1635.51 3254.17,1618.45 3246.06,1604.6 3233.94,1591.14 3217.45,1579.57 3202.75,1573.14 3187.07,1569.69 3168.99,1569.26 3149.22,1573.14 3130.95,1581.62 3116.57,1592.6 3105.91,1604.6 3099.12,1616.14 2754.05,1616.14 2739.76,1605.56 2723.97,1598.53 2705.01,1594.83 2687.75,1595.26 2672.88,1598.53 2657.09,1605.56 2643.1,1615.72 2632.83,1626.97 2622.16,1645.46 2617.23,1662.01 2615.75,1677.16" style="stroke:rgb(148,117,216);stroke-width:39.370079;fill:none;stroke-opacity:0.5;stroke-linecap:round;stroke-linejoin:round;;fill:none"/>
<polyline points="2615.75,1677.16 2618.09,1696.34 2623.83,1712.63 2631.54,1725.76 2643.1,1738.61 2657.09,1748.77 2672.88,1755.8 2687.75,1759.07 2705.01,1759.5 2725.9,1755.06 2739.76,1748.77 2753.75,1738.61 2766.43,1724.03 2774.69,1708.87 2779.07,1694.88 3099.12,1694.88 3105.91,1706.42 3116.57,1718.42 3134.51,1731.46 3149.22,1737.89 3164.89,1741.33 3187.07,1741.33 3202.75,1737.89 3217.45,1731.46 3233.94,1719.88 3244.76,1708.02 3255.85,1688.82 3261.03,1671.48 3262.6,1655.51 3260.17,1635.51 3254.17,1618.45 3246.06,1604.6 3233.94,1591.14 3217.45,1579.57 3202.75,1573.14 3187.07,1569.69 3168.99,1569.26 3149.22,1573.14 3130.95,1581.62 3116.57,1592.6 3105.91,1604.6 3099.12,1616.14 2754.05,1616.14 2739.76,1605.56 2723.97,1598.53 2705.01,1594.83 2687.75,1595.26 2672.88,1598.53 2657.09,1605.56 2643.1,1615.72 2632.83,1626.97 2622.16,1645.46 2617.23,1662.01 2615.75,1677.16" style="stroke:rgb(0,0,0);stroke-width:1px;fill:none;stroke-opacity:1;stroke-linecap:round;stroke-linejoin:round;;fill:none"/>
</svg>
