G04 #@! TF.GenerationSoftware,KiCad,Pcbnew,5.1.6-c6e7f7d~87~ubuntu18.04.1*
G04 #@! TF.CreationDate,2020-07-18T15:18:28+01:00*
G04 #@! TF.ProjectId,turbid-pm,74757262-6964-42d7-906d-2e6b69636164,rev?*
G04 #@! TF.SameCoordinates,Original*
G04 #@! TF.FileFunction,Copper,L2,Bot*
G04 #@! TF.FilePolarity,Positive*
%FSLAX46Y46*%
G04 Gerber Fmt 4.6, Leading zero omitted, Abs format (unit mm)*
G04 Created by KiCad (PCBNEW 5.1.6-c6e7f7d~87~ubuntu18.04.1) date 2020-07-18 15:18:28*
%MOMM*%
%LPD*%
G01*
G04 APERTURE LIST*
G04 #@! TA.AperFunction,ComponentPad*
%ADD10R,1.600000X1.600000*%
G04 #@! TD*
G04 #@! TA.AperFunction,ComponentPad*
%ADD11O,1.600000X1.600000*%
G04 #@! TD*
G04 #@! TA.AperFunction,ComponentPad*
%ADD12R,1.800000X1.800000*%
G04 #@! TD*
G04 #@! TA.AperFunction,ComponentPad*
%ADD13C,1.800000*%
G04 #@! TD*
G04 #@! TA.AperFunction,ComponentPad*
%ADD14O,1.700000X1.700000*%
G04 #@! TD*
G04 #@! TA.AperFunction,ComponentPad*
%ADD15R,1.700000X1.700000*%
G04 #@! TD*
G04 #@! TA.AperFunction,ComponentPad*
%ADD16C,1.600000*%
G04 #@! TD*
G04 #@! TA.AperFunction,Conductor*
%ADD17C,0.500000*%
G04 #@! TD*
G04 APERTURE END LIST*
D10*
X122205001Y-61235001D03*
D11*
X137445001Y-94255001D03*
X122205001Y-63775001D03*
X137445001Y-91715001D03*
X122205001Y-66315001D03*
X137445001Y-89175001D03*
X122205001Y-68855001D03*
X137445001Y-86635001D03*
X122205001Y-71395001D03*
X137445001Y-84095001D03*
X122205001Y-73935001D03*
X137445001Y-81555001D03*
X122205001Y-76475001D03*
X137445001Y-79015001D03*
X122205001Y-79015001D03*
X137445001Y-76475001D03*
X122205001Y-81555001D03*
X137445001Y-73935001D03*
X122205001Y-84095001D03*
X137445001Y-71395001D03*
X122205001Y-86635001D03*
X137445001Y-68855001D03*
X122205001Y-89175001D03*
X137445001Y-66315001D03*
X122205001Y-91715001D03*
X137445001Y-63775001D03*
X122205001Y-94255001D03*
X137445001Y-61235001D03*
X122205001Y-96795001D03*
X137445001Y-96795001D03*
D12*
X115570000Y-68580000D03*
D13*
X115570000Y-66040000D03*
D14*
X143510000Y-78740000D03*
X143510000Y-76200000D03*
X143510000Y-73660000D03*
D15*
X143510000Y-71120000D03*
X118110000Y-101600000D03*
D14*
X118110000Y-99060000D03*
X118110000Y-96520000D03*
X118110000Y-93980000D03*
D15*
X109220000Y-101600000D03*
D14*
X109220000Y-99060000D03*
X109220000Y-96520000D03*
X109220000Y-93980000D03*
D15*
X109220000Y-82550000D03*
D14*
X109220000Y-85090000D03*
X109220000Y-87630000D03*
D11*
X114300000Y-88900000D03*
D16*
X114300000Y-78740000D03*
X143510000Y-93980000D03*
D11*
X143510000Y-83820000D03*
D16*
X110490000Y-76200000D03*
D11*
X110490000Y-66040000D03*
X129540000Y-66040000D03*
D16*
X129540000Y-76200000D03*
D17*
X123420001Y-103200001D02*
X126430371Y-100189631D01*
X107769999Y-103200001D02*
X123420001Y-103200001D01*
X107619999Y-103050001D02*
X107769999Y-103200001D01*
X107619999Y-95580001D02*
X107619999Y-103050001D01*
X109220000Y-93980000D02*
X107619999Y-95580001D01*
X126430371Y-100189631D02*
X137445001Y-89175001D01*
X142800002Y-83820000D02*
X143510000Y-83820000D01*
X137445001Y-89175001D02*
X142800002Y-83820000D01*
X121644999Y-71395001D02*
X122205001Y-71395001D01*
X114300000Y-78740000D02*
X121644999Y-71395001D01*
X114959062Y-81180940D02*
X122205001Y-73935001D01*
X113027460Y-81180940D02*
X114959062Y-81180940D01*
X110490000Y-76200000D02*
X110490000Y-78643480D01*
X110490000Y-78643480D02*
X113027460Y-81180940D01*
X129264999Y-76475001D02*
X129540000Y-76200000D01*
X122205001Y-76475001D02*
X129264999Y-76475001D01*
X113647220Y-83202780D02*
X109220000Y-87630000D01*
X122205001Y-76475001D02*
X115477222Y-83202780D01*
X115477222Y-83202780D02*
X113647220Y-83202780D01*
X114300000Y-93980000D02*
X109220000Y-99060000D01*
X114300000Y-88900000D02*
X114300000Y-93980000D01*
X143234999Y-94255001D02*
X143510000Y-93980000D01*
X137445001Y-94255001D02*
X143234999Y-94255001D01*
X115420140Y-101600000D02*
X118110000Y-101600000D01*
X109220000Y-101600000D02*
X115420140Y-101600000D01*
X121930000Y-68580000D02*
X122205001Y-68855001D01*
X115570000Y-68580000D02*
X121930000Y-68580000D01*
X143510000Y-69840000D02*
X143510000Y-71120000D01*
X137445001Y-63775001D02*
X143510000Y-69840000D01*
X127285001Y-63775001D02*
X137445001Y-63775001D01*
X122205001Y-68855001D02*
X127285001Y-63775001D01*
X109220000Y-101600000D02*
X118110000Y-101600000D01*
X108005880Y-81335880D02*
X109220000Y-82550000D01*
X108005880Y-73502520D02*
X108005880Y-81335880D01*
X115570000Y-68580000D02*
X112928400Y-68580000D01*
X112928400Y-68580000D02*
X108005880Y-73502520D01*
X115044001Y-87349999D02*
X116339620Y-88645618D01*
X113555999Y-87349999D02*
X115044001Y-87349999D01*
X115519200Y-92788569D02*
X115509988Y-92797781D01*
X115519200Y-101500940D02*
X115420140Y-101600000D01*
X112029240Y-88876758D02*
X113555999Y-87349999D01*
X116339620Y-88645618D02*
X116339620Y-90990420D01*
X116339620Y-90990420D02*
X115519200Y-91810840D01*
X109220000Y-96520000D02*
X112029240Y-93710760D01*
X115519200Y-97711431D02*
X115519200Y-101500940D01*
X115519200Y-91810840D02*
X115519200Y-92788569D01*
X115509988Y-92797781D02*
X115509988Y-95162219D01*
X115509988Y-95162219D02*
X115519200Y-95171431D01*
X115519200Y-95171431D02*
X115519200Y-95328569D01*
X115519200Y-95328569D02*
X115509988Y-95337781D01*
X115509988Y-95337781D02*
X115509988Y-97702219D01*
X115509988Y-97702219D02*
X115519200Y-97711431D01*
X106619989Y-88812218D02*
X108790571Y-90982800D01*
X106619989Y-85150011D02*
X106619989Y-88812218D01*
X109220000Y-82550000D02*
X106619989Y-85150011D01*
X108790571Y-90982800D02*
X112029240Y-90982800D01*
X112029240Y-93710760D02*
X112029240Y-90982800D01*
X112029240Y-90982800D02*
X112029240Y-88876758D01*
X134630000Y-66040000D02*
X137445001Y-68855001D01*
X129540000Y-66040000D02*
X134630000Y-66040000D01*
X142250000Y-73660000D02*
X143510000Y-73660000D01*
X137445001Y-68855001D02*
X142250000Y-73660000D01*
X133517640Y-72782362D02*
X137445001Y-68855001D01*
X133517640Y-87776364D02*
X133517640Y-72782362D01*
X118110000Y-99060000D02*
X122234004Y-99060000D01*
X122234004Y-99060000D02*
X133517640Y-87776364D01*
X107619999Y-88398001D02*
X107619999Y-86690001D01*
X113649001Y-85520000D02*
X109939000Y-89230001D01*
X116410000Y-85520000D02*
X113649001Y-85520000D01*
X117767100Y-86877100D02*
X116410000Y-85520000D01*
X117767100Y-91954898D02*
X117767100Y-86877100D01*
X109939000Y-89230001D02*
X108451999Y-89230001D01*
X116509999Y-93211999D02*
X117767100Y-91954898D01*
X116509999Y-94175381D02*
X116509999Y-93211999D01*
X118110000Y-98888002D02*
X116509999Y-97288001D01*
X118110000Y-99060000D02*
X118110000Y-98888002D01*
X116509999Y-95751997D02*
X116519210Y-95742786D01*
X116509999Y-97288001D02*
X116509999Y-95751997D01*
X108451999Y-89230001D02*
X107619999Y-88398001D01*
X116519210Y-95742786D02*
X116519210Y-94184592D01*
X107619999Y-86690001D02*
X109220000Y-85090000D01*
X116519210Y-94184592D02*
X116509999Y-94175381D01*
X115570000Y-66040000D02*
X110490000Y-66040000D01*
X143234999Y-79015001D02*
X143510000Y-78740000D01*
X137445001Y-79015001D02*
X143234999Y-79015001D01*
X137720002Y-76200000D02*
X137445001Y-76475001D01*
X143510000Y-76200000D02*
X137720002Y-76200000D01*
X121930000Y-93980000D02*
X122205001Y-94255001D01*
X118110000Y-93980000D02*
X121930000Y-93980000D01*
X121930000Y-96520000D02*
X122205001Y-96795001D01*
X118110000Y-96520000D02*
X121930000Y-96520000D01*
M02*
