M48
; DRILL file {KiCad 5.1.6-c6e7f7d~87~ubuntu18.04.1} date Wed Aug  5 13:14:33 2020
; FORMAT={-:-/ absolute / inch / decimal}
; #@! TF.CreationDate,2020-08-05T13:14:33+01:00
; #@! TF.GenerationSoftware,Kicad,Pcbnew,5.1.6-c6e7f7d~87~ubuntu18.04.1
; #@! TF.FileFunction,Plated,1,2,PTH
FMAT,2
INCH
T1C0.0315
T2C0.0354
T3C0.0394
%
G90
G05
T1
X5.1Y-2.6
X5.1Y-3.0
X5.5315Y-2.5984
X5.5315Y-2.8937
X5.65Y-3.3
X5.65Y-3.7
X4.35Y-2.6
X4.35Y-3.0
X4.5Y-3.1
X4.5Y-3.5
X4.1929Y-3.1496
X4.1929Y-3.4449
T2
X4.55Y-2.6
X4.55Y-2.7
T3
X4.3Y-3.25
X4.3Y-3.35
X4.3Y-3.45
X4.65Y-3.7
X4.65Y-3.8
X4.65Y-3.9
X4.65Y-4.0
X5.65Y-2.8
X5.65Y-2.9
X5.65Y-3.0
X5.65Y-3.1
X4.8112Y-2.4108
X4.8112Y-2.5108
X4.8112Y-2.6108
X4.8112Y-2.7108
X4.8112Y-2.8108
X4.8112Y-2.9108
X4.8112Y-3.0108
X4.8112Y-3.1108
X4.8112Y-3.2108
X4.8112Y-3.3108
X4.8112Y-3.4108
X4.8112Y-3.5108
X4.8112Y-3.6108
X4.8112Y-3.7108
X4.8112Y-3.8108
X5.4112Y-2.4108
X5.4112Y-2.5108
X5.4112Y-2.6108
X5.4112Y-2.7108
X5.4112Y-2.8108
X5.4112Y-2.9108
X5.4112Y-3.0108
X5.4112Y-3.1108
X5.4112Y-3.2108
X5.4112Y-3.3108
X5.4112Y-3.4108
X5.4112Y-3.5108
X5.4112Y-3.6108
X5.4112Y-3.7108
X5.4112Y-3.8108
X4.3Y-3.7
X4.3Y-3.8
X4.3Y-3.9
X4.3Y-4.0
T0
M30
